<svg id="Group_2" data-name="Group 2" xmlns="http://www.w3.org/2000/svg" xmlns:xlink="http://www.w3.org/1999/xlink" width="82.048" height="81.984" viewBox="0 0 82.048 81.984">
  <defs>
    <clipPath id="clip-path">
      <rect id="Rectangle_1" data-name="Rectangle 1" width="82.048" height="81.984" fill="#fff"/>
    </clipPath>
  </defs>
  <g id="Group_1" data-name="Group 1" transform="translate(0 0)" clip-path="url(#clip-path)">
    <path id="Path_1" data-name="Path 1" d="M62.837,75.77A41,41,0,1,1,75.275,63.611,41.236,41.236,0,0,1,62.837,75.77M19.005,25.128c0-.044.006-.088.01-.131-.024-.086-.047-.173-.069-.261.022.131.042.261.058.392m48.737,9.079a8.81,8.81,0,0,0,5.439-3.093,8.846,8.846,0,0,0-11.005,1.2,10.44,10.44,0,0,1,7.62-.873,13.9,13.9,0,0,0-7.843,1.691,8.809,8.809,0,0,0,5.79,1.077M63.23,38.441a5.9,5.9,0,0,0,3.943-1.433,5.927,5.927,0,0,0-7.407-.444,7,7,0,0,1,5.134.278,9.324,9.324,0,0,0-5.374.235,5.9,5.9,0,0,0,3.7,1.363M14.01,34.207a8.81,8.81,0,0,1-5.439-3.093,8.844,8.844,0,0,1,11,1.2,10.436,10.436,0,0,0-7.618-.873A13.9,13.9,0,0,1,19.8,33.13a8.805,8.805,0,0,1-5.789,1.077m4.511,4.234a5.9,5.9,0,0,1-3.941-1.433,5.927,5.927,0,0,1,7.407-.444,6.989,6.989,0,0,0-5.134.278,9.319,9.319,0,0,1,5.373.235,5.9,5.9,0,0,1-3.7,1.363m13.243,15.35a8.8,8.8,0,0,1-4.636,4.2A8.844,8.844,0,0,1,31.7,47.912a10.429,10.429,0,0,0-3.208,6.966,13.907,13.907,0,0,1,4.053-6.923,8.805,8.805,0,0,1-.783,5.836m17.453,0a8.8,8.8,0,0,0,4.636,4.2,8.844,8.844,0,0,0-4.573-10.081,10.429,10.429,0,0,1,3.208,6.966,13.9,13.9,0,0,0-4.053-6.923,8.805,8.805,0,0,0,.783,5.836m5.865-.828a6.083,6.083,0,0,0,3.612,2.375,6.111,6.111,0,0,0-4.194-6.4,7.215,7.215,0,0,1,2.931,4.416,9.6,9.6,0,0,0-3.5-4.3,6.089,6.089,0,0,0,1.156,3.9m-28.588,0a6.083,6.083,0,0,1-3.612,2.375,6.11,6.11,0,0,1,4.2-6.4,7.212,7.212,0,0,0-2.932,4.416,9.613,9.613,0,0,1,3.5-4.3,6.089,6.089,0,0,1-1.156,3.9m21.24-16.582a7.335,7.335,0,0,1,3.126-4.166,7.361,7.361,0,0,1-2.146,8.962,8.69,8.69,0,0,0,1.522-6.2,11.583,11.583,0,0,1-2.22,6.3,7.331,7.331,0,0,1-.282-4.895M34.8,31.368a6.5,6.5,0,0,1-.754-4.554c2.877.959,5.579,3.189,4.569,7.106a8.452,8.452,0,0,0-3.182-5.014,10.272,10.272,0,0,1,2.674,5.28A6.5,6.5,0,0,1,34.8,31.368m4.742-9.3A5.974,5.974,0,0,0,36.7,18.93a5.989,5.989,0,0,0,2.411,7.1,7.072,7.072,0,0,1-1.7-4.911,9.433,9.433,0,0,0,2.271,4.939,5.971,5.971,0,0,0-.137-3.988M64.98,47.366a4.547,4.547,0,0,0,3.2.462,4.564,4.564,0,0,0-4.869-3A5.382,5.382,0,0,1,66.7,46.888a7.189,7.189,0,0,0-3.735-1.8,4.55,4.55,0,0,0,2.02,2.275m-37.153-2.2a4.556,4.556,0,0,1-3.152-.72A4.57,4.57,0,0,1,30.3,43.4a5.386,5.386,0,0,0-3.9.7,7.178,7.178,0,0,1,4.131-.333,4.538,4.538,0,0,1-2.7,1.4m28.58-13.632a5.973,5.973,0,0,1,2.392-3.5,6,6,0,0,1-.071,5.726,21.966,21.966,0,0,0,2.75-4.844A10.191,10.191,0,0,0,61,21.749a13.909,13.909,0,0,1-.44,8.01,8.841,8.841,0,0,1,.23-11.4,8.808,8.808,0,0,1,2.225,5.773c.051.337.089.669.117,1,.1-.259.212-.515.338-.768A8.8,8.8,0,0,1,68.064,20.1a8.841,8.841,0,0,1-4.853,10.324,13.909,13.909,0,0,1,3.159-7.374,9.61,9.61,0,0,0-3.3,5.014c-.667,5.007-4.084,9.083-8.184,12.3a17.665,17.665,0,0,1,5.978,1.064c-.069-.086-.135-.173-.2-.261.216.15.445.3.688.446A17.516,17.516,0,0,1,63.587,42.7a8.962,8.962,0,0,0,4.478.487,13.91,13.91,0,0,1-7.5-2.852,8.841,8.841,0,0,1,10.8,3.683,8.8,8.8,0,0,1-6.246.345,8.906,8.906,0,0,1-2.024-.933,26.129,26.129,0,0,0-8.615-.528,4.55,4.55,0,0,1,2.8,1.542,4.568,4.568,0,0,1-5.855-.676,7.192,7.192,0,0,1,4.132.332,5.294,5.294,0,0,0-3.692-.732,17.956,17.956,0,0,0-2.91.979c2.669,1.026,4.18,3.46,8.042,3.016l-.019,0a5.438,5.438,0,0,0,3.528-1.888,7.258,7.258,0,0,1-3.866,1.6,4.615,4.615,0,0,1,5.416-2.47,4.593,4.593,0,0,1-2.248,2.369,4.707,4.707,0,0,1-.448.188q-.132.082-.259.156a5.5,5.5,0,0,1,4.8,2.491c-2.01,1.015-5.723.669-7.094-1.193a8.338,8.338,0,0,1,5.016.512c-1.181-1.037-2.953-1.1-4.316-1.054-4.094,1.462-6.6-1.463-9.659-1.941-2.23-.348-3.265.809-4.4,2.224-.425-.9-.824-1.823-1.179-2.758A15.556,15.556,0,0,1,47.4,42.544c10.148-5.753,6.169-7.6,6.157-12.886a7.218,7.218,0,0,0-2.351-4.047,10.271,10.271,0,0,1,2.116,5.529,6.523,6.523,0,0,1-3.279-7.752,6.531,6.531,0,0,1,3.665,4.47c.024-.146.052-.294.083-.445A5.962,5.962,0,0,1,54.949,24.1c.071-.149.144-.3.221-.449-.032.094-.062.187-.092.28.1-.122.2-.24.3-.355a5.993,5.993,0,0,1-.005,7.73,9.429,9.429,0,0,1-.186-5.433,7.064,7.064,0,0,0-.332,5.186c-.046-.065-.089-.131-.132-.2.511,2.339,1.377,4.142.763,6.268a19.58,19.58,0,0,0,1.938-1.823,7.019,7.019,0,0,0,.964-5.009,9.43,9.43,0,0,1-1.578,5.2,5.961,5.961,0,0,1-.406-3.969M27,16.565A6.51,6.51,0,0,1,25.483,12.2c3,.458,6.038,2.2,5.706,6.23a8.455,8.455,0,0,0-3.986-4.4,10.262,10.262,0,0,1,3.529,4.753A6.5,6.5,0,0,1,27,16.565M17.153,48.458a5.517,5.517,0,0,1-3.791.994c.585-2.508,2.259-4.967,5.65-4.421a7.182,7.182,0,0,0-3.991,3.084,8.713,8.713,0,0,1,4.257-2.675,5.522,5.522,0,0,1-2.125,3.017M58.471,20.523a5.9,5.9,0,0,0,1.092-4.048,5.926,5.926,0,0,0-4.62,5.807,6.988,6.988,0,0,1,3.179-4.042,9.33,9.33,0,0,0-2.895,4.533,5.9,5.9,0,0,0,3.245-2.249M38.076,63.689A17.594,17.594,0,0,1,38.8,50.579a16.947,16.947,0,0,1,1.543,3.626c-.961,2.859-1.166,5.554.7,9.524,1.958-4.407,1.4-8.389-.551-12.553-1.107-2.356-2.98-4.854-5.9-4.758-3.419.113-5.913,3.369-10.314,1.673-1.4-.064-3.454-.122-4.772,1.036a8.338,8.338,0,0,1,5.016-.512c-1.372,1.861-5.084,2.207-7.094,1.193a5.427,5.427,0,0,1,5.41-2.417l-.023-.014A4.619,4.619,0,0,1,19.278,44.6a4.615,4.615,0,0,1,5.416,2.47,7.258,7.258,0,0,1-3.866-1.6,4.631,4.631,0,0,0,1.81,1.391c5.63,1.832,7.143-1.376,10.33-2.55C29,41.972,23.526,42.084,18.64,43.417a8.919,8.919,0,0,1-2.046.946,8.8,8.8,0,0,1-6.246-.345,8.841,8.841,0,0,1,10.8-3.683,13.906,13.906,0,0,1-7.5,2.852,10.429,10.429,0,0,0,7.4-2.011q-.166.225-.345.439a17.4,17.4,0,0,1,6.566-1.233c-4.437-3.482-8.073-7.967-8.3-13.543a10.306,10.306,0,0,0-4.1-6.19,13.912,13.912,0,0,1,3.671,7.134,8.842,8.842,0,0,1-5.568-9.956,8.853,8.853,0,0,1,5.84,6.276,8.863,8.863,0,0,1,2.669-7.944,8.841,8.841,0,0,1-.82,11.378,13.9,13.9,0,0,1,.3-8.018,10.117,10.117,0,0,0-1.157,6.93A26.8,26.8,0,0,0,23,33.185a6.013,6.013,0,0,1,.211-5.153A5.99,5.99,0,0,1,25.2,35.5a9.42,9.42,0,0,1-1.578-5.2,7.051,7.051,0,0,0,.99,5.058,20.293,20.293,0,0,0,2.118,2.2c-.684-3.209.529-4.063.5-6.92l-.008.033a7.7,7.7,0,0,0-2.53-5.061A10.261,10.261,0,0,1,26.8,31.141a6.523,6.523,0,0,1-3.279-7.752,6.5,6.5,0,0,1,3.134,3c.234.365.437.715.614,1.051a5.967,5.967,0,0,1,1.588-3.865,5.993,5.993,0,0,1-.005,7.73,9.429,9.429,0,0,1-.186-5.433,6.244,6.244,0,0,0-.651,3.383c.781,2.656-.09,4.431.6,6.853a7.828,7.828,0,0,0,4.015,4.9,7.361,7.361,0,0,1-1.943-8.8,7.359,7.359,0,0,1,2.844,9.061,11.583,11.583,0,0,1-2.22-6.3A8.646,8.646,0,0,0,32.783,41.1a48.477,48.477,0,0,1,4.889,2.708c-1.611-7.72,4.369-10.583.107-16.194-1.18-1.552-2.942-3.083-4.243-4.919a10.152,10.152,0,0,0-6.473-2.926,13.916,13.916,0,0,1,6.844,4.185,8.843,8.843,0,0,1-9.932-5.609A8.851,8.851,0,0,1,32.54,21a7.567,7.567,0,0,1-.676-2.461,5.976,5.976,0,0,1,.333-3.612A5.991,5.991,0,0,1,34.819,22.2,9.444,9.444,0,0,1,32.8,17.15a7.067,7.067,0,0,0,1.451,4.99c-.057-.041-.113-.081-.169-.125C36.1,24.1,38.727,25.37,40.227,27.75a19.008,19.008,0,0,0-.092-9.286,10.429,10.429,0,0,0-5.5-5.32,13.905,13.905,0,0,1,5.187,6.121,8.845,8.845,0,0,1-7.673-8.442,8.854,8.854,0,0,1,7.264,5.116,8.851,8.851,0,0,1,2.6-8.3,8.839,8.839,0,0,1-.82,11.377,13.911,13.911,0,0,1,.3-8.016,10.26,10.26,0,0,0-1.1,7.236,19.629,19.629,0,0,1,.97,13.591,7.318,7.318,0,0,0,4.5-4.458,8.486,8.486,0,0,0-1.564-5.7,11.653,11.653,0,0,1,.945,6.656,7.411,7.411,0,0,1-1.671-9.412,7.423,7.423,0,0,1,2.91,6.435,18.435,18.435,0,0,1,2.243-5.958,10,10,0,0,0-.384-6.791,13.9,13.9,0,0,1-.66,8A8.843,8.843,0,0,1,48.219,9.2a8.857,8.857,0,0,1,1.518,8.754,8.856,8.856,0,0,1,7.707-4.032,8.842,8.842,0,0,1-8.625,7.466,13.9,13.9,0,0,1,5.88-5.458,10.034,10.034,0,0,0-5.609,3.935,15.507,15.507,0,0,0-.767,3.6c-.847,8.278-3.4,9.394-5.449,10.6-2.9,1.7-3.276,5.037-2.725,8.278a7.365,7.365,0,0,1,4.684-7.361,7.361,7.361,0,0,1-4.178,8.529,11.589,11.589,0,0,1,2.728-6.1,8.628,8.628,0,0,0-3.143,5.423,24.1,24.1,0,0,0,1.507,4.731c2.393,4.883,4.493,9.063,2.267,15.955C41.253,72.069,57.6,75.166,61.647,72.9c4.951-1.885,9.344-7.089,12.006-11.3a38.569,38.569,0,1,0-61.918,4.522c2.3,2.686,5.182,5.523,8.484,6.78,5.913,3.128,20.435-1.608,17.857-9.208" transform="translate(0 0)" fill="#fff"/>
  </g>
</svg>
