<svg xmlns="http://www.w3.org/2000/svg" width="19" height="19" viewBox="0 0 19 19">
  <g id="Group_115129" data-name="Group 115129" transform="translate(-483 -1633)">
    <g id="Group_115112" data-name="Group 115112" transform="translate(501.599 1633.064) rotate(90)">
      <g id="Ellipse_1155" data-name="Ellipse 1155" transform="translate(-0.064 -0.401)" fill="none" stroke="#fff" stroke-width="1">
        <circle cx="9.5" cy="9.5" r="9.5" stroke="none"/>
        <circle cx="9.5" cy="9.5" r="9" fill="none"/>
      </g>
    </g>
    <path id="mouse-click-icon" d="M9.049,12.753a.568.568,0,0,1-.092.036.519.519,0,0,1-.1.018.557.557,0,0,1-.1,0,.691.691,0,0,1-.1-.015.612.612,0,0,1-.1-.037h0a.562.562,0,0,1-.094-.054h0a.654.654,0,0,1-.08-.07.529.529,0,0,1-.066-.089l-.926-1.518-.785.918a1.58,1.58,0,0,1-.112.12,1.206,1.206,0,0,1-.12.1l-.008.006a1.244,1.244,0,0,1-.122.084.986.986,0,0,1-.127.064.706.706,0,0,1-.1.038.634.634,0,0,1-.1.022.771.771,0,0,1-.108.007.733.733,0,0,1-.1-.011.626.626,0,0,1-.12-.036.553.553,0,0,1-.108-.058.635.635,0,0,1-.094-.08h0a.746.746,0,0,1-.077-.1l-.011-.02-.009-.021L5.143,11.7v-.017l-.695-7a.461.461,0,0,1,0-.136.438.438,0,0,1,.186-.286h0a.39.39,0,0,1,.092-.047.434.434,0,0,1,.1-.024h0A.44.44,0,0,1,4.96,4.2a.476.476,0,0,1,.128.045l.031.016C6.5,5.164,7.781,6,9.06,6.838L11,8.1a1.2,1.2,0,0,1,.1.073h0a.9.9,0,0,1,.084.074l.006.007a.756.756,0,0,1,.072.084.6.6,0,0,1,.058.089.655.655,0,0,1,.052.116.571.571,0,0,1,.027.119.555.555,0,0,1,0,.123h0a.622.622,0,0,1-.119.313.654.654,0,0,1-.068.085.76.76,0,0,1-.084.078,1.063,1.063,0,0,1-.118.085,1.319,1.319,0,0,1-.137.071c-.048.021-.1.042-.149.059a1.455,1.455,0,0,1-.158.044h0c-.283.055-.564.123-.844.191l-.332.079.918,1.524a.6.6,0,0,1,.047.1.57.57,0,0,1,.015.327v.01a.564.564,0,0,1-.034.1.656.656,0,0,1-.052.091.573.573,0,0,1-.069.083.612.612,0,0,1-.084.068l-.2.132a8.468,8.468,0,0,1-.879.527ZM4.114,2.26a.408.408,0,0,1-.706.408L2.592,1.24A.408.408,0,0,1,3.3.832L4.119,2.26ZM2.584,7.032a.408.408,0,0,1,.408.7l-1.428.822a.408.408,0,0,1-.408-.7ZM2.372,4.339a.408.408,0,0,1-.211.788L.581,4.7a.408.408,0,0,1,.2-.788l1.584.428Zm6.268.136a.408.408,0,0,1-.408-.7l1.428-.822a.408.408,0,0,1,.408.7Zm-1.892-2.1a.408.408,0,1,1-.787-.21L6.383.581a.408.408,0,0,1,.788.2ZM8.807,12.2l.987-.6c-.345-.573-.9-1.382-1.174-1.956a.221.221,0,0,1-.012-.037.245.245,0,0,1,.185-.293c.549-.125,1.11-.244,1.655-.381a1.049,1.049,0,0,0,.184-.059.623.623,0,0,0,.133-.079.345.345,0,0,0,.039-.039.092.092,0,0,0,.014-.024l-.006-.018a.219.219,0,0,0-.045-.054A.587.587,0,0,0,10.68,8.6l-5.6-3.661c.215,2.179.531,4.5.658,6.663a.641.641,0,0,0,.018.1.3.3,0,0,0,.027.063l.013.014a.1.1,0,0,0,.03,0,.281.281,0,0,0,.052-.017A.583.583,0,0,0,6,11.687a1.145,1.145,0,0,0,.138-.136,14.607,14.607,0,0,1,1.163-1.345.245.245,0,0,1,.335.084L8.807,12.2Z" transform="translate(484.913 1636.439) rotate(-9)" fill="#fcfcfc"/>
  </g>
</svg>
