<svg xmlns="http://www.w3.org/2000/svg" width="21.433" height="26.19" viewBox="0 0 21.433 26.19">
  <g id="copy-line-icon" transform="translate(-0.01)">
    <path id="Path_156212" data-name="Path 156212" d="M15.387,23.916l3.89-4.093h-3.89v4.093ZM17.433,1.961a.65.65,0,0,1-1.3,0V1.3H1.31V20.964h.642a.65.65,0,0,1,0,1.3H1.176a1.156,1.156,0,0,1-.825-.343l0,0a1.164,1.164,0,0,1-.343-.825V1.168A1.146,1.146,0,0,1,.351.343,1.156,1.156,0,0,1,1.176,0H16.265a1.164,1.164,0,0,1,.823.343h0l0,0a1.164,1.164,0,0,1,.343.823v.793ZM21.443,19.3a.651.651,0,0,1-.473.627l-5.73,6.026a.65.65,0,0,1-.5.237.272.272,0,0,1-.04,0l-.038,0H5.185a1.156,1.156,0,0,1-.825-.343l0,0,0,0a1.164,1.164,0,0,1-.343-.823V5.09a1.165,1.165,0,0,1,.343-.825l0,0a1.171,1.171,0,0,1,.823-.343H20.274a1.164,1.164,0,0,1,.823.343h0l0,0a1.164,1.164,0,0,1,.343.823V19.3Zm-1.3-.778V5.231H5.32V24.892h8.767V19.173a.65.65,0,0,1,.65-.65Z" transform="translate(0)" fill="#434343"/>
  </g>
</svg>
