<svg id="forgot-password-icon" xmlns="http://www.w3.org/2000/svg" width="21.236" height="27.151" viewBox="0 0 21.236 27.151">
  <path id="Path_156172" data-name="Path 156172" d="M.639,12.382h1.98V8.2A8.178,8.178,0,0,1,5.027,2.41v0a8.168,8.168,0,0,1,11.584,0l0,0A8.177,8.177,0,0,1,19.02,8.2v4.18H20.6a.641.641,0,0,1,.639.639V26.512a.641.641,0,0,1-.639.639H.639A.641.641,0,0,1,0,26.512V13.02a.641.641,0,0,1,.639-.639Zm10.812,9.3H9.47v-.219a2.948,2.948,0,0,1,.115-.905,2.055,2.055,0,0,1,.339-.637,11.065,11.065,0,0,1,1.018-1.012,1.024,1.024,0,0,0,.421-.7.673.673,0,0,0-.17-.492.681.681,0,0,0-.513-.176.789.789,0,0,0-.614.27,1.678,1.678,0,0,0-.311.94L7.74,18.482a3.161,3.161,0,0,1,.81-1.972,2.839,2.839,0,0,1,2.163-.748,2.98,2.98,0,0,1,1.833.523,2.232,2.232,0,0,1,.948,1.884,1.961,1.961,0,0,1-.245.942,4.455,4.455,0,0,1-1,1.108,2.807,2.807,0,0,0-.663.738,1.639,1.639,0,0,0-.139.727ZM9.4,22.695h2.121v1.622H9.4V22.695ZM5.8,12.382H15.833V8.156a5,5,0,0,0-1.472-3.542h0A5.013,5.013,0,0,0,5.805,8.156v4.226Z" fill="#919191" fill-rule="evenodd"/>
</svg>
