<svg xmlns="http://www.w3.org/2000/svg" width="19.826" height="27.192" viewBox="0 0 19.826 27.192">
  <path id="sign-out-icon" d="M14.693,15.194H8.916a1.6,1.6,0,0,1,0-3.2h5.778L12.817,9.9a1.6,1.6,0,0,1,.113-2.248,1.562,1.562,0,0,1,2.224.111l4.253,4.747a1.609,1.609,0,0,1,.013,2.151l-4.266,4.76a1.56,1.56,0,0,1-2.224.113,1.6,1.6,0,0,1-.113-2.248l1.877-2.093ZM9.5,24.025a1.6,1.6,0,1,1-.626,3.136l-.746-.15C2.841,25.962,0,25.366,0,17.747V8.991C0,1.693,3.049,1.122,8.1.179l.79-.15a1.6,1.6,0,0,1,.6,3.136l-.8.155C5.264,3.959,3.2,4.344,3.2,9v8.752c0,5,1.941,5.413,5.554,6.13l.75.148Z" transform="translate(0 0)" fill="#878787"/>
</svg>
