<svg xmlns="http://www.w3.org/2000/svg" width="23.414" height="22.128" viewBox="0 0 23.414 22.128">
  <path id="account-settings-icon" d="M0,20.624c.442-5.722,2.44-4.263,6.984-7.106,1.4,2.928,7.107,3.141,8.277,0a11.4,11.4,0,0,0,1.513.81,5.115,5.115,0,0,0-.626.532,5.069,5.069,0,0,0-.991,5.764H0Zm22.2-4.691a.34.34,0,0,0-.488,0l-.372.37a2.811,2.811,0,0,0-.653-.3v-.57a.34.34,0,0,0-.343-.344h-.716a.344.344,0,0,0-.343.344v.522a2.663,2.663,0,0,0-.667.255L18.2,15.8a.315.315,0,0,0-.238-.1.336.336,0,0,0-.244.1l-.5.5a.34.34,0,0,0,0,.488l.37.372a2.865,2.865,0,0,0-.3.652h-.57a.34.34,0,0,0-.344.344v.715a.336.336,0,0,0,.1.241.328.328,0,0,0,.244.1h.522a2.918,2.918,0,0,0,.255.675l-.406.4a.317.317,0,0,0-.1.238.339.339,0,0,0,.1.244l.5.508a.358.358,0,0,0,.488,0l.372-.378a2.827,2.827,0,0,0,.652.3v.571a.34.34,0,0,0,.343.343h.716a.335.335,0,0,0,.241-.1.328.328,0,0,0,.1-.244V21.26a2.9,2.9,0,0,0,.675-.255l.4.406a.333.333,0,0,0,.482,0l.508-.5a.357.357,0,0,0,0-.488L22.2,20.05a2.849,2.849,0,0,0,.3-.653h.571a.34.34,0,0,0,.343-.343v-.716a.336.336,0,0,0-.1-.241.328.328,0,0,0-.244-.1h-.522a2.811,2.811,0,0,0-.255-.668l.406-.412a.317.317,0,0,0,.1-.238.337.337,0,0,0-.1-.244l-.5-.5Zm-2.3,1.287a1.376,1.376,0,0,1,.54.108,1.361,1.361,0,0,1,.737.737,1.4,1.4,0,0,1,0,1.081,1.361,1.361,0,0,1-.737.737,1.406,1.406,0,0,1-1.081,0,1.369,1.369,0,0,1-.737-.737,1.406,1.406,0,0,1,0-1.081,1.369,1.369,0,0,1,.737-.737A1.378,1.378,0,0,1,19.895,17.221ZM8.055,13.286c-.06-.078.158-.618.21-.7A2.96,2.96,0,0,1,7.1,10.424H7.039a.86.86,0,0,1-.422-.111,1.151,1.151,0,0,1-.463-.562c-.214-.491-.918-2.121.155-1.992-.6-1.12.758-3.034-1.584-3.742C6.647,1.583,10.7-2.169,13.671,1.595a3.631,3.631,0,0,1,2.076,6.3.813.813,0,0,1,.356.091.888.888,0,0,1,.313,1.088c-.106.332-.241.556-.367.879-.155.436-.38.518-.815.471a2.9,2.9,0,0,1-1.192,2.243l.183.622c-.9,1.909-4.638,1.986-6.171,0Z" transform="translate(0 0.002)" fill="#919191" fill-rule="evenodd"/>
</svg>
