<svg id="setting-line-icon" xmlns="http://www.w3.org/2000/svg" width="46.079" height="46.079" viewBox="0 0 46.079 46.079">
  <path id="Path_156171" data-name="Path 156171" d="M36.74,7.014a1.218,1.218,0,0,0-.382-.268,1.1,1.1,0,0,0-.431-.078,1.114,1.114,0,0,0-.436.079,1.162,1.162,0,0,0-.373.263l-.008.008-2.328,2.32a1.007,1.007,0,0,1-1.279.117c-.274-.177-.565-.348-.871-.513-.324-.175-.642-.333-.953-.475s-.654-.287-.99-.417c-.3-.118-.645-.239-1.015-.361a1.01,1.01,0,0,1-.694-.958h0V3.161a1.2,1.2,0,0,0-.081-.454,1.108,1.108,0,0,0-.248-.364,1.082,1.082,0,0,0-.36-.244,1.194,1.194,0,0,0-.454-.08H21.358a1.094,1.094,0,0,0-.422.076,1.237,1.237,0,0,0-.385.264h0a1.108,1.108,0,0,0-.245.355,1.144,1.144,0,0,0-.081.446V6.429a1.01,1.01,0,0,1-.831.994c-.359.085-.69.174-.992.267q-.5.152-1,.346l-.049.018q-.437.17-.921.393t-.916.459a1.007,1.007,0,0,1-1.187-.166h0L11.752,6.2l-.024-.024h0a1.074,1.074,0,0,0-.346-.254,1.031,1.031,0,0,0-.414-.076,1.076,1.076,0,0,0-.427.081,1.294,1.294,0,0,0-.394.273h0L7.018,9.334l0,0,0,0a1.233,1.233,0,0,0-.273.382,1.1,1.1,0,0,0-.078.431,1.119,1.119,0,0,0,.079.437,1.159,1.159,0,0,0,.263.372l.008.008L9.338,13.3a1.007,1.007,0,0,1,.117,1.279c-.177.274-.348.565-.513.871-.175.325-.333.642-.475.953s-.287.654-.418.99c-.118.3-.239.644-.361,1.015a1.01,1.01,0,0,1-.958.694H3.162a1.2,1.2,0,0,0-.454.08,1.09,1.09,0,0,0-.359.244l0,0h0a1.1,1.1,0,0,0-.244.359,1.2,1.2,0,0,0-.08.454v4.48a1.092,1.092,0,0,0,.076.422,1.251,1.251,0,0,0,.264.385h0a1.1,1.1,0,0,0,.354.245,1.147,1.147,0,0,0,.446.081H6.429a1.01,1.01,0,0,1,.994.832c.085.358.174.69.267.992.1.331.216.663.346,1q.183.476.415.99t.462.957A1.006,1.006,0,0,1,8.732,31.8h0L6.191,34.335l-.016.016h0a1.075,1.075,0,0,0-.254.346,1.026,1.026,0,0,0-.076.415,1.081,1.081,0,0,0,.08.427,1.285,1.285,0,0,0,.274.394l3.116,3.152a1.144,1.144,0,0,0,.837.326,1.248,1.248,0,0,0,.461-.08,1.154,1.154,0,0,0,.367-.237l2.31-2.346a1.007,1.007,0,0,1,1.289-.123c.273.176.564.346.869.511.325.176.642.333.953.475s.654.288.99.418c.3.118.644.239,1.015.361a1.01,1.01,0,0,1,.694.958h0v3.569a1.2,1.2,0,0,0,.08.454,1.092,1.092,0,0,0,.244.36l0,0,0,0a1.1,1.1,0,0,0,.813.328H24.72a1.1,1.1,0,0,0,.423-.076,1.24,1.24,0,0,0,.384-.264h0a1.116,1.116,0,0,0,.245-.354,1.138,1.138,0,0,0,.081-.446V39.65a1.009,1.009,0,0,1,.831-.994c.358-.085.69-.174.992-.267q.5-.152,1-.346.477-.184.991-.416t.955-.462a1.007,1.007,0,0,1,1.179.182h0l2.533,2.541.015.016h0a1.119,1.119,0,0,0,1.212.25,1.064,1.064,0,0,0,.348-.25c.012-.013.024-.025.037-.037l3.138-3.1a1.15,1.15,0,0,0,.326-.837,1.248,1.248,0,0,0-.08-.461,1.162,1.162,0,0,0-.237-.366l-2.346-2.31a1.007,1.007,0,0,1-.124-1.289c.177-.273.346-.564.511-.869.176-.324.333-.642.475-.953s.287-.654.418-.99c.118-.3.239-.644.361-1.015a1.01,1.01,0,0,1,.959-.694h3.568a1.194,1.194,0,0,0,.454-.08,1.1,1.1,0,0,0,.36-.244l0,0h0a1.087,1.087,0,0,0,.244-.36,1.192,1.192,0,0,0,.08-.454v-4.48a1.089,1.089,0,0,0-.076-.422,1.247,1.247,0,0,0-.264-.385h0a1.106,1.106,0,0,0-.354-.245,1.141,1.141,0,0,0-.446-.081H39.65a1.009,1.009,0,0,1-1-.848q-.119-.474-.27-.962c-.1-.312-.211-.643-.345-.992-.007-.017-.012-.034-.018-.051q-.19-.5-.39-.936-.217-.474-.459-.917a1.008,1.008,0,0,1,.166-1.187h0l2.541-2.578.024-.024h0a1.072,1.072,0,0,0,.254-.346,1.031,1.031,0,0,0,.077-.414,1.076,1.076,0,0,0-.081-.427,1.289,1.289,0,0,0-.274-.394h0L36.744,7.018l0,0Zm.4-2.123a3.2,3.2,0,0,1,1.024.7h0l3.143,3.136.008.008a3.28,3.28,0,0,1,.692,1.017,3.065,3.065,0,0,1,.246,1.216A3,3,0,0,1,42,12.186a3.057,3.057,0,0,1-.7.995l-2.013,2.042c.059.123.118.248.176.375q.242.528.443,1.057c.007.016.014.032.02.048.134.351.262.725.384,1.118q.059.19.114.383h2.494a3.064,3.064,0,0,1,2.232.929l.021.021a3.221,3.221,0,0,1,.675,1.016,3.066,3.066,0,0,1,.234,1.188v4.479a3.174,3.174,0,0,1-.23,1.211,3.109,3.109,0,0,1-.689,1.025h0l0,0h0a3.108,3.108,0,0,1-1.026.69,3.184,3.184,0,0,1-1.211.23H40.064c-.05.134-.1.273-.157.415q-.214.551-.465,1.1c-.174.379-.35.737-.53,1.071q-.089.164-.182.328l1.781,1.753.039.038a3.263,3.263,0,0,1,.661,3.41,3.229,3.229,0,0,1-.654,1.025h0l-.031.032L37.364,41.3a3.071,3.071,0,0,1-4.472-.006l-2-2.009c-.134.064-.265.126-.393.183q-.512.231-1.093.455-.546.213-1.138.393-.2.06-.388.115v2.489a3.066,3.066,0,0,1-.93,2.232l-.021.022a3.253,3.253,0,0,1-1.016.674,3.076,3.076,0,0,1-1.188.234h-4.48A3.043,3.043,0,0,1,18,45.159l0,0a3.1,3.1,0,0,1-.692-1.028,3.176,3.176,0,0,1-.23-1.211V40.064c-.135-.05-.273-.1-.415-.157q-.55-.214-1.1-.465-.569-.26-1.072-.531-.164-.088-.327-.182L12.412,40.51l-.038.039a3.179,3.179,0,0,1-1.027.66,3.224,3.224,0,0,1-3.408-.652h0l-.032-.031L4.764,37.346a3.287,3.287,0,0,1-.692-1.018,3.072,3.072,0,0,1-.246-1.216,3.012,3.012,0,0,1,.25-1.219,3.067,3.067,0,0,1,.711-1l2.01-2q-.1-.2-.184-.394-.231-.511-.455-1.092-.213-.546-.394-1.138c-.04-.132-.078-.261-.115-.388H3.162A3.068,3.068,0,0,1,.93,26.947l-.022-.022a3.231,3.231,0,0,1-.674-1.016A3.075,3.075,0,0,1,0,24.721v-4.48A3.174,3.174,0,0,1,.23,19.03,3.1,3.1,0,0,1,.92,18h0l0,0,0,0a3.1,3.1,0,0,1,1.026-.69,3.174,3.174,0,0,1,1.211-.23H6.015q.074-.2.157-.415.214-.55.465-1.1c.173-.379.35-.737.531-1.071q.09-.167.186-.334L5.6,12.4h0a3.153,3.153,0,0,1-.7-1.027,3.146,3.146,0,0,1,0-2.43,3.218,3.218,0,0,1,.7-1.029l0,0L8.726,4.772l.008-.008a3.285,3.285,0,0,1,1.017-.692,3.073,3.073,0,0,1,1.216-.246,3.011,3.011,0,0,1,1.219.25,3.058,3.058,0,0,1,.995.7l2.04,2.011q.184-.091.367-.175.471-.217,1.039-.438l.049-.021q.546-.213,1.139-.394.2-.06.388-.115V3.161A3.069,3.069,0,0,1,19.133.93l.021-.021A3.234,3.234,0,0,1,20.17.234,3.069,3.069,0,0,1,21.358,0h4.479a3.175,3.175,0,0,1,1.211.23,3.228,3.228,0,0,1,1.72,1.72A3.173,3.173,0,0,1,29,3.161V6.014c.135.05.273.1.415.157q.55.214,1.1.465c.379.173.738.35,1.071.531q.168.091.335.186L33.68,5.6h0a3.159,3.159,0,0,1,1.027-.7,3.15,3.15,0,0,1,2.431,0Zm-14.1,8.363a9.974,9.974,0,0,1,1.955.19,9.62,9.62,0,0,1,1.857.575l.007,0v0a10.368,10.368,0,0,1,1.665.906,9.781,9.781,0,0,1,1.444,1.179l0,0h0a9.763,9.763,0,0,1,1.18,1.444,10.366,10.366,0,0,1,.906,1.665c.012.028.022.055.031.084a9.584,9.584,0,0,1,.543,1.782,10.127,10.127,0,0,1,0,3.91,9.619,9.619,0,0,1-.575,1.857l0,.007h0a10.392,10.392,0,0,1-.906,1.665,9.811,9.811,0,0,1-1.18,1.444l0,0h0a9.766,9.766,0,0,1-1.444,1.18,10.343,10.343,0,0,1-1.665.906c-.028.012-.055.022-.084.031a9.582,9.582,0,0,1-1.781.544,10.127,10.127,0,0,1-3.91,0,9.649,9.649,0,0,1-1.858-.575l-.007,0v0a10.38,10.38,0,0,1-1.665-.906,9.74,9.74,0,0,1-1.444-1.18l0,0h0a9.742,9.742,0,0,1-1.18-1.444,10.373,10.373,0,0,1-.906-1.665c-.012-.028-.023-.056-.032-.084a9.586,9.586,0,0,1-.544-1.782,10.127,10.127,0,0,1,0-3.91,9.613,9.613,0,0,1,.576-1.857l0-.007h0a10.374,10.374,0,0,1,.906-1.665,9.766,9.766,0,0,1,1.18-1.444l0,0h0a9.778,9.778,0,0,1,1.443-1.179,10.4,10.4,0,0,1,1.666-.906.873.873,0,0,1,.084-.031,9.581,9.581,0,0,1,1.781-.543,9.913,9.913,0,0,1,1.955-.191Zm1.561,2.17a8.135,8.135,0,0,0-3.121,0,7.632,7.632,0,0,0-1.4.421c-.019.01-.039.019-.06.028a8.4,8.4,0,0,0-1.342.725A7.35,7.35,0,0,0,16.6,18.674a8.345,8.345,0,0,0-.724,1.342h0a7.625,7.625,0,0,0-.447,1.464,8.153,8.153,0,0,0,0,3.121,7.633,7.633,0,0,0,.421,1.4c.01.02.019.039.028.06A8.37,8.37,0,0,0,16.6,27.4a7.353,7.353,0,0,0,2.076,2.076,8.364,8.364,0,0,0,1.342.725v0a7.58,7.58,0,0,0,1.464.446,8.154,8.154,0,0,0,3.121,0,7.636,7.636,0,0,0,1.4-.421c.019-.01.039-.019.06-.028a8.409,8.409,0,0,0,1.342-.725A7.358,7.358,0,0,0,29.481,27.4a8.343,8.343,0,0,0,.724-1.342h0a7.6,7.6,0,0,0,.447-1.464,8.153,8.153,0,0,0,0-3.121,7.637,7.637,0,0,0-.421-1.4c-.01-.019-.019-.039-.028-.06a8.287,8.287,0,0,0-.724-1.342A7.343,7.343,0,0,0,27.405,16.6a8.408,8.408,0,0,0-1.342-.725v0a7.591,7.591,0,0,0-1.464-.447Z"/>
</svg>
