<svg xmlns="http://www.w3.org/2000/svg" width="14.03" height="12.63" viewBox="0 0 14.03 12.63">
  <path id="Path_156257" data-name="Path 156257" d="M102.52,55.3a1.013,1.013,0,1,1-1.013-1.014A1.013,1.013,0,0,1,102.52,55.3Zm.971.7a2.105,2.105,0,0,1-3.969,0H98.7a.7.7,0,0,1,0-1.4h.821a2.105,2.105,0,0,1,3.969,0h7.836a.7.7,0,0,1,0,1.4Zm5.03,5.613a2.105,2.105,0,0,0,1.985-1.4h.821a.7.7,0,0,0,0-1.4h-.821a2.105,2.105,0,0,0-3.969,0H98.7a.7.7,0,0,0,0,1.4h7.836A2.105,2.105,0,0,0,108.521,61.619Zm-9.821,1.4a.7.7,0,0,0,0,1.4h2.926a2.105,2.105,0,0,0,3.97,0h5.731a.7.7,0,0,0,0-1.4H105.6a2.105,2.105,0,0,0-3.97,0Zm3.9.7a1.013,1.013,0,1,0,1.013-1.013A1.013,1.013,0,0,0,102.6,63.724Zm5.924-3.2a1.013,1.013,0,1,0-1.013-1.013A1.013,1.013,0,0,0,108.521,60.527Z" transform="translate(-97.999 -53.199)" fill="#3a3a3c" fill-rule="evenodd"/>
</svg>
