<svg xmlns="http://www.w3.org/2000/svg" width="49.776" height="43.214" viewBox="0 0 49.776 43.214">
  <path id="noun-trust-4398553" d="M100.5,41.785h0a8.749,8.749,0,0,1-1.881.962,20.39,20.39,0,0,1-13.438,0A9.582,9.582,0,0,1,83.85,42.1v5.638a.14.14,0,0,0,.038.021l3.233,1.869a2.2,2.2,0,0,1,1.064,2.24l1.737,1L97.6,50.8a3,3,0,0,1,3.488,1.614l1.928-.517a3,3,0,0,1,1.191-.076h.024l6.793,1.063,1.766-1.021a2.2,2.2,0,0,1,1.064-2.24l3.234-1.869a.135.135,0,0,1,.038-.021V42.07a11.411,11.411,0,0,1-1.448.675,19.725,19.725,0,0,1-13.2,0,10.245,10.245,0,0,1-1.977-.963ZM82.82,48.54a1.366,1.366,0,0,0-.314.036,1.1,1.1,0,0,0-.67.522l-6.084,10.55a1.1,1.1,0,0,0,.4,1.515l3.234,1.869a1.087,1.087,0,0,0,1.369-.21.542.542,0,0,1,.091-.116c.017-.026.035-.052.051-.079l6.084-10.55c.017-.029.032-.06.046-.089h0a.531.531,0,0,1,.051-.128,1.093,1.093,0,0,0-.5-1.3l-3.233-1.869a1.19,1.19,0,0,0-.2-.092h-.013a1.082,1.082,0,0,0-.313-.056Zm35.333,0a.979.979,0,0,0-.307.055h0l-.021.011a1.223,1.223,0,0,0-.2.091l-3.233,1.869a1.093,1.093,0,0,0-.5,1.3h0a.527.527,0,0,1,.05.125c.013.03.029.06.046.089l6.083,10.55c.017.028.034.055.052.081h0a.548.548,0,0,1,.088.112,1.088,1.088,0,0,0,1.371.212l3.233-1.87a1.1,1.1,0,0,0,.4-1.514L119.136,49.1a1.085,1.085,0,0,0-.984-.557ZM98.458,51.776a1.8,1.8,0,0,0-.577.067L89.995,53.97h-.007l-.029.011-.043.012h-.15l-.032-.012h-.017l-.035-.011-.017-.012-.034-.013h-.011a.426.426,0,0,1-.04-.021h0l-1.8-1.043-5.8,10.052L83.6,63.959h.006l3.111,1.967.045-.047,2.982-2.986a2.647,2.647,0,0,1,4.5,2.237,2.84,2.84,0,0,1,.36-.025,2.643,2.643,0,0,1,2.622,3.01,2.843,2.843,0,0,1,.36-.025A2.644,2.644,0,0,1,100.2,71.1a2.833,2.833,0,0,1,.359-.025,2.649,2.649,0,0,1,1.874,4.524l-1.109,1.111,1.97,1.972a1.569,1.569,0,0,0,2.217-2.222h0l-.006-.012-1.272-1.274h0A.541.541,0,1,1,105,74.41l1.278,1.28A1.569,1.569,0,1,0,108.5,73.47l-1.258-1.261a.541.541,0,1,1,.765-.764l1.259,1.26a1.569,1.569,0,0,0,2.216-2.221l-1.317-1.319a.541.541,0,1,1,.765-.764l1.318,1.319A1.569,1.569,0,0,0,114.46,67.5l-9.85-9.862-8.861,2.426a3,3,0,0,1-1.556-5.8L100.02,52.7a1.891,1.891,0,0,0-1.559-.924Zm5.27,1.1a1.684,1.684,0,0,0-.433.065l-2.385.64h-.01l-6.432,1.725a1.922,1.922,0,0,0,.99,3.714l9.087-2.488h0a.537.537,0,0,1,.579.1l.029.027,9.313,9.324,2.654-1.989h0l.028-.021.025-.015h.007l.022-.013h0l.122-.071a.548.548,0,0,1,.136-.078l1.522-.879L113.2,52.879l-1.714.992h0a.541.541,0,0,1-.412.121h-.03L104.06,52.9h0a1.173,1.173,0,0,0-.187-.015h-.142ZM91.614,63.19a1.562,1.562,0,0,0-1.108.466l-2.982,2.985a1.569,1.569,0,0,0,2.217,2.222l2.982-2.986a1.577,1.577,0,0,0-1.109-2.687Zm25.508,2.154-1.884,1.411a2.649,2.649,0,0,1-2.249,4.484,2.644,2.644,0,0,1-2.981,2.986,2.645,2.645,0,0,1-2.983,2.985,2.647,2.647,0,0,1-4.5,2.236l-1.968-1.972-1.108,1.11a2.648,2.648,0,0,1-4.5-2.236,2.644,2.644,0,0,1-2.982-2.985,2.644,2.644,0,0,1-2.982-2.986,2.647,2.647,0,0,1-2.848-3.532l-2.3-1.451v3.015c0,4.437,4.123,8.66,8.364,11.729a51.771,51.771,0,0,0,8.271,4.858,51.761,51.761,0,0,0,8.272-4.858c4.241-3.069,8.364-7.292,8.364-11.729ZM94.6,66.176a1.561,1.561,0,0,0-1.108.466l-2.982,2.986a1.569,1.569,0,0,0,2.217,2.221l2.982-2.985A1.576,1.576,0,0,0,94.6,66.176Zm2.982,2.985a1.561,1.561,0,0,0-1.108.467l-2.982,2.986a1.569,1.569,0,0,0,2.217,2.221l2.982-2.986a1.577,1.577,0,0,0-1.108-2.687Zm2.982,2.986a1.561,1.561,0,0,0-1.108.466L96.47,75.6a1.569,1.569,0,0,0,2.217,2.222l2.982-2.986a1.577,1.577,0,0,0-1.109-2.687Z" transform="translate(-75.598 -41.781)" fill="#8b8bf4"/>
</svg>
