<svg id="mobile-layout-icon" xmlns="http://www.w3.org/2000/svg" width="34.095" height="58.533" viewBox="0 0 34.095 58.533">
  <path id="Path_156176" data-name="Path 156176" d="M6.06,0H28.035a6.089,6.089,0,0,1,4.287,1.772A6.026,6.026,0,0,1,34.095,6.06V52.474a6.089,6.089,0,0,1-1.772,4.287,6.026,6.026,0,0,1-4.287,1.772H6.06a6.089,6.089,0,0,1-4.287-1.772A6.026,6.026,0,0,1,0,52.474V6.06A6.051,6.051,0,0,1,6.06,0ZM5.088,13.005H29.012V24.677H5.088V13.005ZM18.1,43.256H29.017v2.272H18.1V43.256ZM5.088,27.759H15.206V32.4H5.088V27.759Zm13.015-.01H29.017v4.659H18.1V27.749ZM17.941,35.5H28.855v4.659H17.941V35.5Zm-12.7,0H15.363v4.645H5.245V35.51ZM5.088,43.26H15.206v2.268H5.088V43.26ZM17.04,51.087a2.5,2.5,0,1,1-2.5,2.5,2.493,2.493,0,0,1,2.5-2.5ZM1.72,49.191H32.361V9.4H1.72V49.191Z" fill="#e485a1" fill-rule="evenodd"/>
</svg>
