<svg id="Group_114960" data-name="Group 114960" xmlns="http://www.w3.org/2000/svg" xmlns:xlink="http://www.w3.org/1999/xlink" width="47.573" height="55.244" viewBox="0 0 47.573 55.244">
  <defs>
    <clipPath id="clip-path">
      <rect id="Rectangle_11" data-name="Rectangle 11" width="47.573" height="55.244" fill="#59bd7d"/>
    </clipPath>
  </defs>
  <g id="Group_8" data-name="Group 8" clip-path="url(#clip-path)">
    <path id="Path_11" data-name="Path 11" d="M219.05,40.739a5.5,5.5,0,1,1,5.5-5.508,5.5,5.5,0,0,1-5.5,5.508" transform="translate(-195.318 -27.194)" fill="#59bd7d" fill-rule="evenodd"/>
    <path id="Path_12" data-name="Path 12" d="M387.251,130.2a4.373,4.373,0,1,1,4.379-4.379,4.373,4.373,0,0,1-4.379,4.379" transform="translate(-350.189 -111.083)" fill="#59bd7d" fill-rule="evenodd"/>
    <path id="Path_13" data-name="Path 13" d="M448.735,276.329a3.1,3.1,0,1,1,3.1-3.109,3.1,3.1,0,0,1-3.1,3.109" transform="translate(-407.574 -247.056)" fill="#59bd7d" fill-rule="evenodd"/>
    <path id="Path_14" data-name="Path 14" d="M416.718,396.515a2.469,2.469,0,1,1,2.474-2.474,2.473,2.473,0,0,1-2.474,2.474" transform="translate(-378.881 -358.14)" fill="#59bd7d" fill-rule="evenodd"/>
    <path id="Path_15" data-name="Path 15" d="M346.878,455.9a2.049,2.049,0,1,1,2.055-2.055,2.046,2.046,0,0,1-2.055,2.055" transform="translate(-315.389 -413.221)" fill="#59bd7d" fill-rule="evenodd"/>
    <path id="Path_16" data-name="Path 16" d="M328.423,249.261a2.609,2.609,0,1,1,2.6-2.6,2.608,2.608,0,0,1-2.6,2.6" transform="translate(-297.988 -223.204)" fill="#59bd7d" fill-rule="evenodd"/>
    <path id="Path_17" data-name="Path 17" d="M70.135,130.2a4.373,4.373,0,1,0-4.368-4.379,4.376,4.376,0,0,0,4.368,4.379" transform="translate(-60.151 -111.083)" fill="#59bd7d" fill-rule="evenodd"/>
    <path id="Path_18" data-name="Path 18" d="M41.147,279.228a3.1,3.1,0,1,0-3.1-3.109,3.111,3.111,0,0,0,3.1,3.109" transform="translate(-34.8 -249.707)" fill="#59bd7d" fill-rule="evenodd"/>
    <path id="Path_19" data-name="Path 19" d="M85.5,395.255a2.469,2.469,0,1,0-2.474-2.474,2.466,2.466,0,0,0,2.474,2.474" transform="translate(-75.937 -356.988)" fill="#59bd7d" fill-rule="evenodd"/>
    <path id="Path_20" data-name="Path 20" d="M165.086,459.175a2.049,2.049,0,1,0-2.055-2.044,2.043,2.043,0,0,0,2.055,2.044" transform="translate(-149.11 -416.217)" fill="#59bd7d" fill-rule="evenodd"/>
    <path id="Path_21" data-name="Path 21" d="M166.642,249.261a2.609,2.609,0,1,0-2.6-2.6,2.608,2.608,0,0,0,2.6,2.6" transform="translate(-150.031 -223.204)" fill="#59bd7d" fill-rule="evenodd"/>
    <path id="Path_22" data-name="Path 22" d="M406.346,464.97a2.049,2.049,0,1,1,2.055-2.044,2.043,2.043,0,0,1-2.055,2.044" transform="translate(-369.779 -421.517)" fill="#59bd7d" fill-rule="evenodd"/>
    <path id="Path_23" data-name="Path 23" d="M484.007,359.726a2.469,2.469,0,1,1,2.464-2.474,2.475,2.475,0,0,1-2.464,2.474" transform="translate(-440.415 -324.493)" fill="#59bd7d" fill-rule="evenodd"/>
    <path id="Path_24" data-name="Path 24" d="M487.54,196.957a3.1,3.1,0,1,1,3.1-3.1,3.1,3.1,0,0,1-3.1,3.1" transform="translate(-443.065 -174.461)" fill="#59bd7d" fill-rule="evenodd"/>
    <path id="Path_25" data-name="Path 25" d="M359.922,8.747a4.373,4.373,0,1,1,4.368-4.379,4.376,4.376,0,0,1-4.368,4.379" transform="translate(-325.183 0)" fill="#59bd7d" fill-rule="evenodd"/>
    <path id="Path_26" data-name="Path 26" d="M104.359,463.332a2.049,2.049,0,1,0-2.055-2.055,2.052,2.052,0,0,0,2.055,2.055" transform="translate(-93.568 -420.019)" fill="#59bd7d" fill-rule="evenodd"/>
    <path id="Path_27" data-name="Path 27" d="M20.228,359.726a2.469,2.469,0,1,0-2.464-2.474,2.475,2.475,0,0,0,2.464,2.474" transform="translate(-16.247 -324.493)" fill="#59bd7d" fill-rule="evenodd"/>
    <path id="Path_28" data-name="Path 28" d="M3.1,203.13a3.1,3.1,0,1,0-3.1-3.1,3.1,3.1,0,0,0,3.1,3.1" transform="translate(0 -180.107)" fill="#59bd7d" fill-rule="evenodd"/>
    <path id="Path_29" data-name="Path 29" d="M6.2,200.031a3.1,3.1,0,1,0-3.1,3.1,3.108,3.108,0,0,0,3.1-3.1" transform="translate(0 -180.107)" fill="#59bd7d" fill-rule="evenodd"/>
    <path id="Path_30" data-name="Path 30" d="M65.767,125.822a4.373,4.373,0,1,0,4.368-4.368,4.373,4.373,0,0,0-4.368,4.368" transform="translate(-60.151 -111.083)" fill="#59bd7d" fill-rule="evenodd"/>
    <path id="Path_31" data-name="Path 31" d="M99.91,8.9a4.373,4.373,0,1,0,4.368-4.368A4.373,4.373,0,0,0,99.91,8.9" transform="translate(-91.379 -4.149)" fill="#59bd7d" fill-rule="evenodd"/>
    <path id="Path_32" data-name="Path 32" d="M213.553,35.232a5.5,5.5,0,1,0,5.5-5.5,5.5,5.5,0,0,0-5.5,5.5" transform="translate(-195.318 -27.195)" fill="#59bd7d" fill-rule="evenodd"/>
    <path id="Path_33" data-name="Path 33" d="M355.543,4.368A4.373,4.373,0,1,0,359.922,0a4.376,4.376,0,0,0-4.379,4.368" transform="translate(-325.183 0)" fill="#59bd7d" fill-rule="evenodd"/>
    <path id="Path_34" data-name="Path 34" d="M387.251,121.454a4.373,4.373,0,1,0,4.379,4.368,4.371,4.371,0,0,0-4.379-4.368" transform="translate(-350.189 -111.083)" fill="#59bd7d" fill-rule="evenodd"/>
    <path id="Path_35" data-name="Path 35" d="M487.54,190.749a3.1,3.1,0,1,0,3.1,3.109,3.1,3.1,0,0,0-3.1-3.109" transform="translate(-443.065 -174.461)" fill="#59bd7d" fill-rule="evenodd"/>
    <path id="Path_36" data-name="Path 36" d="M331.028,246.656a2.609,2.609,0,1,0-2.6,2.6,2.608,2.608,0,0,0,2.6-2.6" transform="translate(-297.989 -223.203)" fill="#59bd7d" fill-rule="evenodd"/>
    <path id="Path_37" data-name="Path 37" d="M169.257,246.656a2.609,2.609,0,1,0-2.614,2.6,2.617,2.617,0,0,0,2.614-2.6" transform="translate(-150.032 -223.203)" fill="#59bd7d" fill-rule="evenodd"/>
    <path id="Path_38" data-name="Path 38" d="M44.257,276.118a3.1,3.1,0,1,0-3.109,3.109,3.1,3.1,0,0,0,3.109-3.109" transform="translate(-34.8 -249.707)" fill="#59bd7d" fill-rule="evenodd"/>
    <path id="Path_39" data-name="Path 39" d="M22.7,357.251a2.469,2.469,0,1,0-2.474,2.474,2.473,2.473,0,0,0,2.474-2.474" transform="translate(-16.248 -324.492)" fill="#59bd7d" fill-rule="evenodd"/>
    <path id="Path_40" data-name="Path 40" d="M85.5,390.317a2.469,2.469,0,1,0,2.464,2.464,2.466,2.466,0,0,0-2.464-2.464" transform="translate(-75.937 -356.988)" fill="#59bd7d" fill-rule="evenodd"/>
    <path id="Path_41" data-name="Path 41" d="M104.359,459.233a2.049,2.049,0,1,0,2.044,2.044,2.046,2.046,0,0,0-2.044-2.044" transform="translate(-93.568 -420.019)" fill="#59bd7d" fill-rule="evenodd"/>
    <path id="Path_42" data-name="Path 42" d="M165.086,455.076a2.049,2.049,0,1,0,2.044,2.055,2.048,2.048,0,0,0-2.044-2.055" transform="translate(-149.11 -416.217)" fill="#59bd7d" fill-rule="evenodd"/>
    <path id="Path_43" data-name="Path 43" d="M344.834,453.844a2.049,2.049,0,1,0,2.044-2.044,2.046,2.046,0,0,0-2.044,2.044" transform="translate(-315.389 -413.221)" fill="#59bd7d" fill-rule="evenodd"/>
    <path id="Path_44" data-name="Path 44" d="M404.3,462.926a2.049,2.049,0,1,0,2.044-2.055,2.043,2.043,0,0,0-2.044,2.055" transform="translate(-369.778 -421.517)" fill="#59bd7d" fill-rule="evenodd"/>
    <path id="Path_45" data-name="Path 45" d="M414.255,394.04a2.469,2.469,0,1,0,2.464-2.464,2.473,2.473,0,0,0-2.464,2.464" transform="translate(-378.882 -358.139)" fill="#59bd7d" fill-rule="evenodd"/>
    <path id="Path_46" data-name="Path 46" d="M481.533,357.251a2.469,2.469,0,1,0,2.474-2.464,2.475,2.475,0,0,0-2.474,2.464" transform="translate(-440.415 -324.492)" fill="#59bd7d" fill-rule="evenodd"/>
    <path id="Path_47" data-name="Path 47" d="M448.735,276.329a3.1,3.1,0,1,0-3.109-3.109,3.1,3.1,0,0,0,3.109,3.109" transform="translate(-407.574 -247.056)" fill="#59bd7d" fill-rule="evenodd"/>
    <path id="Path_48" data-name="Path 48" d="M157.763,246.8V229.169s-8.919-10.091-8.069-9.661,8.424,7.262,8.531,6.767.99-15.266,1.409-16.224,1.237-.527,1.549.172,1.98,16.019,1.98,16.019,8.036-7.057,8.036-6.487-7.4,9.973-7.4,9.973v17.127Z" transform="translate(-136.86 -191.611)" fill="#59bd7d" fill-rule="evenodd"/>
  </g>
</svg>
