<svg id="confirm-icon" xmlns="http://www.w3.org/2000/svg" width="41.304" height="41.304" viewBox="0 0 41.304 41.304">
  <path id="Path_156165" data-name="Path 156165" d="M20.652,0A20.652,20.652,0,1,1,0,20.652,20.652,20.652,0,0,1,20.652,0Z" transform="translate(0 0)" fill="#00a912" fill-rule="evenodd"/>
  <path id="Path_156166" data-name="Path 156166" d="M32.292,39.475l3.66,3.469L44.6,34.161c.716-.726,1.166-1.311,2.05-.4L49.522,36.7c.941.931.894,1.479,0,2.353L37.592,50.789c-1.876,1.835-1.55,1.946-3.449.064l-6.682-6.642a.828.828,0,0,1,.081-1.291l3.328-3.452c.5-.531.908-.484,1.418,0Z" transform="translate(-18.05 -22.104)" fill="#fff" fill-rule="evenodd"/>
</svg>
