<svg xmlns="http://www.w3.org/2000/svg" width="81.064" height="81.064" viewBox="0 0 81.064 81.064">
  <path id="close-red-icon" d="M40.532,0A40.532,40.532,0,1,1,0,40.532,40.532,40.532,0,0,1,40.532,0ZM49.2,24.277c1.148-1.168,1.867-2.1,3.3-.66l4.618,4.7c1.511,1.491,1.432,2.362,0,3.754l-8.741,8.715L56.787,49.2c1.168,1.148,2.1,1.867.66,3.3l-4.7,4.618c-1.491,1.511-2.362,1.432-3.747,0l-8.464-8.484-8.451,8.451c-1.385,1.418-2.256,1.5-3.747,0l-4.7-4.618c-1.451-1.418-.521-2.137.66-3.3l8.4-8.378-8.708-8.7c-1.418-1.392-1.5-2.263,0-3.754l4.618-4.7c1.418-1.451,2.137-.521,3.3.66l8.635,8.655Z" fill="#f44336" fill-rule="evenodd"/>
</svg>
