<svg xmlns="http://www.w3.org/2000/svg" width="26.875" height="31.022" viewBox="0 0 26.875 31.022">
  <g id="logo_solid_white" data-name="logo solid white" transform="translate(-95.35 -305.105)">
    <path id="path0_fill" data-name="path0 fill" d="M122.346,319.81c4.96,3.843,10.649,3.606,12.274,3.606-.355,21.858-3.064,18.946-12.274,25.075-9.21-6.128-11.9-3.217-12.256-25.075C111.7,323.416,117.386,323.653,122.346,319.81Z" transform="translate(-13.567 -13.534)" fill="none"/>
    <path id="path1_stroke" data-name="path1 stroke" d="M108.779,306.276l.716-.926a1.171,1.171,0,0,0-1.433,0Zm12.274,3.606,1.171.019a1.172,1.172,0,0,0-1.171-1.19Zm-12.274,25.075-.649.975a1.169,1.169,0,0,0,1.3,0ZM96.523,309.882v-1.171a1.171,1.171,0,0,0-1.171,1.19Zm11.54-2.68c5.314,4.117,11.394,3.852,12.991,3.852v-2.342c-1.652,0-6.95.209-11.557-3.361Zm11.821,2.661a93.274,93.274,0,0,1-.758,12.118,13.678,13.678,0,0,1-1.857,5.682,9.283,9.283,0,0,1-3.335,2.86c-1.521.91-3.441,1.892-5.8,3.46l1.3,1.95c2.245-1.5,4.117-2.45,5.706-3.4a12.46,12.46,0,0,0,4.073-3.558,15.881,15.881,0,0,0,2.228-6.635,96.467,96.467,0,0,0,.787-12.437Zm-10.456,24.119c-2.36-1.568-4.279-2.547-5.8-3.46a9.226,9.226,0,0,1-3.33-2.859,13.71,13.71,0,0,1-1.852-5.682,93.645,93.645,0,0,1-.757-12.118l-2.341.038a96.838,96.838,0,0,0,.784,12.437,15.881,15.881,0,0,0,2.228,6.635,12.428,12.428,0,0,0,4.068,3.559c1.587.949,3.458,1.9,5.7,3.4ZM96.521,311.053c1.581,0,7.662.265,12.972-3.852l-1.433-1.851c-4.608,3.569-9.906,3.361-11.54,3.361Z" transform="translate(0 0)" fill="#3375bb"/>
  </g>
</svg>
