<svg xmlns="http://www.w3.org/2000/svg" width="29.321" height="35.83" viewBox="0 0 29.321 35.83"><path d="M21.047,32.719l5.322-5.6H21.047v5.6Zm2.8-30.036a.889.889,0,1,1-1.779,0v-.9H1.789v26.9h.878a.889.889,0,0,1,0,1.779H1.605a1.582,1.582,0,0,1-1.129-.469l0,0A1.592,1.592,0,0,1,.01,28.858V1.6A1.567,1.567,0,0,1,.476.469,1.582,1.582,0,0,1,1.605,0H22.248a1.592,1.592,0,0,1,1.126.469h0l0,0A1.592,1.592,0,0,1,23.846,1.6V2.683Zm5.485,23.722a.89.89,0,0,1-.647.857l-7.838,8.244a.889.889,0,0,1-.688.324.372.372,0,0,1-.055,0l-.052,0H7.09a1.582,1.582,0,0,1-1.129-.469l0,0,0,0a1.592,1.592,0,0,1-.469-1.126V6.964a1.594,1.594,0,0,1,.469-1.129l0,0A1.6,1.6,0,0,1,7.09,5.369H27.733a1.592,1.592,0,0,1,1.126.469h0l0,0a1.592,1.592,0,0,1,.469,1.126V26.405ZM27.55,25.341V7.156H7.274v26.9H19.268V26.23a.889.889,0,0,1,.889-.889Z" transform="translate(-0.01)" fill="#434343"/></svg>