<svg xmlns="http://www.w3.org/2000/svg" width="22.616" height="27.79" viewBox="0 0 22.616 27.79">
  <path id="Path_156217" data-name="Path 156217" d="M70.085,229.584a6.315,6.315,0,0,1,3.008-5.3A6.47,6.47,0,0,0,68,221.532c-2.143-.226-4.222,1.282-5.314,1.282-1.114,0-2.795-1.26-4.607-1.223a6.783,6.783,0,0,0-5.709,3.481c-2.469,4.274-.628,10.553,1.738,14.007,1.183,1.693,2.566,3.581,4.376,3.514,1.771-.072,2.432-1.127,4.569-1.127,2.117,0,2.738,1.127,4.584,1.085,1.9-.029,3.1-1.7,4.239-3.406a13.957,13.957,0,0,0,1.938-3.947c-.044-.015-3.726-5.614-3.726-5.614ZM66.6,219.259a6.214,6.214,0,0,0,1.423-4.454,6.333,6.333,0,0,0-4.095,2.118,5.914,5.914,0,0,0-1.46,4.29A5.231,5.231,0,0,0,66.6,219.259Z" transform="translate(-51.195 -214.805)" fill="#fff"/>
</svg>
