<svg id="Group_122953" data-name="Group 122953" xmlns="http://www.w3.org/2000/svg" xmlns:xlink="http://www.w3.org/1999/xlink" width="23.05" height="25.741" viewBox="0 0 23.05 25.741">
  <defs>
    <linearGradient id="linear-gradient" x1="0.907" y1="41.568" x2="-0.384" y2="42.239" gradientUnits="objectBoundingBox">
      <stop offset="0" stop-color="#00a0ff"/>
      <stop offset="0.007" stop-color="#00a1ff"/>
      <stop offset="0.26" stop-color="#00beff"/>
      <stop offset="0.512" stop-color="#00d2ff"/>
      <stop offset="0.76" stop-color="#00dfff"/>
      <stop offset="1" stop-color="#00e3ff"/>
    </linearGradient>
    <linearGradient id="linear-gradient-2" x1="1.077" y1="122.618" x2="-1.307" y2="122.618" gradientUnits="objectBoundingBox">
      <stop offset="0" stop-color="#ffe000"/>
      <stop offset="0.409" stop-color="#ffbd00"/>
      <stop offset="0.775" stop-color="orange"/>
      <stop offset="1" stop-color="#ff9c00"/>
    </linearGradient>
    <linearGradient id="linear-gradient-3" x1="0.863" y1="80.714" x2="-0.5" y2="82.48" gradientUnits="objectBoundingBox">
      <stop offset="0" stop-color="#ff3a44"/>
      <stop offset="1" stop-color="#c31162"/>
    </linearGradient>
    <linearGradient id="linear-gradient-4" x1="-0.188" y1="80.37" x2="0.421" y2="81.162" gradientUnits="objectBoundingBox">
      <stop offset="0" stop-color="#32a071"/>
      <stop offset="0.069" stop-color="#2da771"/>
      <stop offset="0.476" stop-color="#15cf74"/>
      <stop offset="0.801" stop-color="#06e775"/>
      <stop offset="1" stop-color="#00f076"/>
    </linearGradient>
  </defs>
  <path id="Path_156224" data-name="Path 156224" d="M10.4,55a1.955,1.955,0,0,0-.4,1.4V78.5a1.978,1.978,0,0,0,.5,1.4l.1.1L23,67.6v-.2Z" transform="translate(-10 -54.647)" fill="url(#linear-gradient)"/>
  <path id="Path_156225" data-name="Path 156225" d="M27,71.8l-4.1-4.1v-.3L27,63.3l.1.1L32,66.2c1.4.8,1.4,2.1,0,2.9Z" transform="translate(-10 -54.647)" fill="url(#linear-gradient-2)"/>
  <path id="Path_156226" data-name="Path 156226" d="M27.1,71.7l-4.2-4.2L10.4,80c.5.5,1.2.5,2.1.1l14.6-8.4" transform="translate(-10 -54.647)" fill="url(#linear-gradient-3)"/>
  <path id="Path_156227" data-name="Path 156227" d="M27.1,63.3,12.5,55a1.621,1.621,0,0,0-2.1.1L22.9,67.5Z" transform="translate(-10 -54.647)" fill="url(#linear-gradient-4)"/>
  <path id="Path_156228" data-name="Path 156228" d="M27,71.6,12.5,79.8a1.635,1.635,0,0,1-2,0l-.1.1.1.1a1.635,1.635,0,0,0,2,0Z" transform="translate(-10 -54.647)" opacity="0.2" style="isolation: isolate"/>
  <path id="Path_156229" data-name="Path 156229" d="M10.4,79.8a1.955,1.955,0,0,1-.4-1.4v.1a1.978,1.978,0,0,0,.5,1.4v-.1ZM32,68.8l-5,2.8.1.1L32,68.9a1.662,1.662,0,0,0,1-1.4C33,68,32.6,68.4,32,68.8Z" transform="translate(-10 -54.647)" opacity="0.12" style="isolation: isolate"/>
  <path id="Path_156230" data-name="Path 156230" d="M12.5,55.1,32,66.2c.6.4,1,.8,1,1.3a1.662,1.662,0,0,0-1-1.4L12.5,55c-1.4-.8-2.5-.2-2.5,1.4v.1C10,55,11.1,54.3,12.5,55.1Z" transform="translate(-10 -54.647)" fill="#fff" opacity="0.25" style="isolation: isolate"/>
</svg>
