<svg xmlns="http://www.w3.org/2000/svg" width="40.856" height="40.856" viewBox="0 0 40.856 40.856">
  <g id="Group_101136" data-name="Group 101136" transform="translate(-344.631 -718.681)">
    <path id="Path_151342" data-name="Path 151342" d="M20.428.105A20.428,20.428,0,1,1,0,20.533,20.428,20.428,0,0,1,20.428.105" transform="translate(344.631 718.576)" fill="#0c4755"/>
    <path id="Path_151343" data-name="Path 151343" d="M22.933,44.663S33.147,40.472,36.689,39c1.358-.59,5.963-2.48,5.963-2.48s2.125-.827,1.948,1.181c-.059.827-.532,3.719-1,6.848-.709,4.428-1.476,9.269-1.476,9.269S42,55.172,41,55.408s-2.657-.827-2.952-1.063c-.236-.177-4.428-2.834-5.963-4.133a1.119,1.119,0,0,1,.059-1.889c2.126-1.948,4.665-4.369,6.2-5.9.709-.708,1.417-2.361-1.535-.354-4.192,2.893-8.325,5.609-8.325,5.609a3.469,3.469,0,0,1-2.716.059C24,47.2,21.93,46.493,21.93,46.493s-1.417-.885,1-1.83" transform="translate(331.152 693.214)" fill="#fff"/>
  </g>
</svg>
