<svg xmlns="http://www.w3.org/2000/svg" width="40.856" height="40.856" viewBox="0 0 40.856 40.856">
  <g id="Group_101138" data-name="Group 101138" transform="translate(-580.036 -713.219)">
    <path id="Path_151347" data-name="Path 151347" d="M329.079,20.427a20.428,20.428,0,1,1,20.428,20.428,20.428,20.428,0,0,1-20.428-20.428" transform="translate(250.957 713.22)" fill="#0c4755"/>
    <path id="Path_151348" data-name="Path 151348" d="M378.042,33.343a10.322,10.322,0,0,1-2.972.814,5.19,5.19,0,0,0,2.275-2.862,10.354,10.354,0,0,1-3.285,1.255,5.178,5.178,0,0,0-8.816,4.719,14.686,14.686,0,0,1-10.664-5.406,5.179,5.179,0,0,0,1.6,6.907,5.144,5.144,0,0,1-2.343-.648c0,.022,0,.044,0,.066a5.177,5.177,0,0,0,4.151,5.073,5.187,5.187,0,0,1-2.336.089,5.179,5.179,0,0,0,4.833,3.593,10.444,10.444,0,0,1-7.659,2.142,14.713,14.713,0,0,0,22.65-12.4c0-.224-.005-.448-.016-.669a10.5,10.5,0,0,0,2.582-2.678" transform="translate(235.029 692.483)" fill="#fff"/>
  </g>
</svg>
