<svg xmlns="http://www.w3.org/2000/svg" xmlns:xlink="http://www.w3.org/1999/xlink" width="111.646" height="160.437" viewBox="0 0 111.646 160.437">
  <defs>
    <clipPath id="clip-path">
      <rect id="Rectangle_21303" data-name="Rectangle 21303" width="98.739" height="152.411" fill="#85b663"/>
    </clipPath>
  </defs>
  <g id="Group_115057" data-name="Group 115057" transform="translate(13.284) rotate(5)">
    <g id="Group_36425" data-name="Group 36425" transform="translate(0 0)" clip-path="url(#clip-path)">
      <path id="Path_121158" data-name="Path 121158" d="M30.324,27.081a1.889,1.889,0,0,0,.416-1.154,1.858,1.858,0,0,0-.49-1.237l-2-2.3-2-2.3-2-2.3-2-2.3a2.057,2.057,0,0,1-.262-.381,2,2,0,0,1-.161-.419,1.83,1.83,0,0,1-.054-.439,1.8,1.8,0,0,1,.056-.444l.716-2.838.716-2.838.714-2.836.715-2.838a1.8,1.8,0,0,0-.147-1.305A2.155,2.155,0,0,0,23.61.281,2.505,2.505,0,0,0,22.286.006a2.357,2.357,0,0,0-1.343.537L15.891,4.688,10.838,8.831,5.786,12.975.733,17.12a1.97,1.97,0,0,0-.642.912,1.819,1.819,0,0,0-.035,1.015,1.958,1.958,0,0,0,.516.905,2.281,2.281,0,0,0,1.016.582l6.55,1.83,6.55,1.832,6.55,1.831,6.548,1.83a2.475,2.475,0,0,0,1.472-.024,2.253,2.253,0,0,0,1.067-.752" transform="translate(0 124.454)" fill="#85b663"/>
      <path id="Path_121159" data-name="Path 121159" d="M4.891,8.724A5.187,5.187,0,0,0,8.348,7.447,4.129,4.129,0,0,0,9.78,4.363,4.127,4.127,0,0,0,8.348,1.279,5.182,5.182,0,0,0,4.891,0,5.182,5.182,0,0,0,1.434,1.279,4.122,4.122,0,0,0,0,4.363,4.124,4.124,0,0,0,1.434,7.447,5.187,5.187,0,0,0,4.891,8.724" transform="translate(25.363 133.346)" fill="#85b663"/>
      <path id="Path_121160" data-name="Path 121160" d="M4.71,8.4A4.985,4.985,0,0,0,8.038,7.17,3.969,3.969,0,0,0,9.418,4.2a3.97,3.97,0,0,0-1.38-2.97A4.985,4.985,0,0,0,4.71,0,4.989,4.989,0,0,0,1.38,1.231,3.977,3.977,0,0,0,0,4.2,3.976,3.976,0,0,0,1.38,7.17,4.989,4.989,0,0,0,4.71,8.4" transform="translate(35.856 131.056)" fill="#85b663"/>
      <path id="Path_121161" data-name="Path 121161" d="M4.527,8.077a4.8,4.8,0,0,0,3.2-1.183A3.819,3.819,0,0,0,9.055,4.039,3.82,3.82,0,0,0,7.73,1.184,4.807,4.807,0,0,0,4.527,0a4.8,4.8,0,0,0-3.2,1.184A3.822,3.822,0,0,0,0,4.039,3.82,3.82,0,0,0,1.326,6.894a4.8,4.8,0,0,0,3.2,1.183" transform="translate(46.203 128.328)" fill="#85b663"/>
      <path id="Path_121162" data-name="Path 121162" d="M4.346,7.754A4.61,4.61,0,0,0,7.419,6.619,3.67,3.67,0,0,0,8.692,3.877,3.668,3.668,0,0,0,7.419,1.136,4.607,4.607,0,0,0,4.346,0,4.608,4.608,0,0,0,1.273,1.136,3.668,3.668,0,0,0,0,3.877,3.67,3.67,0,0,0,1.273,6.619,4.611,4.611,0,0,0,4.346,7.754" transform="translate(56.351 125.093)" fill="#85b663"/>
      <path id="Path_121163" data-name="Path 121163" d="M4.165,7.429A4.414,4.414,0,0,0,7.109,6.341a3.514,3.514,0,0,0,1.22-2.627,3.514,3.514,0,0,0-1.22-2.626A4.414,4.414,0,0,0,4.165,0,4.417,4.417,0,0,0,1.22,1.088,3.514,3.514,0,0,0,0,3.714,3.514,3.514,0,0,0,1.22,6.341,4.418,4.418,0,0,0,4.165,7.429" transform="translate(66.207 121.247)" fill="#85b663"/>
      <path id="Path_121164" data-name="Path 121164" d="M3.983,7.107A4.223,4.223,0,0,0,6.8,6.065,3.359,3.359,0,0,0,7.966,3.553,3.364,3.364,0,0,0,6.8,1.04,4.228,4.228,0,0,0,3.983,0,4.229,4.229,0,0,0,1.166,1.04,3.363,3.363,0,0,0,0,3.553,3.358,3.358,0,0,0,1.166,6.065,4.224,4.224,0,0,0,3.983,7.107" transform="translate(75.6 116.611)" fill="#85b663"/>
      <path id="Path_121165" data-name="Path 121165" d="M3.8,6.782a4.029,4.029,0,0,0,2.687-.994A3.206,3.206,0,0,0,7.6,3.391,3.208,3.208,0,0,0,6.489.993,4.034,4.034,0,0,0,3.8,0,4.036,4.036,0,0,0,1.113.993,3.207,3.207,0,0,0,0,3.391a3.2,3.2,0,0,0,1.113,2.4A4.031,4.031,0,0,0,3.8,6.782" transform="translate(84.137 110.87)" fill="#85b663"/>
      <path id="Path_121166" data-name="Path 121166" d="M3.62,6.459A3.833,3.833,0,0,0,6.18,5.513,3.049,3.049,0,0,0,7.241,3.23,3.054,3.054,0,0,0,6.18.947,3.839,3.839,0,0,0,3.62,0a3.842,3.842,0,0,0-2.56.947A3.056,3.056,0,0,0,0,3.23,3.05,3.05,0,0,0,1.061,5.513a3.836,3.836,0,0,0,2.56.946" transform="translate(90.678 103.449)" fill="#85b663"/>
      <path id="Path_121167" data-name="Path 121167" d="M3.44,6.136a3.649,3.649,0,0,0,2.431-.9,2.9,2.9,0,0,0,1.007-2.17A2.9,2.9,0,0,0,5.871.9,3.649,3.649,0,0,0,3.44,0,3.651,3.651,0,0,0,1.008.9,2.9,2.9,0,0,0,0,3.068a2.9,2.9,0,0,0,1.008,2.17,3.651,3.651,0,0,0,2.432.9" transform="translate(91.861 94.341)" fill="#85b663"/>
      <path id="Path_121168" data-name="Path 121168" d="M3.257,5.812a3.458,3.458,0,0,0,2.3-.851,2.746,2.746,0,0,0,.954-2.056A2.744,2.744,0,0,0,5.56.851,3.455,3.455,0,0,0,3.257,0a3.455,3.455,0,0,0-2.3.851A2.744,2.744,0,0,0,0,2.905,2.746,2.746,0,0,0,.954,4.961a3.458,3.458,0,0,0,2.3.851" transform="translate(86.829 86.291)" fill="#85b663"/>
      <path id="Path_121169" data-name="Path 121169" d="M3.078,5.488a3.261,3.261,0,0,0,2.174-.8,2.593,2.593,0,0,0,.9-1.941A2.6,2.6,0,0,0,5.252.8,3.261,3.261,0,0,0,3.078,0,3.262,3.262,0,0,0,.9.8,2.6,2.6,0,0,0,0,2.744,2.593,2.593,0,0,0,.9,4.685a3.262,3.262,0,0,0,2.175.8" transform="translate(78.321 81.082)" fill="#85b663"/>
      <path id="Path_121170" data-name="Path 121170" d="M2.895,5.165a3.076,3.076,0,0,0,2.048-.757,2.441,2.441,0,0,0,.848-1.825A2.444,2.444,0,0,0,4.943.755,3.074,3.074,0,0,0,2.895,0,3.072,3.072,0,0,0,.849.755,2.447,2.447,0,0,0,0,2.582,2.445,2.445,0,0,0,.849,4.408a3.073,3.073,0,0,0,2.046.757" transform="translate(68.026 81.078)" fill="#85b663"/>
      <path id="Path_121171" data-name="Path 121171" d="M2.712,4.841a2.879,2.879,0,0,0,1.918-.708,2.294,2.294,0,0,0,.8-1.713,2.291,2.291,0,0,0-.8-1.711A2.874,2.874,0,0,0,2.712,0,2.875,2.875,0,0,0,.794.708,2.289,2.289,0,0,0,0,2.419,2.292,2.292,0,0,0,.794,4.132a2.881,2.881,0,0,0,1.918.708" transform="translate(58.725 85.542)" fill="#85b663"/>
      <path id="Path_121172" data-name="Path 121172" d="M2.533,4.518a2.688,2.688,0,0,0,1.789-.66,2.137,2.137,0,0,0,.742-1.6,2.138,2.138,0,0,0-.742-1.6A2.683,2.683,0,0,0,2.533,0,2.687,2.687,0,0,0,.742.662,2.139,2.139,0,0,0,0,2.259a2.139,2.139,0,0,0,.742,1.6,2.692,2.692,0,0,0,1.791.66" transform="translate(49.632 90.386)" fill="#85b663"/>
      <path id="Path_121173" data-name="Path 121173" d="M2.35,4.193a2.488,2.488,0,0,0,1.662-.614A1.984,1.984,0,0,0,4.7,2.1,1.98,1.98,0,0,0,4.012.614,2.488,2.488,0,0,0,2.35,0,2.492,2.492,0,0,0,.688.614,1.98,1.98,0,0,0,0,2.1,1.984,1.984,0,0,0,.688,3.579a2.493,2.493,0,0,0,1.662.614" transform="translate(39.385 91.474)" fill="#85b663"/>
      <path id="Path_121174" data-name="Path 121174" d="M2.169,3.87A2.3,2.3,0,0,0,3.7,3.3a1.832,1.832,0,0,0,.635-1.369A1.832,1.832,0,0,0,3.7.568,2.3,2.3,0,0,0,2.169,0,2.3,2.3,0,0,0,.635.568,1.828,1.828,0,0,0,0,1.935,1.828,1.828,0,0,0,.635,3.3a2.3,2.3,0,0,0,1.534.567" transform="translate(30.568 86.743)" fill="#85b663"/>
      <path id="Path_121175" data-name="Path 121175" d="M1.987,3.547a2.111,2.111,0,0,0,1.406-.52,1.677,1.677,0,0,0,.582-1.253A1.675,1.675,0,0,0,3.393.521,2.108,2.108,0,0,0,1.987,0,2.1,2.1,0,0,0,.582.521,1.671,1.671,0,0,0,0,1.774,1.673,1.673,0,0,0,.582,3.027a2.1,2.1,0,0,0,1.405.52" transform="translate(24.911 78.996)" fill="#85b663"/>
      <path id="Path_121176" data-name="Path 121176" d="M1.807,3.223a1.923,1.923,0,0,0,1.277-.471,1.528,1.528,0,0,0,.529-1.14A1.524,1.524,0,0,0,3.085.473,1.915,1.915,0,0,0,1.807,0,1.912,1.912,0,0,0,.53.473,1.525,1.525,0,0,0,0,1.612a1.529,1.529,0,0,0,.53,1.14,1.919,1.919,0,0,0,1.277.471" transform="translate(22.468 69.973)" fill="#85b663"/>
      <path id="Path_121177" data-name="Path 121177" d="M1.625,2.9a1.731,1.731,0,0,0,1.15-.425A1.371,1.371,0,0,0,3.249,1.45,1.374,1.374,0,0,0,2.775.424,1.73,1.73,0,0,0,1.625,0,1.724,1.724,0,0,0,.476.424,1.369,1.369,0,0,0,0,1.45,1.366,1.366,0,0,0,.476,2.474,1.724,1.724,0,0,0,1.625,2.9" transform="translate(24.168 60.792)" fill="#85b663"/>
      <path id="Path_121178" data-name="Path 121178" d="M1.444,2.576A1.537,1.537,0,0,0,2.465,2.2a1.22,1.22,0,0,0,.423-.911,1.218,1.218,0,0,0-.423-.91A1.534,1.534,0,0,0,1.444,0,1.532,1.532,0,0,0,.423.378,1.218,1.218,0,0,0,0,1.288,1.22,1.22,0,0,0,.423,2.2a1.534,1.534,0,0,0,1.021.377" transform="translate(29.559 52.675)" fill="#85b663"/>
      <path id="Path_121179" data-name="Path 121179" d="M1.263,2.251a1.337,1.337,0,0,0,.892-.329,1.067,1.067,0,0,0,.371-.8,1.064,1.064,0,0,0-.371-.8A1.337,1.337,0,0,0,1.263,0,1.34,1.34,0,0,0,.369.329a1.063,1.063,0,0,0-.369.8,1.066,1.066,0,0,0,.369.8,1.34,1.34,0,0,0,.893.329" transform="translate(36.221 45.281)" fill="#85b663"/>
      <path id="Path_121180" data-name="Path 121180" d="M1.081,1.928a1.146,1.146,0,0,0,.766-.283A.915.915,0,0,0,2.162.964.918.918,0,0,0,1.846.282,1.15,1.15,0,0,0,1.081,0,1.15,1.15,0,0,0,.316.282.914.914,0,0,0,0,.964a.91.91,0,0,0,.316.681,1.146,1.146,0,0,0,.764.283" transform="translate(43.916 38.695)" fill="#85b663"/>
      <path id="Path_121181" data-name="Path 121181" d="M.9,1.605a.953.953,0,0,0,.636-.235A.758.758,0,0,0,1.8.8.755.755,0,0,0,1.536.235.953.953,0,0,0,.9,0,.949.949,0,0,0,.264.235.755.755,0,0,0,0,.8a.758.758,0,0,0,.264.568A.949.949,0,0,0,.9,1.605" transform="translate(52.592 33.102)" fill="#85b663"/>
      <path id="Path_121182" data-name="Path 121182" d="M.72,1.281a.766.766,0,0,0,.507-.187A.606.606,0,0,0,1.438.64.6.6,0,0,0,1.227.188.761.761,0,0,0,.72,0,.762.762,0,0,0,.211.188.612.612,0,0,0,0,.64a.613.613,0,0,0,.211.454.767.767,0,0,0,.509.187" transform="translate(60.641 26.887)" fill="#85b663"/>
      <path id="Path_121183" data-name="Path 121183" d="M.537.958a.568.568,0,0,0,.38-.14A.454.454,0,0,0,1.074.479.458.458,0,0,0,.917.14.577.577,0,0,0,.537,0a.574.574,0,0,0-.38.14A.454.454,0,0,0,0,.479.45.45,0,0,0,.157.818a.566.566,0,0,0,.38.14" transform="translate(65.361 18.507)" fill="#85b663"/>
      <path id="Path_121184" data-name="Path 121184" d="M.354.634A.383.383,0,0,0,.607.541a.3.3,0,0,0,.1-.225.3.3,0,0,0-.1-.223A.377.377,0,0,0,.354,0,.372.372,0,0,0,.1.093.3.3,0,0,0,.1.541.377.377,0,0,0,.354.634" transform="translate(66.442 9.222)" fill="#85b663"/>
      <path id="Path_121185" data-name="Path 121185" d="M.175.311A.182.182,0,0,0,.3.265a.147.147,0,0,0,.05-.11A.148.148,0,0,0,.3.045.187.187,0,0,0,.175,0,.184.184,0,0,0,.052.045a.143.143,0,0,0,0,.22A.179.179,0,0,0,.175.311" transform="translate(64.925 0.001)" fill="#85b663"/>
    </g>
  </g>
</svg>
