<svg xmlns="http://www.w3.org/2000/svg" width="15.395" height="15.395" viewBox="0 0 15.395 15.395">
  <g id="Ellipse_9" data-name="Ellipse 9" fill="none" stroke-miterlimit="10">
    <path d="M15.395,7.7A7.7,7.7,0,1,1,7.7,0,7.7,7.7,0,0,1,15.395,7.7Z" stroke="none"/>
    <path d="M 7.697473049163818 2.000002861022949 C 4.555872917175293 2.000002861022949 2.000002861022949 4.555872917175293 2.000002861022949 7.697473049163818 C 2.000002861022949 10.83907318115234 4.555872917175293 13.39494323730469 7.697473049163818 13.39494323730469 C 10.83907318115234 13.39494323730469 13.39494323730469 10.83907318115234 13.39494323730469 7.697473049163818 C 13.39494323730469 4.555872917175293 10.83907318115234 2.000002861022949 7.697473049163818 2.000002861022949 M 7.697473049163818 2.86102294921875e-06 C 11.94867324829102 2.86102294921875e-06 15.39494323730469 3.446272850036621 15.39494323730469 7.697473049163818 C 15.39494323730469 11.94867324829102 11.94867324829102 15.39494323730469 7.697473049163818 15.39494323730469 C 3.446272850036621 15.39494323730469 2.86102294921875e-06 11.94867324829102 2.86102294921875e-06 7.697473049163818 C 2.86102294921875e-06 3.446272850036621 3.446272850036621 2.86102294921875e-06 7.697473049163818 2.86102294921875e-06 Z" stroke="none" fill="#b1b5c3"/>
  </g>
</svg>
