<svg id="lock-icon" xmlns="http://www.w3.org/2000/svg" width="24.081" height="30.789" viewBox="0 0 24.081 30.789">
  <path id="Path_156175" data-name="Path 156175" d="M.725,14.041H2.969V9.3A9.272,9.272,0,0,1,5.7,2.734v0a9.262,9.262,0,0,1,13.136,0l0,0A9.272,9.272,0,0,1,21.569,9.3v4.74h1.788a.727.727,0,0,1,.725.724v15.3a.727.727,0,0,1-.725.724H.725A.727.727,0,0,1,0,30.065v-15.3a.727.727,0,0,1,.725-.724Zm5.858,0H17.955V9.249a5.675,5.675,0,0,0-1.669-4.017h0a5.685,5.685,0,0,0-9.7,4.016v4.792Zm5.732,8.372,1.148,5.3-3.146.013.923-5.368a2.134,2.134,0,1,1,1.075.058Z" fill="rgba(121,103,72,0.69)" fill-rule="evenodd"/>
</svg>
