<svg id="noun-mission-5095013" xmlns="http://www.w3.org/2000/svg" width="34.924" height="39.167" viewBox="0 0 34.924 39.167">
  <path id="Path_156167" data-name="Path 156167" d="M162.876,67.023V69.67H160.4a2.63,2.63,0,0,1-2.287-4.213,2.646,2.646,0,0,1,4.764,1.567Z" transform="translate(-157.592 -64.377)" fill="#f49755"/>
  <path id="Path_156168" data-name="Path 156168" d="M372.791,160.149a2.646,2.646,0,1,1-2.646-2.647,2.646,2.646,0,0,1,2.646,2.647" transform="translate(-348.452 -149.033)" fill="#f49755"/>
  <path id="Path_156169" data-name="Path 156169" d="M268.283,64.168H243.83a5.8,5.8,0,0,1,.635,2.646v33.875a2.647,2.647,0,0,0,2.647,2.646h21.171a2.647,2.647,0,0,0,2.647-2.646V66.814a2.647,2.647,0,0,0-2.647-2.646ZM257.7,69.461h0a5.822,5.822,0,1,1-4.117,1.705,5.823,5.823,0,0,1,4.117-1.705Zm6.351,28.582h-12.7a1.588,1.588,0,1,1,0-3.176h12.7a1.588,1.588,0,0,1,0,3.176Zm0-8.468h-12.7a1.588,1.588,0,1,1,0-3.176h12.7a1.588,1.588,0,0,1,0,3.176Z" transform="translate(-236.005 -64.168)" fill="#f49755"/>
</svg>
