<svg xmlns="http://www.w3.org/2000/svg" width="27.449" height="35.2" viewBox="0 0 27.449 35.2">
  <path id="page-file-icon" d="M4.891,0H18.026A1.1,1.1,0,0,1,18.9.439l8.249,8.925a1.092,1.092,0,0,1,.29.742l.006,20.2a4.88,4.88,0,0,1-1.438,3.449l-.006.006A4.878,4.878,0,0,1,22.558,35.2H4.891A4.907,4.907,0,0,1,0,30.308V4.891A4.9,4.9,0,0,1,4.891,0ZM8.041,17.477a1.1,1.1,0,1,1,0-2.2H19.408a1.1,1.1,0,1,1,0,2.2Zm0,5.461a1.1,1.1,0,1,1,0-2.2H18.805a1.1,1.1,0,1,1,0,2.2Zm0,5.462a1.1,1.1,0,1,1,0-2.2H17.17a1.1,1.1,0,0,1,0,2.2ZM18.649,3.381V7.11a3.024,3.024,0,0,0,.962,2.149,4.165,4.165,0,0,0,2.68.814l2.541,0L18.649,3.381Zm6.605,8.882-2.98,0a6.272,6.272,0,0,1-4.086-1.337,5.146,5.146,0,0,1-1.725-3.654l-.01-.153V2.2H4.891a2.7,2.7,0,0,0-2.7,2.7V30.308a2.707,2.707,0,0,0,2.7,2.7H22.558a2.7,2.7,0,0,0,2.7-2.7V12.263Z" fill="#f49755"/>
</svg>
