<svg id="Group_9" data-name="Group 9" xmlns="http://www.w3.org/2000/svg" xmlns:xlink="http://www.w3.org/1999/xlink" width="34.359" height="39.899" viewBox="0 0 34.359 39.899">
  <defs>
    <clipPath id="clip-path">
      <rect id="Rectangle_11" data-name="Rectangle 11" width="34.359" height="39.899" fill="#f49755"/>
    </clipPath>
  </defs>
  <g id="Group_8" data-name="Group 8" clip-path="url(#clip-path)">
    <path id="Path_11" data-name="Path 11" d="M217.523,37.682a3.974,3.974,0,1,1,3.97-3.978,3.974,3.974,0,0,1-3.97,3.978" transform="translate(-200.383 -27.899)" fill="#f49755" fill-rule="evenodd"/>
    <path id="Path_12" data-name="Path 12" d="M386.038,127.771a3.159,3.159,0,1,1,3.162-3.162,3.159,3.159,0,0,1-3.162,3.162" transform="translate(-359.27 -113.964)" fill="#f49755" fill-rule="evenodd"/>
    <path id="Path_13" data-name="Path 13" d="M447.872,274.605a2.242,2.242,0,1,1,2.238-2.246,2.242,2.242,0,0,1-2.238,2.246" transform="translate(-418.143 -253.463)" fill="#f49755" fill-rule="evenodd"/>
    <path id="Path_14" data-name="Path 14" d="M416.033,395.143a1.783,1.783,0,1,1,1.787-1.787,1.786,1.786,0,0,1-1.787,1.787" transform="translate(-388.706 -367.428)" fill="#f49755" fill-rule="evenodd"/>
    <path id="Path_15" data-name="Path 15" d="M346.31,454.76a1.48,1.48,0,1,1,1.484-1.484,1.477,1.477,0,0,1-1.484,1.484" transform="translate(-323.567 -423.937)" fill="#f49755" fill-rule="evenodd"/>
    <path id="Path_16" data-name="Path 16" d="M327.7,247.811a1.884,1.884,0,1,1,1.88-1.88,1.884,1.884,0,0,1-1.88,1.88" transform="translate(-305.716 -228.992)" fill="#f49755" fill-rule="evenodd"/>
    <path id="Path_17" data-name="Path 17" d="M68.922,127.771a3.159,3.159,0,1,0-3.155-3.162,3.16,3.16,0,0,0,3.155,3.162" transform="translate(-61.711 -113.964)" fill="#f49755" fill-rule="evenodd"/>
    <path id="Path_18" data-name="Path 18" d="M40.287,277.5a2.242,2.242,0,1,0-2.238-2.246,2.247,2.247,0,0,0,2.238,2.246" transform="translate(-35.702 -256.182)" fill="#f49755" fill-rule="evenodd"/>
    <path id="Path_19" data-name="Path 19" d="M84.814,393.883a1.783,1.783,0,1,0-1.787-1.787,1.781,1.781,0,0,0,1.787,1.787" transform="translate(-77.907 -366.245)" fill="#f49755" fill-rule="evenodd"/>
    <path id="Path_20" data-name="Path 20" d="M164.515,458.036a1.48,1.48,0,1,0-1.484-1.476,1.476,1.476,0,0,0,1.484,1.476" transform="translate(-152.977 -427.011)" fill="#f49755" fill-rule="evenodd"/>
    <path id="Path_21" data-name="Path 21" d="M165.918,247.811a1.884,1.884,0,1,0-1.88-1.88,1.884,1.884,0,0,0,1.88,1.88" transform="translate(-153.921 -228.992)" fill="#f49755" fill-rule="evenodd"/>
    <path id="Path_22" data-name="Path 22" d="M405.778,463.831a1.48,1.48,0,1,1,1.484-1.476,1.476,1.476,0,0,1-1.484,1.476" transform="translate(-379.368 -432.448)" fill="#f49755" fill-rule="evenodd"/>
    <path id="Path_23" data-name="Path 23" d="M483.32,358.354a1.783,1.783,0,1,1,1.779-1.787,1.787,1.787,0,0,1-1.779,1.787" transform="translate(-451.836 -332.908)" fill="#f49755" fill-rule="evenodd"/>
    <path id="Path_24" data-name="Path 24" d="M486.677,195.232a2.242,2.242,0,1,1,2.238-2.238,2.24,2.24,0,0,1-2.238,2.238" transform="translate(-454.555 -178.985)" fill="#f49755" fill-rule="evenodd"/>
    <path id="Path_25" data-name="Path 25" d="M358.705,6.317a3.159,3.159,0,1,1,3.155-3.162,3.16,3.16,0,0,1-3.155,3.162" transform="translate(-333.616 0)" fill="#f49755" fill-rule="evenodd"/>
    <path id="Path_26" data-name="Path 26" d="M103.788,462.193a1.48,1.48,0,1,0-1.484-1.484,1.482,1.482,0,0,0,1.484,1.484" transform="translate(-95.995 -430.911)" fill="#f49755" fill-rule="evenodd"/>
    <path id="Path_27" data-name="Path 27" d="M19.543,358.354a1.783,1.783,0,1,0-1.779-1.787,1.787,1.787,0,0,0,1.779,1.787" transform="translate(-16.668 -332.908)" fill="#f49755" fill-rule="evenodd"/>
    <path id="Path_28" data-name="Path 28" d="M2.238,201.405A2.242,2.242,0,1,0,0,199.168a2.238,2.238,0,0,0,2.238,2.238" transform="translate(0 -184.777)" fill="#f49755" fill-rule="evenodd"/>
    <path id="Path_29" data-name="Path 29" d="M4.476,199.168a2.238,2.238,0,1,0-2.238,2.238,2.245,2.245,0,0,0,2.238-2.238" transform="translate(0 -184.777)" fill="#f49755" fill-rule="evenodd"/>
    <path id="Path_30" data-name="Path 30" d="M65.767,124.609a3.159,3.159,0,1,0,3.155-3.155,3.159,3.159,0,0,0-3.155,3.155" transform="translate(-61.711 -113.964)" fill="#f49755" fill-rule="evenodd"/>
    <path id="Path_31" data-name="Path 31" d="M99.91,7.691a3.159,3.159,0,1,0,3.155-3.155A3.159,3.159,0,0,0,99.91,7.691" transform="translate(-93.748 -4.256)" fill="#f49755" fill-rule="evenodd"/>
    <path id="Path_32" data-name="Path 32" d="M213.553,33.7a3.97,3.97,0,1,0,3.97-3.971,3.974,3.974,0,0,0-3.97,3.971" transform="translate(-200.383 -27.9)" fill="#f49755" fill-rule="evenodd"/>
    <path id="Path_33" data-name="Path 33" d="M355.543,3.155A3.159,3.159,0,1,0,358.705,0a3.16,3.16,0,0,0-3.162,3.155" transform="translate(-333.616 0)" fill="#f49755" fill-rule="evenodd"/>
    <path id="Path_34" data-name="Path 34" d="M386.038,121.454a3.159,3.159,0,1,0,3.162,3.155,3.157,3.157,0,0,0-3.162-3.155" transform="translate(-359.27 -113.964)" fill="#f49755" fill-rule="evenodd"/>
    <path id="Path_35" data-name="Path 35" d="M486.677,190.749a2.242,2.242,0,1,0,2.238,2.246,2.242,2.242,0,0,0-2.238-2.246" transform="translate(-454.555 -178.985)" fill="#f49755" fill-rule="evenodd"/>
    <path id="Path_36" data-name="Path 36" d="M329.578,245.93a1.884,1.884,0,1,0-1.88,1.88,1.884,1.884,0,0,0,1.88-1.88" transform="translate(-305.717 -228.991)" fill="#f49755" fill-rule="evenodd"/>
    <path id="Path_37" data-name="Path 37" d="M167.807,245.93a1.884,1.884,0,1,0-1.888,1.88,1.89,1.89,0,0,0,1.888-1.88" transform="translate(-153.922 -228.991)" fill="#f49755" fill-rule="evenodd"/>
    <path id="Path_38" data-name="Path 38" d="M42.532,275.258a2.242,2.242,0,1,0-2.246,2.246,2.24,2.24,0,0,0,2.246-2.246" transform="translate(-35.702 -256.182)" fill="#f49755" fill-rule="evenodd"/>
    <path id="Path_39" data-name="Path 39" d="M21.331,356.566a1.783,1.783,0,1,0-1.787,1.787,1.786,1.786,0,0,0,1.787-1.787" transform="translate(-16.669 -332.907)" fill="#f49755" fill-rule="evenodd"/>
    <path id="Path_40" data-name="Path 40" d="M84.814,390.317a1.783,1.783,0,1,0,1.779,1.779,1.781,1.781,0,0,0-1.779-1.779" transform="translate(-77.907 -366.245)" fill="#f49755" fill-rule="evenodd"/>
    <path id="Path_41" data-name="Path 41" d="M103.788,459.233a1.48,1.48,0,1,0,1.476,1.476,1.477,1.477,0,0,0-1.476-1.476" transform="translate(-95.995 -430.911)" fill="#f49755" fill-rule="evenodd"/>
    <path id="Path_42" data-name="Path 42" d="M164.515,455.076a1.48,1.48,0,1,0,1.476,1.484,1.479,1.479,0,0,0-1.476-1.484" transform="translate(-152.977 -427.011)" fill="#f49755" fill-rule="evenodd"/>
    <path id="Path_43" data-name="Path 43" d="M344.834,453.276a1.48,1.48,0,1,0,1.476-1.476,1.477,1.477,0,0,0-1.476,1.476" transform="translate(-323.567 -423.937)" fill="#f49755" fill-rule="evenodd"/>
    <path id="Path_44" data-name="Path 44" d="M404.3,462.355a1.48,1.48,0,1,0,1.476-1.484,1.476,1.476,0,0,0-1.476,1.484" transform="translate(-379.367 -432.448)" fill="#f49755" fill-rule="evenodd"/>
    <path id="Path_45" data-name="Path 45" d="M414.255,393.355a1.783,1.783,0,1,0,1.779-1.779,1.786,1.786,0,0,0-1.779,1.779" transform="translate(-388.707 -367.427)" fill="#f49755" fill-rule="evenodd"/>
    <path id="Path_46" data-name="Path 46" d="M481.533,356.566a1.783,1.783,0,1,0,1.787-1.779,1.787,1.787,0,0,0-1.787,1.779" transform="translate(-451.836 -332.907)" fill="#f49755" fill-rule="evenodd"/>
    <path id="Path_47" data-name="Path 47" d="M447.872,274.605a2.242,2.242,0,1,0-2.246-2.246,2.24,2.24,0,0,0,2.246,2.246" transform="translate(-418.143 -253.463)" fill="#f49755" fill-rule="evenodd"/>
    <path id="Path_48" data-name="Path 48" d="M155.506,236.441V223.706s-6.441-7.288-5.827-6.978,6.084,5.245,6.162,4.887.715-11.026,1.018-11.717.894-.381,1.119.124,1.43,11.57,1.43,11.57,5.8-5.1,5.8-4.685-5.346,7.2-5.346,7.2v12.37Z" transform="translate(-140.409 -196.58)" fill="#fff" fill-rule="evenodd"/>
  </g>
</svg>
