<svg xmlns="http://www.w3.org/2000/svg" xmlns:xlink="http://www.w3.org/1999/xlink" width="85.092" height="99.614" viewBox="0 0 85.092 99.614">
  <defs>
    <clipPath id="clip-path">
      <rect id="Rectangle_52503" data-name="Rectangle 52503" width="85.092" height="99.614" fill="none"/>
    </clipPath>
  </defs>
  <g id="Group_114781" data-name="Group 114781" transform="translate(0 -0.005)">
    <g id="Group_114780" data-name="Group 114780" transform="translate(0 0.005)" clip-path="url(#clip-path)">
      <path id="Path_155859" data-name="Path 155859" d="M1035.457,1739.311s.035-.009.139-.113.1-.217.2-.139.208.13.217-.026a1.888,1.888,0,0,0,0-.252s-.165-.1-.235-.078-.3-.056-.321,0,0,.124-.07.106-.235.035-.235.078a.77.77,0,0,0,0,.2c.017.07.026.07.113.07s.139-.139.139.069.052.087.052.087" transform="translate(-977.901 -1642.532)" fill="#69a9a4"/>
      <path id="Path_155860" data-name="Path 155860" d="M1053.868,1734.669c.191.07.1-.061.208,0s.148.031.139-.063a1.012,1.012,0,0,1,0-.18h.164s.078-.07.044-.113-.026-.026-.122-.1-.078-.252-.152-.174a.656.656,0,0,1-.135.113s0,.138-.087.125a.618.618,0,0,0-.165,0,.97.97,0,0,0,0,.17c.009.078.061.117.061.163a.071.071,0,0,0,.044.063" transform="translate(-995.487 -1638.123)" fill="#69a9a4"/>
      <path id="Path_155861" data-name="Path 155861" d="M856.576,1066.125l.1-.052.01-.087s-.149-.226-.2-.3a1.522,1.522,0,0,0-.244-.209,1.317,1.317,0,0,0-.243-.174c-.052-.017-.122-.087-.452.174s-.539-.382-.66-.435.1.035-.122-.052-.156-.33-.226-.365a1.915,1.915,0,0,0-.539-.122c-.226-.017.226-.261-.244-.261s-.33-.052-.469,0a2.959,2.959,0,0,1-.834.174l-.435.035s-.017-.087-.209-.139a4.874,4.874,0,0,0-.539-.093.236.236,0,0,0-.122-.307c-.209-.1-.087-.226-.313-.3s-.417-.313-.539-.243a.582.582,0,0,1-.487.07,2.182,2.182,0,0,0-.539-.082s.243-.3.035-.3-.33-.052-.4,0-.33-.012-.521-.023l-.191-.011v-.4s.244.261.3-.191a4.91,4.91,0,0,0,.052-.626.728.728,0,0,0-.035-.191s-.278.017-.33-.139a.506.506,0,0,1-.052-.243c0-.1.052-.174-.035-.209s-.278.191-.3-.3-.278-.5-.452-.5-.1-.469-.278-.469-.417.017-.643,0-.174-.087-.435-.087a4.265,4.265,0,0,0-.574.1,3.164,3.164,0,0,1-.348.017c-.1,0,.139.035-.191-.261s-.365.017-.713-.348,0-.4-.348-.556-.608-.278-.608-.539-.209.087-.452-.365a2.515,2.515,0,0,0-.435-.626h-.261s-.087-.156-.33,0-.174.174-.626.1a1.925,1.925,0,0,0-.678.017,4.348,4.348,0,0,1-.7-.191c-.139-.017-.4.209-.5.226s.017,0-.191-.227-.139-.364-.33-.468-.3-.417-.417-.33-.174.469-.174.469-.278-.209-.348.018-.278-.035-.226.261-.156.209.017.417.191.1.174.209.087.487-.1.452a1.788,1.788,0,0,0-.278-.035s0-.035-.087-.035-.191-.209-.191-.209a.247.247,0,0,1,.122-.139l.087-.035a.958.958,0,0,0,.052-.348c0-.226-.052-.382.035-.521s.087-.052.087-.139-.174,0,0-.087.417-.469.157-.487-.383.278-.608.278-.487.035-.487.243-.017.278-.087.261a.743.743,0,0,0-.521.261c-.1.174-.591.191-.591.469a1.213,1.213,0,0,1-.313.626c-.035.052-.348.487-.348.487s-.174.313-.209.243a.871.871,0,0,0-.118-.164,1.352,1.352,0,0,1-.445.741.269.269,0,0,1-.1.031.721.721,0,0,0,.113.417c.026.087-.061.417-.043.583a2.87,2.87,0,0,1,.017.5c-.009.252-.122.322-.078.478s.156.269.1.478a.672.672,0,0,1-.269.365c-.078.061.035.252-.183.4s-.3.417-.374.487a.8.8,0,0,0-.313.313c-.1.209-.026.061-.3.252a.708.708,0,0,0-.382.478c-.078.235-.417.226-.33.417s-.191.191-.191.348.174.087.235.244a2.981,2.981,0,0,0,.217.348.463.463,0,0,1-.052.235,2.957,2.957,0,0,1-.165.469c-.078.1-.052.235-.1.3s-.07.174-.122.244-.122.548-.035.582.2-.226.165.113-.043.4.035.53.252.13.3.252a1.923,1.923,0,0,0,.2.321c.078.13,0,.269.148.356s.226-.061.226.113a1.963,1.963,0,0,0,.139.591c.035.052.156-.052.156.122s.069.026.122.443a1.266,1.266,0,0,0,.3.747c.113.122.322.1.339.487s.1.252.174.582-.017.53.278.73.591.356.539.5.165.165.521.356.052.156.5.217a.867.867,0,0,1,.6.33c.061.035.339-.061.521.235s.478.183.478.487.209.834.235,1.147-.182.461-.2.765.165.669.017.9a1.456,1.456,0,0,0-.3.617,1.306,1.306,0,0,1-.122.513c-.07.13-.009.469-.113.635a1.48,1.48,0,0,0-.182.548,1.022,1.022,0,0,0-.017.687,1.763,1.763,0,0,1-.009,1.043,1.337,1.337,0,0,0,.026.721c.052.27.156.452.026.713a2.6,2.6,0,0,0-.3.574,9.669,9.669,0,0,0-.214,1.353,1.335,1.335,0,0,1-.464,1.02c-.348.324-.069,1-.162,1.205s-.163.278-.023.533a1.246,1.246,0,0,1,.163.974,1.348,1.348,0,0,0,.049.782,1.78,1.78,0,0,0,.07-.252c.052-.217.122-.208.113-.33s.13-.417.226-.278.217.374.182.478-.269.252-.278.348.13.156.165.261.113.174.035.3-.1.1-.1.191.122.174-.017.33-.087.521-.156.53-.191-.1-.365-.165-.426-.226-.443,0a1.059,1.059,0,0,1-.252.487,1.4,1.4,0,0,1,.087.3c.07.278.043.426.122.374s.391-.209.391-.009.061.365-.07.469-.182.122-.182.287.017.269.078.3a1.856,1.856,0,0,1,.191.165c.1.087.2.026.2.209a1.533,1.533,0,0,1-.061.513,1.275,1.275,0,0,0-.183.13.644.644,0,0,0-.052-.061,2.486,2.486,0,0,1-.078-.478.885.885,0,0,0-.052-.235.518.518,0,0,0-.3-.2c-.061,0-.009-.1-.139.122s-.113.235-.069.339-.209.443-.13.461.139-.043.235-.043.026.043.052.07a1.123,1.123,0,0,0,.252.122.254.254,0,0,0,.07-.017s.1-.183.13.026.078.461.078.461a.242.242,0,0,0,.287.113c.183-.069.165.035.356.026a.244.244,0,0,1,.278.182c0,.061-.139.174.026.356s.026.322.078.3.148.191.356-.026.18-.006.156.035c0,0-.122.174,0,.261s.113-.035.226,0,.226.073.3.032.226-.086.235-.137a.842.842,0,0,1,.1-.207c.044-.078.078-.435.113-.348s-.026.278.061.287.148-.025.13.061.156.173.156.234-.052.148.044.174.191-.078.208,0a1.952,1.952,0,0,1,.1.348c-.017.035-.269.078-.269.078a.115.115,0,0,1-.174-.078c-.035-.148-.017-.208-.1-.2s-.33.148-.4.122-.322-.165-.33-.139-.208,0-.226.156-.052.093-.069.155-.009.036.1.123a.347.347,0,0,0,.348.087c.139-.043.156-.069.226-.061s.365.009.365.009.156.13.078.2.043.139.043.139-.043.087.087.078.148.061.252-.087.1-.234.122-.234.07-.1.07-.1-.1-.174.113-.1a.558.558,0,0,0,.383.009c.078-.009.1-.1.243-.13a.555.555,0,0,1,.3-.017c.165.017.287.052.356,0a.477.477,0,0,1,.243-.1c.07,0,.13-.191.078-.243s-.174.035-.243-.087-.026-.261-.13-.261-.182.052-.261.052-.087-.1-.217-.122-.182.044-.278-.043-.087-.165-.156-.217a2.309,2.309,0,0,1-.191-.148c-.078-.07-.087-.052-.13-.165s-.139-.061-.209-.122-.182.069-.087-.1.017-.226,0-.339-.069-.191.009-.269-.026-.256-.026-.3.139-.229.113-.248.017,0,.113-.085.33.022.374-.134.087-.1.113-.087-.009-.209.156-.226.035-.226.035-.356-.026-.191.017-.191.2-.113.226-.113h.026s.1-.1.1-.174l-.009-.069s0,.035.113,0,.209-.061.191-.13-.156-.069.009-.148.148-.408.1-.678-.165,0-.252,0-.13-.209-.13-.209.13-.148.043-.148-.217-.017-.217-.044-.1-.261.035-.261a.238.238,0,0,0,.191-.087s-.113-.13.061-.113.3.04.3,0-.087-.224.122-.311.108-.157.115-.261a1.125,1.125,0,0,1,.018-.156s.049-.13-.064-.156.036-.174.074-.183.151-.026.143-.1.009-.13.044-.139a1.6,1.6,0,0,0,.209-.226.288.288,0,0,1,.1-.148c.078-.052.07-.148.165-.148s.1-.33,0-.382a.686.686,0,0,0-.191-.078c-.026,0-.061-.148-.087-.148a1.2,1.2,0,0,1-.183-.087s-.069-.226.078-.122.148-.113.269-.078a.528.528,0,0,0,.244.035c.2.009.347.01.356-.039s.13-.066.157-.092.148-.061.148-.2-.069-.148,0-.226.217.009.217-.217-.087-.269,0-.356-.078-.139.122-.208.261-.156.356-.174.156.078.383,0,.139-.017.226-.078.13-.182.374-.156.261.052.365-.1.017-.122.209-.217.191-.087.243-.148.052-.139.1-.174-.113-.061.1-.13.208-.035.252-.191.078-.087.078-.226v-.139s-.009-.3-.1-.365-.1-.078-.1-.191v-.165a.268.268,0,0,0-.148-.139c-.1-.035-.217-.087-.122-.156a.748.748,0,0,1,.33-.1.305.305,0,0,0,.3-.052c.148-.122.165-.087.217-.052s.148.1.234-.033.139-.159.165-.15.078,0,.209-.043.174-.1.183-.122-.052-.13.061-.113.069.152.174,0,.061-.189.209-.285.139-.1.217-.1h.078a1.076,1.076,0,0,0,.07-.243v-.3c0-.174.035-.235,0-.269s-.035-.2.052-.2a.329.329,0,0,0,.234-.122c.078-.078.035-.217.148-.217a.276.276,0,0,0,.243-.165c.052-.1.017-.208.156-.208s.113-.009.287-.113.035-.087.061-.226.052-.313.113-.357a1.038,1.038,0,0,0,.278-.339c.009-.078.009-.191.052-.208s.226-.174.226-.217v-.087s-.061-.148,0-.165.174-.13.174-.165-.026-.235,0-.261-.035-.13.122-.243.13-.382.13-.382l-.148-.33s-.243-.209,0-.313a2.35,2.35,0,0,0,.556-.452c.087-.07.1-.226.243-.226s.278-.191.487-.3a1.367,1.367,0,0,1,.4-.156c.1-.017.278-.035.348-.139a.509.509,0,0,1,.382-.209c.209-.035.156.069.574,0a1.6,1.6,0,0,0,.522-.139s-.139-.174,0-.191.348-.435.33-.5-.38-.209,0-.33.173-.261.364-.469.174-.174.348-.365a1.231,1.231,0,0,0,.243-.434.293.293,0,0,1,0-.417c.209-.191-.122-.226.122-.434a1.171,1.171,0,0,0,.261-.9c0-.313-.139-.5,0-.834s-.052-.5,0-.852.261-.539.313-.5.348-.226.382-.382l.035-.156s.087-.069.278-.226.035-.556.4-.574.452.017.539-.3l.087-.313.33-.3a.833.833,0,0,0,0-.661c-.139-.434-.157-.713-.052-.765" transform="translate(-785.497 -997.626)" fill="#69a9a4"/>
      <path id="Path_155862" data-name="Path 155862" d="M1409.847,321.88s.162-.081.208,0a.539.539,0,0,0,.29.185c.058,0,.035-.046.058,0s-.278.336-.174.336.255-.139.3,0-.173.313.047.324.324-.081.336,0-.116.313-.058.336.139.139.127.185.058-.093.07.07.1.151.255.151.37.069.37.127-.023.255.07.255.124-.162.323-.116a1.568,1.568,0,0,0,.407,0c.127.012.1-.185.2-.185s.208.2.382.116.336-.1.406-.139a1.674,1.674,0,0,1,.359-.011c.139-.012.371.023.371-.093s-.162-.231,0-.22.336.069.359.011.22-.058.22-.266.023-.348.081-.348.128-.058.128-.093.174-.185.174-.325-.081-.753-.081-.753-.081-.232-.174-.255a.747.747,0,0,1-.325-.382c0-.093-.069-.128-.116-.22s-.162-.243-.22-.22a2.942,2.942,0,0,1-.336.058s-.255-.058-.3.035a1.265,1.265,0,0,1-.267.255l-.2.15c-.046.035-.359-.116-.359,0s-.266.162-.359.186-.2.151-.232.174a3.252,3.252,0,0,1-.359.093c-.047.012.058.29-.1.174a.286.286,0,0,1-.093-.324c0-.058.023-.255-.046-.185s-.243-.139-.313-.186a1.5,1.5,0,0,0-.359-.15,1.6,1.6,0,0,0-.266.1s.081.209-.128.162l-.208-.046a1.456,1.456,0,0,0-.081.128.867.867,0,0,0-.151.313c0,.093-.15.128-.232.209s-.151.348-.058.406.058-.023.058-.023" transform="translate(-1331.785 -302.633)" fill="#69a9a4"/>
      <path id="Path_155863" data-name="Path 155863" d="M862.588,106.435c.025-.061-.011-.144.077-.191.151-.081.383-.289.151-.371s-.186-.128-.336-.22-.227-.336-.293-.3-.055-.046-.286-.081-.2-.29-.394-.151-.58-.047-.707-.041-.1.053-.313.169a1.206,1.206,0,0,1-.556.174,1.528,1.528,0,0,1-.383-.012c-.058,0-.208-.069-.44-.093a1.461,1.461,0,0,0-.556-.023c-.267.046-.406.081-.475-.081s-.116-.313-.289-.29-.29.058-.348.058-.325-.313-.139-.3.347-.058.359-.127.035-.255-.035-.325-.2.035-.266-.139a.662.662,0,0,0-.209-.278c-.046-.046-.163.023-.255.069s-.093,0-.162.116-.313.058-.313-.081-.185-.243-.22-.324-.568-.07-.649-.174a.4.4,0,0,0-.139-.128,4.6,4.6,0,0,0-.464.151c-.162.07-.024.2-.186.255s-.035,0,.1.15.058.359.186.394-.058-.139.127.035-.069.1.313.209.51-.012.638.162a.912.912,0,0,1,.209.487c0,.139-.069.139-.023.371s-.012.139.081.324.058.2.278.313a.285.285,0,0,1,.149.172.254.254,0,0,1,.132-.085c.07-.009.226-.1.269-.047a.481.481,0,0,1,.052.247c.009.1.087-.043.139.069s-.035.087.174.122.139.044.278-.009.226.026.217-.113-.035-.182-.009-.235.005-.085.064-.081.275-.151.284,0a1.066,1.066,0,0,0,.07.3.619.619,0,0,0,.33.087c.183-.009.3-.113.417-.043a.338.338,0,0,0,.322.07.737.737,0,0,1,.4-.052c.174.026.33.009.539.026s.4-.035.426.035-.174.226.1.191a4.714,4.714,0,0,1,.6-.035c.1,0,.217-.026.3-.026s.148.139.174-.035.006-.185.252-.174a.145.145,0,0,0,.227-.087" transform="translate(-807.422 -97.577)" fill="#69a9a4"/>
      <path id="Path_155864" data-name="Path 155864" d="M98.373,219.168a.389.389,0,0,0,.4-.009c.087-.078.235-.009.313-.174s.122-.165.156-.313.026-.252.183-.252.4-.052.426.043.017.035.113.217c.084.16.161.073.167.225a.292.292,0,0,0,.173-.109,1.287,1.287,0,0,0,.2-.358c.036-.095.07-.19.11-.282a.78.78,0,0,0-.081-.067c-.122-.087-.035-.417-.713-.452s-.487.087-.678.243-.434.226-.434.313-.33.226-.383.243a.706.706,0,0,1-.539-.33c-.191-.278.035-.087-.278-.365s-.348-.018-.313-.521-.178-.087-.011-.782.115-.521.167-.7a2.243,2.243,0,0,1,.156-.5c.122-.261.452-.556.174-.626s-.191-.017-.313-.243a.851.851,0,0,0-.33-.33h-.122s-.174-.435-.348-.226-.3.313-.556.261l-.261-.052a1.684,1.684,0,0,1-.469.122,1.512,1.512,0,0,1-.3,0c-.052-.017-.226-.139-.122-.174s.122-.156.122-.33.191.029.243-.09a1.151,1.151,0,0,0,.139-.414,1.091,1.091,0,0,1,.1-.556,1.992,1.992,0,0,0,.191-.678c.017-.157-.156-.313.017-.521s-.017-.035.209-.3.261-.3.243-.382a.339.339,0,0,0-.452-.313c-.4.07-.3-.091-.452-.01s-.382.2-.539.271-.487.243-.487.243-.1-.035,0,.33a.927.927,0,0,1-.046.678c-.04.122.116.278-.284.33s-.382.122-.365.226-.052.156-.33.191-.017-.017-.348.156-.713.4-.73.174-.191-.139-.313-.3.243-.087-.122-.157-.243-.1-.4-.243,0-.66-.087-.7-.417-.07-.452-.226.052-.139-.139-.243.087-.261-.191-.452-.261-.261-.122-.591.226-.191.3-.261a.592.592,0,0,0,.209-.348V208.7a1.011,1.011,0,0,1,.069-.643,1.041,1.041,0,0,0,.052-.782c-.052-.226-.157-.7.087-.8s.33-.278.469-.469a1.566,1.566,0,0,0,.191-.33.8.8,0,0,0,.434,0c.209-.07.261-.278.452-.382s.313-.243.313-.33.052.035.469,0,.643-.2.7-.032.191.049.313.206.087.191.382.1.539-.156.539-.156-.1-.111.07-.229.3.073.3-.257.087-.487.278-.452.139.261.382.191,0-.271.4-.2.243.335.608.4.4-.174.365.07.035.122.191.1.226-.452.4-.435.017.4.209.469.313.017.313.3.087.243-.017.574-.139.487-.035.626a.886.886,0,0,1,.174.435c.035.191.348.1.348.434s-.156.521.087.591a.993.993,0,0,0,.487,0l.243-.174s-.087-.07,0-.3,0-.365-.035-.765-.035-.869-.191-.887-.087-.713-.052-.8.139-.556.052-.556-.017-.5.035-.591.156-.174.33-.452-.313-.643.191-.643.313-.209.382-.278-.157-.3.087-.313a.558.558,0,0,0,.521-.261c.209-.243.3-.226.574-.365a1.979,1.979,0,0,0,.556-.539,3.548,3.548,0,0,1,.452-.174c.191-.052.3-.1.174-.452a1.139,1.139,0,0,1-.122-.556c0-.226-.052-.4.122-.539s.487-.1.5-.591.07-.313.174-.608-.035-.313.348-.469-.052-.1.191-.435-.1-.469.365-.469.383-.156.661-.243a.661.661,0,0,0,.348-.191c.383.017.626.139.8,0s.174-.574.174-.574.12-.07-.079-.122-.391-.07-.286-.261.017-.3.209-.33l.191-.035s-.035-.017.052-.156.156-.313.278-.33.278-.226.278-.226a.434.434,0,0,1,.313-.087.488.488,0,0,0,.348-.1.565.565,0,0,0,.226-.226,2.239,2.239,0,0,1,.261-.348s.382.191.226.3-.156-.052-.156.1-.017.556.07.539.017.174.1.243a.26.26,0,0,0,.261.139c.209,0,.313-.156.365-.156s.191-.122.191-.122a.206.206,0,0,0,.174-.226c0-.209.33-.33.33-.33s.191-.191.33-.191.487-.087.539-.087.017-.348.156-.33.139.417.348.156.041-.319.041-.319-.023,0,0-.081a.3.3,0,0,0-.128-.243c-.035,0,.116-.22-.058-.209a1.041,1.041,0,0,1-.382,0,1.861,1.861,0,0,0-.359,0c-.058-.011-.163-.081-.174-.15s-.012-.2-.139-.2-.058-.255-.058-.29a.437.437,0,0,0-.186-.209c-.116-.081-.232-.208-.162-.255s-.023-.185-.023-.185-.348-.162-.116-.266a2.132,2.132,0,0,0,.371-.209s.047.011.162-.128.151-.092.081-.22a.864.864,0,0,0-.127-.185l.012-.07s-.082-.244-.163-.29-.232-.174-.348-.139-.278-.047-.394-.006-.2.052-.2-.012.035-.226.093-.226.093.267.2.046.139-.139.255-.139.128.017.209-.015a.409.409,0,0,0,.15-.159,2.814,2.814,0,0,1,.638,0,1.466,1.466,0,0,1,.544.116c.243.058.209-.151.452-.012a.579.579,0,0,0,.487.1c.255-.012.278.046.359-.093s.255-.464.417-.464.185.046.371-.139a1.689,1.689,0,0,1,.487-.336c.29-.174.29-.348.441-.348s.185.07.116.174-.174.162-.174.278-.324.324-.324.324a.232.232,0,0,0-.139.232c0,.185.092.278-.058.336s-.289.081-.289.232.127.186-.093.336a1.352,1.352,0,0,0-.383.348c-.185.209-.429.429-.348.521s.2-.023.255.15.081.348.243.243.324-.185.336-.255.1-.035.185-.023.371-.116.359.07-.174.325.1.325-.1.081.232.116a1.32,1.32,0,0,0,.6-.081s-.012-.069.046.1.116.173.313.162.174-.2.232-.07.243.22.255.139a1.663,1.663,0,0,1,.162-.324.47.47,0,0,0,.093-.267.435.435,0,0,0-.1-.382c-.093-.139-.023-.174-.116-.266a.656.656,0,0,1-.22-.371c-.058-.22-.081-.29-.267-.232s-.093-.15-.371-.15-.186.116-.278,0-.244-.359-.29-.394-.15-.232.012-.313a.6.6,0,0,0,.232-.336s0-.023.1-.058.348-.232.255-.336-.15-.185-.2-.232-.186-.07-.024-.232.127-.348.209-.44a.832.832,0,0,0,.151-.406c0-.093.093-.487-.116-.5s-.151-.22-.209-.313-.069-.1-.22-.1-.521.1-.417-.243.127-.51.046-.487-.29-.116-.359-.139-.244-.22-.441-.232-.209-.035-.209-.22.047-.151-.185-.29-.336.023-.278-.29.232-.394.058-.7-.278-.244-.174-.614-.151-.452-.151-.452-.023.035-.081-.139.023-.324-.116-.637-.2-.278-.185-.487.069-.568.012-.521-.417.073-.452,0,.012-.17-.1-.17a.413.413,0,0,0-.325.29c-.011.128.116-.011-.011.128s-.325.336-.406.452-.116.417-.289.568a.4.4,0,0,1-.371.081.554.554,0,0,1-.313.058c-.127-.035-.093-.174-.336-.185s-.267-.081-.29-.313-.162-.29-.023-.521.174-.568.209-.556a.348.348,0,0,0,.035-.336c-.081-.185,0-.046-.081-.185s-.313,0-.429-.151a2.048,2.048,0,0,0-.232-.278c-.035-.023-.092-.174-.22-.359s-.162-.278-.232-.266-.046-.023-.127-.174-.22-.128-.464-.151-.069.046-.185,0-.185-.185-.452-.116-.29.093-.406.035-.278-.011-.336-.127-.313-.313-.383-.174-.1.232-.22.232a.164.164,0,0,0-.162.162c0,.058-.348-.058-.29.29s.174.452.162.556-.209.255-.209.51.22.232.116.533-.255.232-.255.371.093.209-.07.278-.07.058-.162.162-.29.278-.348.336-.174-.069-.1.255.047.2.128.348.232-.023.278.162.2.1.185.313.128.186.128.533.1.823-.058.973-.383-.011-.417.243-.07.452-.232.487-.209.243-.429.3-.521.093-.579.174a.411.411,0,0,0-.058.44c.093.22.243.267.093.441s-.313.278-.209.568-.034.36-.093.684.139.406-.151.417-.5.232-.6.243-.232-.162-.07-.417.093-.093.058-.359-.185-.463-.139-.649a2.117,2.117,0,0,0,.093-.719c-.035-.209-.116-.162-.093-.44s.046-.626-.151-.533-.278-.325-.394-.29a1.521,1.521,0,0,1-.556.035c-.255-.023-.208,0-.289-.116s-.116-.174-.116-.174a.809.809,0,0,0-.209-.1c-.093-.023-.058-.255-.232-.29s-.29-.011-.371-.162-.371-.058-.452-.267.023-.29-.417-.382-.359-.174-.637-.162a1.855,1.855,0,0,1-.429.012c-.127-.023-.128-.07-.29-.209s-.162-.162-.127-.371.034-.325-.047-.417a3.224,3.224,0,0,1-.22-.324.927.927,0,0,0-.243-.116c-.1-.023-.278.023-.278-.325a3.865,3.865,0,0,0-.058-.521c0-.15-.139-.15.012-.3s.081-.139.232-.325a1.419,1.419,0,0,0,.174-.255c.093-.139.093-.336.267-.452s.092-.232.255-.359-.069-.081.232-.325.116-.15.382-.255.162-.2.429-.417.313.09.371-.071-.012-.219-.012-.439-.185-.313.22-.313.5,0,.475-.058.07-.162.186-.162.174-.116.324-.116a.748.748,0,0,0,.382-.116,1.884,1.884,0,0,0,.429-.371c.127-.162.151-.266.1-.371s-.012-.093.07-.278.174-.371.209-.371h.313c.046,0,.07-.313.185-.521s.011-.116.289-.1.139-.1.452-.03.383-.038.475-.021.058.086.093.017-.058-.266.383-.3.359.046.614-.116.128-.128.371-.243.208-.209.185-.475-.127-.3-.046-.51.116-.116.081-.336-.243-.255-.035-.324a.774.774,0,0,0,.371-.348c.046-.07.382-.162.1-.382s-.5-.382-.5-.382a.415.415,0,0,1-.336-.116c-.174-.151-.22-.1-.22-.2s.232-.475.3-.22.209.174.255.278a.178.178,0,0,0,.243.093c.1-.035.139-.255.22-.266s.3-.093.313.069.162.174.162.29.394.023.452-.035.139-.011.139-.139-.1-.37.046-.376.058.075.267.156.313,0,.313.1.139.023.22.162.082.081.128.267.243-.035.209.185.058.371.035.533.034.348.116.22-.058-.058.243-.058.139-.046.3,0-.023.243.278.116.452-.244.382.093-.046.371.035.452a.708.708,0,0,1,.2.417c0,.151.22.29-.012.452s-.162.3-.278.394-.139.116-.394.325-.487.185-.5.3.2.3.012.533.092.417-.2.406-.452-.012-.672-.012-.267-.162-.371-.174-.151.046-.278.116-.347-.22-.359.07-.186.174-.2.336-.185.3-.22.348-.012.128.127.128.232.035.232.127.1,0,.232.081a.76.76,0,0,0,.44.058c.186,0,.313.034.243-.186s-.081-.081-.012-.359.209-.359.243-.174-.208.347.058.359.255-.267.394-.139.023.139.174.185.255-.162.2.058a.667.667,0,0,0,.046.429c.012.046.139.139.139.174s.359.046.313.313.081.15.116.266a.355.355,0,0,0,.232.232c.093.023.313.046.313.162s.209.174.255.3.151-.011.22.128.185.127.359.232.2.127.232.127-.081-.162.2-.046,0,.139.394.162.51.046.44-.151.069-.371-.185-.417-.081-.267-.336-.278-.151-.22-.278-.266-.243-.244-.035-.255.232-.127.3.058.151.324.255.324.139.046.151.151.081.035.266.035.267-.069.348-.058.29-.162.243-.313a.887.887,0,0,1-.046-.232s.324-.371.185-.545-.093-.266-.093-.406-.174-.2-.278-.3-.047-.116-.2-.243-.2,0-.307-.127-.522-.3-.3-.44.232-.244.209-.371c0,0,.012-.452.081-.429s.069-.081.232-.012a.371.371,0,0,0,.266.023c.058,0,.128-.139.163.058s.313-.047.174.185-.1.2-.046.278a.363.363,0,0,1,.023.267c-.011.07.2-.058.232.046s.023,0,.093.128.174.046.243.162.2.185.174.29l-.023.1s.173.22.22-.336-.011-.22.128-.22.058-.151.185-.22.29-.162.29-.162,0-.29.093-.3.023-.162.209-.29.081-.278.22-.359.127-.07.07-.255-.139-.162-.174-.15-.139-.047-.232.023a1.629,1.629,0,0,0-.22.232s-.383.1-.383-.046-.012-.266-.07-.313-.023-.371-.139-.371-.139.081-.243-.1-.2-.3-.29-.266-.232-.127-.348-.243-.162.046-.278-.186-.394-.44-.249-.51.179-.139.179-.359.023-.278.1-.243-.035-.023.128-.093.359-.128.359-.22a.348.348,0,0,0-.266-.266c-.116,0-.209-.07-.348,0a1.04,1.04,0,0,1-.406.07c-.046,0-.243-.394-.081-.348s.452.127.51,0,.174-.3.012-.313-.046.035-.348,0-.417-.162-.487-.081-.139.058-.336.058a3.12,3.12,0,0,1-.545-.085h-.209a.411.411,0,0,1,.128-.193c.116-.116-.093-.2.255-.162s.579-.046.591-.093-.116-.313-.232-.313a.216.216,0,0,1-.185-.127c-.023-.035-.209,0-.348,0s-.359-.158-.405-.015-.116.224-.139.328-.3.22-.313.07a.243.243,0,0,0-.243-.209l-.02,0a.225.225,0,0,0-.038-.1.574.574,0,0,1-.116-.294c0-.077.116-.088.012-.158s-.359.058-.394-.139-.041-.492-.156-.492-.11.1-.214.017c-.052-.041-.075.058-.1.017l-.148-.07a.181.181,0,0,1-.177-.165c-.035-.159-.415-.006-.468-.005a3.272,3.272,0,0,0,.028.361c.035.2.009.2-.122.2s-.113.087-.3-.035-.156-.426-.313-.313a.178.178,0,0,0-.044.261s0,.043.078.13,0,.156-.009.217.052.078.026.139-.113.07-.157.165-.217.07-.356.313-.165,0-.5-.017-.1.017-.3.122-.13,0-.148-.156a.637.637,0,0,1,.026-.3c.026-.122.044-.087.044-.113s.122-.1.2-.156.139,0,.165-.009.2-.148.3-.209,0-.087,0-.113,0-.3.017-.469.087-.052.165-.052.148-.217.174-.269a1.239,1.239,0,0,0,0-.313.935.935,0,0,1-.1-.13.694.694,0,0,1-.069-.322.758.758,0,0,0-.018-.191,1.211,1.211,0,0,1-.313-.078c-.148-.078-.191.009-.217,0s-.052.078-.052.078a.538.538,0,0,1-.261.252c-.217.122-.087.009-.217-.026s-.113.07-.148.182-.026.139-.026.139a.19.19,0,0,1-.009.139c-.035.07-.313-.07-.374-.1s-.122.052-.217.252,0,.113.1.183.061.1.069.217.052.052.087.113-.087.1-.13.1-.156.043-.2.043-.043.139-.035.217a1.787,1.787,0,0,0,.044.339c.052.278.113.1.113.148a.828.828,0,0,1-.165.391c-.087.061-.052-.009-.174-.087s-.07-.226-.1-.313.017-.226.122-.435,0-.209,0-.322.009-.13-.13-.313-.035-.3.009-.4a.737.737,0,0,0,.017-.313c0-.13.078-.165.278-.182s.174-.174.235-.217.052-.174.052-.2-.148.052-.191-.087-.165-.052-.252-.061-.113.026-.226.139-.1.035-.287,0-.191,0-.191,0c-.046.03-.082.055-.082.091,0,.1-.145.057-.225.138a7.692,7.692,0,0,1-.672.718c-.128.07-.116.162-.3.382s-.22.232-.2.441-.07.209.035.51.325.209.209.5-.093.463-.012.545.244-.174.255.186.093.162.475.162.487-.151.591.093.313.2.22.417-.035.232-.069.429-.185.069-.232.266-.939,1.008-.939,1.136-.174.382-.336.232-.255-.162-.046-.521.382-.487.162-.672a3.254,3.254,0,0,1-.3-.266c-.3-.278-.07-.336-.417-.186a.588.588,0,0,0-.371.429c-.035.046-.116-.023-.139-.29s.081-.243-.023-.406-.127-.173-.174-.162l-.046.011s-.046-.243.023-.266.208.093.185-.151-.092-.371-.127-.371-.243-.208-.29-.2-.116-.406-.116-.638-.116-.51-.186-.5-.22-.266-.278-.266-.382-.22-.2-.29.336-.023.44-.174a2.446,2.446,0,0,0,.174-.255c.012-.035-.139-.209.058-.174s.22.174.359.081-.151-.093.556-.174l.174-.1a2.651,2.651,0,0,1,.209-.185c.1-.081.058-.081.22-.1a.364.364,0,0,0,.243-.162c.035-.07.127-.127.185-.185a1.228,1.228,0,0,0,.139-.29s0-.127-.1-.139-.487.035-.545.035-.336-.186-.452-.116-.081-.093-.209-.093a5.924,5.924,0,0,0-.637.012c-.139.023-.348.081-.371.139s-.394.07-.44.232-.023.046-.151.116a2.107,2.107,0,0,0-.348.243c-.127.1-.047.058-.047.278s-.023.336.151.371.07.081.1.278.162.22.162.3-.29.185-.29.185c-.255.012-.221.127-.3.2s-.255.093-.29.128a.739.739,0,0,1-.255.348c-.22.162-.208.058-.232.266s-.209.359-.22.44.058.046.012.313a.4.4,0,0,0,.174.441c.093.081.058-.035.116.2s.186.162.29.313.208.2.232.348.209.348.116.521-.093.313-.232.452a2.1,2.1,0,0,1-.325.325c-.093.046,0-.012-.093.046s-.51-.232-.51-.232.1-.058-.185-.185-.429-.313-.487-.243a1.135,1.135,0,0,1-.29.3c-.151.093-.278.348-.429.371a1.412,1.412,0,0,1-.382-.046H95.47s-.579.232-.8.093-.278-.081-.475-.151a5.646,5.646,0,0,1-.591-.325.85.85,0,0,1-.325-.255c-.186-.2-.232-.325-.382-.359a3.051,3.051,0,0,0-.579-.162.483.483,0,0,0-.417.15c-.1.128-.336.174-.429.325s-.1.29-.012.29.232.046.128.093-.336-.058-.336.035a2.848,2.848,0,0,1,.046.661c-.046.162-.232.278-.243.185a2.46,2.46,0,0,0-.174-.406s-.243.046-.3-.058a2.53,2.53,0,0,0-.2-.29.5.5,0,0,0-.487-.162c-.162.046-.7.162-.9.2s-1.275.325-1.3.081-.093-.325.139-.3.29.093.29-.093a3.025,3.025,0,0,0,0-.568c-.035-.07,0-.255-.151-.266s-.383-.255-.533-.22c0,0-.556,0-.756.012s-.217-.026-.3-.017-.122-.061-.183-.174.009-.1-.165-.174a1.482,1.482,0,0,0-.521-.052c-.1-.009-.113-.261-.243-.261a.74.74,0,0,1-.417-.139c-.165-.1-.1-.035-.3-.165s-.148-.139-.3-.139-.3-.1-.356-.043a1.9,1.9,0,0,0-.3.243c-.052.078-.157.217-.252.2s-.13,0-.13-.1.052-.3,0-.3-.33-.07-.33-.07a.716.716,0,0,0-.156.017c-.061.017-.243-.052-.243.087a.758.758,0,0,1-.156.339.623.623,0,0,1-.087.07c-.052.035.122-.061-.13-.148s-.339,0-.339-.148-.078-.287,0-.426-.043-.374-.1-.365-.13.122-.235.122-.174-.061-.261-.017-.356.148-.356.261.157.322,0,.374a2.015,2.015,0,0,1-.513.035s-.087.13-.191-.078-.078-.408-.182-.408a.687.687,0,0,1-.226-.052s-.217.044-.226.07a.99.99,0,0,1-.3.156c-.148.061-.2.009-.287.13s-.313.087-.521.183-.174.043-.374.078-.391.156-.521.174-.226-.087-.461-.035-.365.043-.365.156-.391.252-.391.365-.07.183-.348.2-.6.148-.608,0,.078-.078-.13-.269-.226-.183-.3-.183-.174-.2-.2-.235.174-.1-.165-.1-.417.061-.582.061a.738.738,0,0,1-.3-.017c-.1-.035-.139-.009-.243-.087s-.1-.2-.313-.165-.461.035-.521-.052-.035-.139-.139-.139a3.034,3.034,0,0,1-.461-.087,3.653,3.653,0,0,0-.921.061c-.356.044-.382-.069-.582-.087s-.1-.07-.461-.226-.174-.174-.487-.191a2.543,2.543,0,0,0-.782.122,1.787,1.787,0,0,1-.721-.1,2.287,2.287,0,0,0-.852.044c-.226.035-.287-.07-.435-.148s-.156-.139-.356-.2-.113-.139-.252-.139-.209-.009-.426,0-.322.1-.513.122-.243-.07-.356-.1a1.423,1.423,0,0,1-.3-.174.578.578,0,0,0-.5-.026.858.858,0,0,1-.382.026c-.122,0-.1.113-.191.13s-.122.035-.3.087a1.284,1.284,0,0,1-.582.122c-.261-.026-.382-.087-.443-.035s-.035.33-.2.426a.782.782,0,0,1-.452.087c-.156,0-.139.061-.174.1a.362.362,0,0,1-.3.113c-.174-.009.026-.017-.217-.035s-.322.148-.4.156a1.546,1.546,0,0,0-.339.061,1.156,1.156,0,0,0-.348.209c-.043.07-.165.026-.287.261s.087.191-.122.235-.191.035-.287.156-.269.148-.356.269-.235.017-.269.174-.209.156-.348.156-.156.13-.322.165a.765.765,0,0,1-.278.035c-.165,0-.156.035-.243.113s-.278.1-.365.165-.1.269-.217.3a.381.381,0,0,0-.209.261c0,.044.226.313.269.269s.07.069.174.148a.74.74,0,0,0,.278.165c.139.043.348.043.348.174s-.052.2.174.261.374.156.374.2.052.13.243.148.452.009.452.052.261-.035.217.087-.052.33-.13.382-.069.217-.269.113a.711.711,0,0,1-.252-.183s.122.052-.07-.043l-.191-.1s-.13-.026-.217-.052.017-.209-.243-.113a2.8,2.8,0,0,0-.365.122.993.993,0,0,0-.287.2.329.329,0,0,1-.156.1s.052.052-.13.052-.278.243-.409.252a.706.706,0,0,0-.417.122,2.633,2.633,0,0,1-.6.391,2.137,2.137,0,0,0-.269.087.24.24,0,0,0,0,.243c.078.113-.017.322.156.33s.235.122.348.3.269.1.348.287.148.191.365.261.7-.139.747.052.061-.078.513-.078a4.73,4.73,0,0,0,1.052-.087c.165-.052.426.13.487-.078s.374-.409.374-.148a1.288,1.288,0,0,1-.191.513c0,.052-.2.243-.261.278a3.237,3.237,0,0,0-.521.313,1.341,1.341,0,0,1-.591.287c-.182.026-.313-.217-.617.1a1.473,1.473,0,0,1-.739.391,1.3,1.3,0,0,0-.443.574c-.043.148.043.313-.3.478s-.226.209-.226.33a1.52,1.52,0,0,0-.017.443c.043.122-.017.035.269.1s-.113.209.156.243.7.009.469.1a.979.979,0,0,1-.374.1c-.07,0-.269.3-.2.426s.191.226.165.287.13-.156.182.1-.043.174.217.287.3.217.461.113.139-.078.356-.043-.1-.156.148-.209.487.035.435.2-.122.183-.122.365-.087.191.017.417-.1.148.1.226a1.541,1.541,0,0,0,.5.113c.269.035.278-.183.426.026s.182-.113.461.07.148.174.5.035.165-.3.417-.278.487,0,.487.122a1.448,1.448,0,0,1-.009.183s-.2-.035-.226.13a3.441,3.441,0,0,1-.261.591.912.912,0,0,1-.435.478,1.348,1.348,0,0,0-.5.269c-.122.148-.652.287-.7.374a.635.635,0,0,1-.356.374,3.666,3.666,0,0,0-.687.435,7.58,7.58,0,0,0-.73.3,2.889,2.889,0,0,1-.608.348c-.365.191-.339.391-.548.53a.978.978,0,0,0-.409.426c-.043.139.052.226.191.217s-.07-.182.417-.322a7.666,7.666,0,0,0,.939-.339c.313-.122.374-.33.765-.4a4.267,4.267,0,0,1,.652-.182,1.821,1.821,0,0,0,.487-.182c.2-.078.209-.2.365-.2a.43.43,0,0,0,.3-.07c.148-.078.009-.061.3-.191s.3-.348.5-.348.313-.061.539-.278a2.509,2.509,0,0,1,.539-.461,1.978,1.978,0,0,0,.487-.382c.017-.043,0-.209.33-.339a1.8,1.8,0,0,0,.556-.339c.209-.148.478-.191.478-.252a.369.369,0,0,1,.348-.3c.243,0,.582-.443.582-.443s.035.035,0-.1-.07-.078-.122-.3-.052-.226-.122-.269-.165.122-.07-.043.33-.278.356-.33a.8.8,0,0,1,.182-.217c.026,0,.078-.078.078-.078s.183-.13.217-.148.035-.174.156-.243.278-.191.191,0a1.779,1.779,0,0,0-.165.608.186.186,0,0,0,.113.191s-.1.122.156.2.156.1.417.043a1.951,1.951,0,0,0,.521-.139c.078-.052,0-.252.261-.3a.7.7,0,0,0,.487-.243.915.915,0,0,1,.33-.278c.148-.078.374-.435.469-.521a1.009,1.009,0,0,0,.156-.183s.356.009.487.209.182.278.3.3.017.009.217.13a1.789,1.789,0,0,0,.322.2c.209.1.052.087.391.087h.339s-.044-.035.113,0,.209.113.374.13.226-.139.539-.1.4.1.591.043.2-.217.322-.052.148-.017.287.174.2.017.409.3-.182.052.156.243.348.017.409.191.078.191.261.174.3-.026.3-.026a.156.156,0,0,1-.017.183c-.078.078-.209.165-.148.261s.252.122.252.191-.017.356.078.235.035-.235.165-.322.1.017.13-.087a.4.4,0,0,0-.052-.287c-.026-.035-.052-.235-.1-.261s-.061-.217-.017-.183.243.009.261.052.139.174.139.235.157.026.157.1.2.226.148.322a.248.248,0,0,0,.035.313c.1.07.209.122.209.191a1.224,1.224,0,0,0,.191.313s-.139.061.07.156.209.183.287.235a.306.306,0,0,1,.156.287c-.017.139.061.043,0,.269s.174.313.165.4-.1.13.052.287.322.122.339.174.087.339.043.365-.165-.174-.243-.043a.558.558,0,0,0-.026.348s.148.07.217.035.13-.191.183-.1.017.269.078.391a2.461,2.461,0,0,0,.235.33s-.148.078,0,.122.252.1.252.13-.017.035.1.339.043.226.122.3a1.93,1.93,0,0,1,.174.217s-.017-.209.017.052a2.064,2.064,0,0,0,.078.443,1.212,1.212,0,0,1,.078.391c-.017.043-.061-.07.017.191a1.024,1.024,0,0,0,.261.426c.026.035-.009.043.243.113s.382.026.469.07.374.035.374.148.113.156.243.252a1.711,1.711,0,0,1,.3.278,1.647,1.647,0,0,1,.217.33c.052.139.33.356.33.4s.1.174-.035.243a1.627,1.627,0,0,1-.556.191c-.156,0-.278-.156-.382-.026s-.278-.026-.148.287.243.409.165.556a.471.471,0,0,0-.017.478c.1.156.217-.017.148.278s.061.5-.07.7-.078.269-.2.382a.807.807,0,0,0-.322.461c-.044.235-.13-.156-.2.174s-.269.626-.217.826.287.026.139.409-.139.365-.139.556a.829.829,0,0,1-.174.478c-.113.191-.026.252-.026.452s-.13.052.017.391.3.191.139.4-.026.243-.061.539.078.417.1.661.122.043.209.252.313.017.348.356a3.71,3.71,0,0,0,.226.808s.043.035.043.452-.017.33.139.513.156.061.278.278.226.087.374.33a1.224,1.224,0,0,0,.5.5c.226.122.339.052.382.3s.182-.044.3.435-.026.678.061,1.069a1.923,1.923,0,0,0,.382.791,1.609,1.609,0,0,1,.243.3c.139.209.365.087.435.235s.3.322.252.478.07.235.043.4-.1.087-.182.382.026.322.148.478.313.13.391.243.391.009.339.235.235.235.226.452-.061-.026-.07.339.13.165.174.374a.646.646,0,0,0,.174.382,2.813,2.813,0,0,1,.287.269c.165.165.13.043.339.183s.122.235.383.139.487.087.417-.217,0-.452-.07-.574-.252-.148-.365-.261a1.619,1.619,0,0,1-.217-.365,1.8,1.8,0,0,1-.156-.591.529.529,0,0,0-.217-.356c-.052-.061-.017-.156-.122-.33a3.422,3.422,0,0,1-.191-.313c-.052-.113-.3-.3-.348-.513a2.51,2.51,0,0,1-.035-.487c-.009-.165-.009-.139-.156-.3s-.122-.243-.243-.417-.278-.1-.278-.3a4.97,4.97,0,0,1,0-.513c.017-.113.087-.452.165-.3s.165.087.243.191l.078.1s.165-.043.165.1.139.313.1.478a2.465,2.465,0,0,0-.026.5c0,.139.07.191.165.269s.13.209.243.382.061.217.174.374a3.188,3.188,0,0,0,.348.374c.052.052-.043.061.209.226s.191-.122.209.269.217.365.217.5-.035.426.183.565.365.13.513.382a1.352,1.352,0,0,0,.374.434c.165.148.183.452.313.513s.122-.174.122.235.122-.165.122.3a6.615,6.615,0,0,0,.1.739c0,.261-.009.313-.009.6s.017.269.122.417.287.061.348.313.278.217.426.365a1.371,1.371,0,0,0,.487.33c.235.1.626.113.661.3s.148.235.322.322.522-.078.7.026.182.33.261.365.209-.157.434.052a.547.547,0,0,0,.635.087.659.659,0,0,1,.391-.165c.113.009.374-.235.669-.078s.582.235.582.356a.475.475,0,0,0,.287.391c.174.061.426-.278.408.035a.439.439,0,0,0,.191.452.644.644,0,0,0,.348.1c.243.017.565-.165.635-.052s-.191.261.078.3.547.078.547.078.435-.113.426.052.165-.087.183.165.313.313.33.356.182.174.182.261.1.139.1.4a1.232,1.232,0,0,0,.13.53c.035.078-.026.235.174.235s.356.139.348.243.026-.009.217.113.1.339.235.443.043.3.313.33.348.026.522.052.5-.139.574-.07" transform="translate(-51.838 -157.119)" fill="#69a9a4"/>
      <path id="Path_155865" data-name="Path 155865" d="M981.41,183.445c.014.034.023-.151.023-.151a.877.877,0,0,1,.209-.116c.139-.058.336-.185.163-.3s-.255-.1-.255-.255.023-.2-.162-.255c-.065-.02-.1-.025-.125-.033a5.394,5.394,0,0,1-1.016.061.4.4,0,0,0-.261-.009c-.026,0-.191-.043-.148.165s-.052.235.122.278.113.078.087.209-.043.113.07.217.061.139.269.043a1.63,1.63,0,0,1,.339-.1c.113-.043.217-.226.322-.1s.2-.049.365.336" transform="translate(-925.645 -172.252)" fill="#69a9a4"/>
      <path id="Path_155866" data-name="Path 155866" d="M831.43,940.418a.946.946,0,0,0,.382,0c.116-.023.3-.127.417-.07s.336-.162.289.151.383.3.545.3a1.657,1.657,0,0,1,.44.1c.081.023.348.116.382.116a.815.815,0,0,1,.325.174c.046.07.591.244.591.371s.359.185.452.128,0-.3,0-.3.452.011.487.151a.252.252,0,0,0,.255.173c.035-.022.162-.359.069-.359s-.3-.128-.429-.15-.209-.313-.371-.313h-.324a.674.674,0,0,1-.29-.174c-.127-.1-.1-.334-.464-.393s-.267.056-.522-.141a2.491,2.491,0,0,0-.776-.313s-.417-.046-.487.058-.128.07-.267.116-.336-.128-.417.035-.556.139-.289.336" transform="translate(-785.376 -887.888)" fill="#69a9a4"/>
      <path id="Path_155867" data-name="Path 155867" d="M878.343,991.453a.874.874,0,0,0,.487.174h.475c.069,0,.081-.058-.081-.22a.66.66,0,0,0-.5-.2c-.162,0-.637-.162-.568,0s.162.043.151.172.035.071.035.071" transform="translate(-829.589 -936.327)" fill="#69a9a4"/>
      <path id="Path_155868" data-name="Path 155868" d="M918.612,971.414a.459.459,0,0,0,.626,0c.151-.149.347-.23.405-.184s.07.183.209.184.371.06.5-.067a1.119,1.119,0,0,1,.44-.177c.035-.021.011-.194.174-.218s.371.058.406,0,.185-.116.093-.127-.151-.15-.2-.2a.645.645,0,0,0-.162-.139,1.2,1.2,0,0,1-.2-.162s-.1-.243-.185-.243a1.642,1.642,0,0,0-.44-.081,1.588,1.588,0,0,0-.522.116c-.116.047-.406.02-.475.074s-.243.308-.1.378.382.22.185.313a5.415,5.415,0,0,1-.556.151c-.058.035-.209.081-.2.185s-.185.043,0,.2" transform="translate(-867.737 -916.359)" fill="#69a9a4"/>
      <path id="Path_155869" data-name="Path 155869" d="M981.768,985.076a.451.451,0,0,0,.359.126,3.216,3.216,0,0,1,.382-.06s.151-.152.2-.184a1.366,1.366,0,0,0,.127-.114s-.047-.324-.313-.232,0,.012-.22.035-.44-.081-.475.081-.208-.059-.162.173.07.035.1.174" transform="translate(-927.37 -930.148)" fill="#69a9a4"/>
      <path id="Path_155870" data-name="Path 155870" d="M882.846,893h.243c.261,0,.278.009.278-.078s.139-.052,0-.191.009-.235-.23-.156a2.25,2.25,0,0,1-.292.078c-.052.017.261.157.1.235s-.1.113-.1.113" transform="translate(-834.017 -843.19)" fill="#69a9a4"/>
      <path id="Path_155871" data-name="Path 155871" d="M890.872,323.943a.464.464,0,0,1-.151.174.745.745,0,0,0-.174.371s.081-.058,0,.151.058.162-.127.463-.232.255-.22.359.012.394-.081.394-.452.209-.278.3.591-.185.6.081-.127.347.128.359a2.1,2.1,0,0,0,.51-.093c.093,0,.116-.359.232-.429s.1-.313.232-.406a.2.2,0,0,1,.278.035c.035.046-.012-.081.208.151s.162.127.336.232a.818.818,0,0,0,.568.2c.3-.011.313-.046.29-.278s-.174-.034-.278-.185-.313-.116-.394-.336.081-.463.023-.5a.641.641,0,0,0-.174-.093c-.035,0-.336-.069-.336-.069a1.1,1.1,0,0,1-.452-.22c-.093-.128-.174.116-.244-.035l-.069-.151s-.151-.1-.162-.162-.244-.545-.266-.313" transform="translate(-840.588 -305.97)" fill="#69a9a4"/>
      <path id="Path_155872" data-name="Path 155872" d="M988.107,280.228s-.047.208-.2.232a.737.737,0,0,0-.394.162c-.047.07-.383.22-.267.382a.406.406,0,0,1,.1.348c-.011.127.01.267.312.139s.372-.2.511-.243.2-.25.289-.363-.093-.24-.127-.286-.151-.532-.232-.371" transform="translate(-932.631 -264.701)" fill="#69a9a4"/>
      <path id="Path_155873" data-name="Path 155873" d="M911.02,374.885c-.026.318.116.371-.1.487s-.07.116-.243.185-.1.186-.487.1-.452-.2-.093-.375-.012-.3.209-.321.221.023.3-.023.438-.315.417-.058" transform="translate(-859.543 -354.051)" fill="#69a9a4"/>
      <path id="Path_155874" data-name="Path 155874" d="M944.687,381.979c.164.254.035.139.058.371s-.046.371.151.232a.253.253,0,0,0,.194-.012c.07-.052.017-.1.122-.1s.174-.026.165-.1-.078-.087-.087-.27.078-.261.009-.3a.6.6,0,0,1-.174-.113c-.026-.035-.034-.252-.095-.156s-.053.191-.1.2a.887.887,0,0,0-.191.1s-.153-.026-.046.139" transform="translate(-892.41 -360.414)" fill="#69a9a4"/>
      <path id="Path_155875" data-name="Path 155875" d="M1176.555,256.911s.017-.035.052.191.157.182,0,.278.07.139-.191.139a4.523,4.523,0,0,0-.5,0c-.13.017-.122,0-.191-.1s-.069-.248-.182-.206-.148,0-.148,0-.217-.249,0-.308.278-.015.278-.155-.1-.287,0-.3a.453.453,0,0,1,.317.061c.092.07.161-.07.222,0s0,.165.156.209a.252.252,0,0,1,.183.183" transform="translate(-1110.308 -242.273)" fill="#69a9a4"/>
      <path id="Path_155876" data-name="Path 155876" d="M1480.881,154.3h.069c.183,0,.2.122.191-.07a1.159,1.159,0,0,1,0-.235s.141-.078,0-.07-.384-.156-.349-.078a.534.534,0,0,1,.035.235v.087s-.208.1-.078.113Z" transform="translate(-1398.825 -145.323)" fill="#69a9a4"/>
      <path id="Path_155877" data-name="Path 155877" d="M1324.874,16.909c.015.008.007-.022,0,0" transform="translate(-1251.608 -15.966)" fill="#69a9a4"/>
      <path id="Path_155878" data-name="Path 155878" d="M1100.967,5.527c-.069-.2-.139-.113-.069-.261s-.1-.078-.243-.087-.191-.148-.252-.139-.269.209-.521.113-.478-.139-.53-.078a1.409,1.409,0,0,1-.434.1s-.052.052-.2.174a1.764,1.764,0,0,1-.313.226c-.061.026-.122-.035-.226-.148A.419.419,0,0,0,1098,5.3s.061-.191-.113-.13-.287.1-.287.2,0,.061-.113.191-.287-.017-.339.13-.3.235-.33.374-.174.191-.209.017-.078-.113-.035-.261.183-.061.217-.113-.018-.07.13-.156.191-.183.278-.243.009-.227.026-.27-.078-.286-.165-.286-.156.009-.217-.1-.009-.252-.13-.243-.217-.209-.217-.209.156-.1-.061-.078-.313,0-.313-.052a1.462,1.462,0,0,1,.053-.226s.051-.009.077-.1.078-.148.009-.226-.087-.235-.139-.139-.2.078-.339.078-.043.026-.165-.052a1.616,1.616,0,0,0-.382-.139.22.22,0,0,1,.044-.2c.078-.078.1-.1.078-.139s-.07-.07-.226-.044-.113-.064-.409-.01a1.847,1.847,0,0,1-.513.036c-.2,0-.408-.043-.417.035s-.191.043-.322-.043a.8.8,0,0,0-.565-.1,1.089,1.089,0,0,1-.626-.018.861.861,0,0,0-.513-.078,1.083,1.083,0,0,0-.348.078c-.139.052-.052-.009-.244.026s-.191-.026-.269.061a1.949,1.949,0,0,1-.539.235c-.026,0-.148-.1-.156-.017s-.009.374-.009.417,0,0,.043.087-.061.287-.156.287-.174-.13-.252-.13a2.024,2.024,0,0,1-.452-.009c-.2-.035-.243-.1-.235-.217a.143.143,0,0,1,0-.032c-.012-.007-.038-.038-.092-.142-.139-.269-.182-.313-.243-.287s-.261-.278-.374-.191a2.627,2.627,0,0,1-.478.408c-.2.1.07.235-.252.3s-.191.217-.156.243.243.191.33.156.278-.069.278.017a.888.888,0,0,0,.061.209c0,.026-.5-.052-.478.122s.069.339,0,.409-.469.209-.469.148.035-.035-.07-.235-.165-.1-.252-.209-.13-.261-.33-.226a.294.294,0,0,1-.313-.183.178.178,0,0,0-.235-.139c-.191.035-.3-.026-.269-.087s-.226-.182-.226-.182a.524.524,0,0,0-.217.217c-.1.165-.556-.035-.383.165s.131.148.165.287.209.087.209.165.226.287.009.3-.33-.043-.365-.148a.549.549,0,0,1-.035-.148.624.624,0,0,0-.391-.009c-.243.061-.539-.13-.582-.026a.145.145,0,0,1-.269-.043.673.673,0,0,1,0-.217s.122-.148-.078-.148-.191-.209-.278-.122.13.07-.209.061.087.087-.321.087a1.957,1.957,0,0,0-.774.087c0,.043-.2.026-.278-.026s-.026-.035-.3.061a.981.981,0,0,1-.6.087c-.1-.052-.1-.043-.148-.07s-.313.13-.313.243-.156.183-.165.209a1.986,1.986,0,0,0,0,.322c.009.052-.1.087-.261.069s-.209-.174-.365-.069a.737.737,0,0,1-.486.078c-.017-.026-.13-.026-.226.07s-.313.043-.313.156,0,.217-.113.243-.017.061-.148.113-.53.017-.539.1.13.148.052.269-.043.113.035.243a.376.376,0,0,0,.235.165c.026.009-.061-.017.2-.1s.113-.165.278-.183.356-.061.313.061a.426.426,0,0,1-.191.252c-.078.035-.252.243-.3.252s-.217-.052-.252.017-.078.113-.226.035a1.106,1.106,0,0,0-.782.13c-.156.122-.026.209-.287.209s-.435-.1-.539-.078,0,.139-.2.165-.461.078-.461.122-.243.13-.252.165a.414.414,0,0,0-.07.183c0,.1.1.1.122.209s.078.052.191.122.061.1.209.165.156-.009.287.113.035.165.235.2.156.1.174.191.313.13.113.2-.191-.1-.478-.13a1.041,1.041,0,0,0-.513.07s-.191-.1-.191.087-.182.13,0,.183a1.512,1.512,0,0,0,.33.035.617.617,0,0,1,.174.1s-.182.139.078.156.235-.035.261.017-.061.139-.148.191.044.1-.069.148-.261.122-.122.191a.865.865,0,0,1,.235.2c.035.026.182,0,.217.122s.087.043.113.226-.043.1.13.243.1-.07.339-.061.243.009.443.009.165-.017.261-.165.139-.269.3-.269.13.122.452.122.356-.035.461.052-.113.235.217.243.113-.061.261.035.478.052.539.113-.33.235-.017.243.426-.026.426.017-.026.078.087.174.208.035.174.217a1.262,1.262,0,0,0,.009.443c.017.191-.209.33-.113.409s.113-.13.313-.026a.859.859,0,0,1,.435.374c.061.156-.182.061-.13.217s.1.13.122.261.087.1.1.217-.122.243-.018.339a1.839,1.839,0,0,0,.3.235.228.228,0,0,1,.122.209c0,.122.165.209-.026.287s-.434.179-.409.363.2.167.061.3-.052.3-.07.348-.365.209-.069.287a.507.507,0,0,0,.478-.043c.182-.07.061.078.226-.017s.052-.374.235-.365.2.313.235.4.339.035.243.2a.292.292,0,0,0-.044.278c.009.035.026.191-.174.148s-.113,0-.313-.183-.209-.235-.33-.156-.217,0-.356.191-.278.339-.13.356a1.4,1.4,0,0,1,.452.13c.078.052.061.1.13.1s.087-.174.226.052.322.278.452.209.269-.174.287-.052.078.322-.052.348-.278-.009-.3.243.165.13.052.382a1.2,1.2,0,0,0-.113.443s-.287.009-.382.209-.513.078-.513.235-.07.087.052.243.269.382.052.417-.165.2-.261.235-.356.009-.365.156.217.269.26.269a.139.139,0,0,1,.1.2c-.061.113.183.217-.122.235s-.287.2-.287.2l.13.087s.017.174.113.191-.052-.061.1.017.443.009.383.148.009.122-.087.313a.623.623,0,0,0-.1.3c0,.035-.061.1.13.139s.208.113.2.261.2-.252.226,0-.209.156-.209.313-.313.009-.2.322.078.269.026.348,0,.2.052.322-.017.165.139.182.221-.235.336-.009c0,0-.162.7,0,.927a4.078,4.078,0,0,0,.394.464l.533.348s-.278.162,0,.371.788,0,.788,0l.209.394.325.348s-.047.023.3.185.51,0,.51,0l.209-.069.185-.533s-.07-.232.116-.232.139-.278.208-.464a2.344,2.344,0,0,1,.232-.417.429.429,0,0,1,0-.186,2.578,2.578,0,0,1,.278-.417l.193-.463.24-.255v-.325l.34-.3a2.642,2.642,0,0,1,.008-.742c.069-.162.166-.188.305-.279s.465.207.465,0a.754.754,0,0,1,.3-.555c.209-.209.3.139.3.139l.348.07.232-.158.348-.109h.3l.209-.354.394-.257s.139-.516.278-.525.371-.473.371-.473.371-.441.44-.441.186-.325.464-.278a1.842,1.842,0,0,0,.927,0,6.786,6.786,0,0,0,1-.505,1.7,1.7,0,0,0,.718-.394c.278-.209.51-.169.6-.424a4.807,4.807,0,0,0,.162-.679h-.51a3.674,3.674,0,0,0-.7.123c-.139.07-.437,0-.427-.113s0-.439,0-.439l.612-.231s.325-.393.371-.278.116.464.232.464.278.278.278.278a3.309,3.309,0,0,1,.464.209,1.827,1.827,0,0,0,.533.093l.215-.417s.146-.506,0-.647.063-.489-.123-.628a3.388,3.388,0,0,0-.7-.3s-.51-.139-.649-.162-.023-.51-.255-.441-.208-.023-.255-.139-.232-.371,0-.371a1,1,0,0,0,.6-.3c.209-.162.533-.116.533,0s.255.278.255.278.164-.046.207-.012.105.139,0,.165a2.135,2.135,0,0,1-.375.026c-.043,0-.243-.113-.226,0s.139.243.139.269-.052.061.113.043.1-.165.252-.052.052.13.148.113.122.165.3.13a1.087,1.087,0,0,0,.243-.07s.043-.217.043-.243a.2.2,0,0,0-.183-.113c-.1,0-.252.052-.261,0s-.1-.174.026-.174.226-.078.3-.026a.65.65,0,0,0,.278.122c.078,0,.113.026.174-.044a.233.233,0,0,0,.061-.182c-.009-.026-.16-.139,0-.139s.154.078.162,0,0-.3,0-.339-.209-.113-.209-.113.044-.1.017-.122-.174-.1-.174-.1l-.191-.148s.208-.183.217-.122.061.2.139.226a.718.718,0,0,0,.287-.026.924.924,0,0,1,.209-.008h.191c.044,0,.136-.1.136-.1s.076-.226,0-.226a.283.283,0,0,1-.168-.043.133.133,0,0,1-.045-.07.278.278,0,0,0-.031-.122c-.035-.078-.05-.122-.12-.087s-.156.113-.251.043-.121,0-.1-.07-.043-.235.113-.209.035-.009.165-.113a.306.306,0,0,0,.13-.217,1.094,1.094,0,0,0-.148-.269c-.078-.087-.1-.13-.061-.243s.087-.078-.009-.183-.069-.148-.165-.183a.273.273,0,0,1-.139-.139s.174-.165.3-.078.122.087.382.087a.694.694,0,0,0,.409-.112c.017-.009-.044-.027.122-.044s.156-.07.191-.156a.466.466,0,0,0,.061-.278c-.026-.087-.13-.156-.13-.252s-.156-.122-.156-.122-.139.035-.165,0-.235-.07-.07-.183a.244.244,0,0,0,.122-.261l-.009-.052s.1-.122-.017-.183-.435-.148-.435-.191.061-.113-.009-.148a.578.578,0,0,1-.182-.217c-.009-.035.1-.174.122-.217s.261-.165.3-.313.043-.026.191-.191.313-.156.356-.243-.026-.165.148-.252.243-.078.243-.287-.052-.3.087-.322.061-.183.217-.191.33.1.374,0-.061-.139.122-.139.313-.07.278-.148-.078-.113-.061-.2a.47.47,0,0,1,.13-.2c.026-.026-.017-.087.13-.078a.782.782,0,0,0,.374-.061.567.567,0,0,1,.226-.087c.07,0,.208-.043.139-.243m-6.64-.619c-.139.058.081.253-.208.218a2.7,2.7,0,0,0-.5-.047,3.9,3.9,0,0,1-.417-.012V5.009s-.011,0,.162-.151.046-.321.278-.217a.615.615,0,0,0,.44.108h.406c.128,0-.023.1-.162.159m1.761.054c-.035.174-.127.127-.232.166s-.035.124-.336.2-.116-.011-.1-.2,0,0-.012-.151-.07-.081-.07-.266c0,0,.012-.116.1-.046s.5,0,.74,0-.056.116-.091.29" transform="translate(-1015.894 -2.553)" fill="#69a9a4"/>
      <path id="Path_155879" data-name="Path 155879" d="M918.68,4.986s-.035.348-.191.3-.157.156-.157.209.348.139.348.139a.629.629,0,0,1-.348.156,2.2,2.2,0,0,0-.573.209c-.1.035-.313-.087-.313,0s-.226.278-.226.278-.226.3.1.3.516-.07.588.1.177.226.455.174a5.8,5.8,0,0,0,1.026-.1c.782-.156.643-.122.869-.087a3.952,3.952,0,0,1,.7.211c.07.033.243-.033.487,0l.109.015.134.018s-.417.226,0,.226a4.652,4.652,0,0,1,.73,0,.2.2,0,0,0,.243-.087c.052-.07.208-.209.278-.278s-.087-.226-.087-.226-.226-.052-.278,0-.313-.209-.313-.209L922,6.061s.07-.194.417,0,.4-.084.4-.084l.069-.261h.07l.208-.226a.3.3,0,0,1,.156-.052,1.087,1.087,0,0,1,.3.017s.3.139.33,0,.278-.1.278-.191a.3.3,0,0,1,.217-.278c.139-.017.217-.043.234-.1s.261-.287.061-.374-.209.052-.409,0a.474.474,0,0,1-.252-.122.325.325,0,0,1-.052-.078C924,4.256,923.8,4.03,924,4.056a4.126,4.126,0,0,0,.426.087c.148,0,.139.035.235,0s.044.009.157-.052.061.056.374-.037.217-.241.521-.2.33.167.591-.008a1.152,1.152,0,0,0,.374-.444c.078-.1.2-.269.321-.287s-.026-.13.269-.122a1.967,1.967,0,0,0,.8-.235c.2-.087,0-.3.27-.287s.278.1.374-.061,0-.3-.113-.287-.409-.035-.374-.07-.122-.1.313-.087.261-.014.591,0a1.636,1.636,0,0,0,.687-.084c.139-.061-.009-.044.287-.07s.287-.165.443-.209.191-.156.322-.191l.13-.035s.3-.139.148-.243-.6-.078-.721-.156.052-.217-.122-.243-.322.165-.461.2-.165-.043-.374-.026-.087-.179-.452-.176a1.132,1.132,0,0,1-.556-.084c-.226-.07-.243-.174-.469-.139a.537.537,0,0,1-.5-.113c-.148-.122-.226-.009-.417,0s-.226.1-.322.07A1.829,1.829,0,0,1,926.3.241.51.51,0,0,0,925.937.1a2.51,2.51,0,0,1-.53-.1s-.287-.026-.33.148.1.217-.044.287-.139-.2-.226-.2-.417-.07-.487-.017-.113.043-.365.07a.672.672,0,0,0-.443.217c-.13.1-.3.078-.356.243s-.069.165-.261.165-.2-.243-.33-.243A3.228,3.228,0,0,1,922.017.5c-.182-.052-.07-.287-.321-.252a3.4,3.4,0,0,0-.452.078c-.182.043-.148.113-.4.183s-.009.191-.174.3a1.894,1.894,0,0,1-.539.156c-.026.017-.217-.209-.339-.209s-.417-.174-.539-.07-.148.226-.261.243-.565,0-.591.078-.269.174-.157.278.165-.009.356-.017.348-.061.452-.009.026.209-.07.217-.043.052-.122.139-.391.113-.209.252.3,0,.469.148.156.252.356.122a.542.542,0,0,1,.417-.122,1.047,1.047,0,0,1,.435.122.6.6,0,0,0,.435.061c.208-.044.313-.191.417-.044s.087.243.226.322-.087.1.139.078.33.269.469.278.191-.122.365-.191a2.346,2.346,0,0,1,.443-.148.294.294,0,0,0,.3-.209c.052-.191.13-.078.243-.2s.113-.183.261-.243.07-.026.139.2.391.313.348.382-.044.078-.3.13-.5-.156-.591-.017-.07.313-.165.365-.635.017-.669.07.044.261-.069.322-.226.322-.287.339-.191-.1-.3-.191-.035.009-.226-.252-.2-.313-.356-.3-.261-.061-.356-.043-.3-.217-.391-.183-.052.139-.122.2-.165.052-.174.156.061.313.13.313.044-.1.252.122.4.287.269.382-.2.13-.235.191-.156.087-.287.078-.191-.139-.443-.139-.313-.113-.33.043.009.1-.209.183-.269.139-.33.269-.165.322.026.322.27-.052.357.07-.018.009.278.009.643-.139.556.017-.174.252-.087.339.139-.113.2.087-.217.182.061.2.261.2.339.009.278-.3.3-.165.261.1.13.243.1.139-.217.165-.382.122-.608.026-.113.148-.383-.122-.139-.087-.33-.313-.165-.252-.339-.252-.044-.07-.217-.113a.707.707,0,0,0-.313-.009" transform="translate(-866.426 -0.005)" fill="#69a9a4"/>
      <path id="Path_155880" data-name="Path 155880" d="M878.557,25.857c.165.052.1,0,.339,0s.391-.119.391.023.469.055.139.116-.035.1-.122.156-.1.078-.061.235.175.165.3.174.082.043.16.113.2.009.217.183-.165.113.061.1.191-.174.3-.043.009.156.383.174.3.156.382.165-.009-.156.235-.2.313-.035.313-.148a.193.193,0,0,1,.13-.209c.1-.043.009-.185.278-.166s.513.062.539-.06-.026-.13.182-.139.226-.1.348-.1.148-.122.139-.226a.209.209,0,0,0-.243-.194c-.139.029-.409.038-.409-.049s-.009-.035.078-.191.044-.3-.026-.269-.13-.183-.13-.183v-.043s-.035-.026-.287,0-.3-.049-.348-.012l-.052.038-.026-.049s.017-.038-.087-.143a.615.615,0,0,0-.3-.13s-.035.061-.139-.113-.113.044-.278-.183-.113-.165-.139-.287a.634.634,0,0,0-.087-.209s-.209-.156-.3-.13a2.143,2.143,0,0,1-.435.043c-.035-.009-.208-.128-.313-.046l-.1.081s.087.182-.044.191l-.13.009s-.139.009-.139.078a.592.592,0,0,0,0,.183c.017.139.3.183.052.217s-.287.035-.287.035-.009-.044-.035.052-.078.078-.148.1-.209.026-.226.078-.13.122-.157.174-.009.1,0,.269-.13.243-.1.339l.026.1Z" transform="translate(-829.797 -22.509)" fill="#69a9a4"/>
      <path id="Path_155881" data-name="Path 155881" d="M780.088,80.756a.222.222,0,0,1,0,.128c-.023.046.023.081,0,.139a.537.537,0,0,0-.093.243c0,.116.151.058.174.162s-.116.2.139.127a.675.675,0,0,1,.44-.035c.127.035.255.128.174-.081s-.22-.161-.266-.272-.221-.018-.3-.157-.266-.522-.266-.255" transform="translate(-736.861 -76.203)" fill="#69a9a4"/>
      <path id="Path_155882" data-name="Path 155882" d="M791.189,56.709c-.026.035-.037-.023.113.162s.093.267.325.163.139-.1.336-.14.127-.185.2-.185.151-.128.325,0,.139.07.3.081a.4.4,0,0,1,.267.174s.232.012.243.116.1-.082.174.115.069.15.2.174a.854.854,0,0,0,.533-.15.318.318,0,0,0,0-.29c-.046-.1-.023-.128-.128-.22s-.128-.243-.174-.243h-.046s-.035-.035-.174-.2a1.326,1.326,0,0,0-.58-.243.476.476,0,0,0-.3-.1c-.081-.012-.07-.1-.186-.127s.151.058-.116-.023-.359-.174-.6-.081a1.754,1.754,0,0,1-.452.093c-.092.023-.065.035-.252.139s-.582.134-.176.218.417.164.591.188.278.1-.011.185-.4-.012-.4.093Z" transform="translate(-747.102 -52.574)" fill="#69a9a4"/>
      <path id="Path_155883" data-name="Path 155883" d="M855.975,64.563a.135.135,0,0,0-.036-.032.466.466,0,0,0-.242-.064c-.22-.009-.07.1-.162.176s-.255.116-.1.2a.667.667,0,0,1,.242.22c.06.07.079.139,0,.2s-.172.266-.091.336-.085-.121.091.108.141.228.3.24a1.579,1.579,0,0,0,.556-.121c.035-.03.3-.171.3-.171a.825.825,0,0,1,.22-.171c.093-.035.116-.153.093-.274s-.22.03-.29-.19-.035-.162-.07-.22.022-.07-.145-.07-.29-.336-.379-.139-.17.128-.229.093a.146.146,0,0,1-.058-.116" transform="translate(-808.067 -60.903)" fill="#69a9a4"/>
      <path id="Path_155884" data-name="Path 155884" d="M438.274,582.026a.214.214,0,0,0,.1.313c.226.122.1-.209.226.122s.5.087.5.209-.365.156,0,.261a.58.58,0,0,1,.4.487.6.6,0,0,0,.365.139c.243.017,0,.139.122.191s.139.009.3,0,.2.146.3.025-.069-.13,0-.373.078-.339-.017-.365a.768.768,0,0,1-.243-.112c-.061-.044-.1-.227-.139-.227h-.043l-.139-.078-.061-.035a.072.072,0,0,0-.017-.1l-.052-.043a.417.417,0,0,1-.269-.087c-.156-.1-.165-.017-.252-.087s-.252.044-.33-.078a.82.82,0,0,0-.174-.209c-.1-.1-.13-.122-.261-.087s-.426-.122-.322.13" transform="translate(-414.007 -549.701)" fill="#69a9a4"/>
      <path id="Path_155885" data-name="Path 155885" d="M410.408,527.119a.183.183,0,0,1-.139.093c-.058,0-.209.012-.127.1l.081.093s.034-.162.04.047-.075.278,0,.394.145-.012.191.116.139.29.209.139.07-.035.07-.151,0-.232.1-.255.035-.127,0-.278-.081-.116-.151-.185-.2-.266-.278-.116" transform="translate(-387.438 -497.918)" fill="#69a9a4"/>
      <path id="Path_155886" data-name="Path 155886" d="M190.849,479.591s.156.2-.052.252-.182-.061-.217.13-.209.182-.235.3-.009.148-.217.217-.4-.174-.6-.183-.3.2-.287-.026.069-.443.182-.382a.6.6,0,0,0,.339,0,.418.418,0,0,1,.183-.217c.139-.078.021-.217.128-.217s.072-.156.176,0,.061.052.226.043.365-.07.374.087" transform="translate(-178.776 -452.881)" fill="#69a9a4"/>
      <path id="Path_155887" data-name="Path 155887" d="M49.834,435.089c.059.087.009.1.182.1h.348s0-.052.043-.048.07.022.157-.091.122-.278.087-.278,0,.078-.035,0-.043-.07-.035-.226-.061-.087-.139-.174-.143-.217-.193-.183.028.191-.05.191-.278-.069-.3-.026a1.079,1.079,0,0,0-.07.156c-.043.122-.243-.1-.243.017s.113.055.078.158-.217.146-.078.224.191.105.243.183" transform="translate(-46.8 -410.17)" fill="#69a9a4"/>
      <path id="Path_155888" data-name="Path 155888" d="M.245,372.408a2.1,2.1,0,0,1,.6.07c.1.07-.043.226.1.217s.217-.069.217,0,.1.069.165.069-.035.052.235.087.243-.1.339-.122a.182.182,0,0,0,.122-.252c-.061-.1-.252.009-.261-.07s.043-.174-.139-.174a1.054,1.054,0,0,1-.382-.122h-.1s.055-.122-.24-.043a1.465,1.465,0,0,1-.469.078c-.113,0-.791.191-.191.261" transform="translate(-0.001 -351.469)" fill="#69a9a4"/>
      <path id="Path_155889" data-name="Path 155889" d="M798.551,249.532s-.069,0,.209.191.348-.017.522.1.209.191.469.174.539-.017.435-.313.07-.122-.1-.469-.435-.243-.435-.313-.226-.209-.382-.174-.209-.07-.226.174.087.33-.139.348-.69.02-.348.278" transform="translate(-754.276 -234.972)" fill="#69a9a4"/>
      <path id="Path_155890" data-name="Path 155890" d="M787.524,167.3c.081.139.3.07.348.382s.174.243.383.313l.209.07s.226-.174.174.156-.089.365.008.521.1.191.325.07.415.122.345-.209-.087-.591.087-.313.191.07.382-.087.3,0,.3,0,.191,0,0-.574-.087-.313-.191-.574-.539-.156-.139-.4.274-.07.415-.07.28-.226.245-.365a.207.207,0,0,0-.191-.174c-.052,0-.181-.313-.36.087s-.249.035-.4.017-.052.035-.278-.139-.174.139-.3.191-.313.035-.313.122-.261.017-.261.261.4.243.33.33-.209.035-.243.226-.174.261-.226.07a.406.406,0,0,0-.348-.261c-.07,0-.487.017-.3.348" transform="translate(-743.927 -156.759)" fill="#69a9a4"/>
      <path id="Path_155891" data-name="Path 155891" d="M814.706,113.348a1.824,1.824,0,0,0-.452.191c-.156.07-.122.452-.209.452s-.444.174-.335.3.283-.035.335.1a2.575,2.575,0,0,1,.08.626c.024.313-.219.348.268.278s.469.122.678-.087-.017-.156.209-.209.5-.017.348-.261a.56.56,0,0,1-.139-.528c.017-.324.139-.567.017-.55a1.918,1.918,0,0,1-.556-.226Z" transform="translate(-768.692 -107.08)" fill="#69a9a4"/>
      <path id="Path_155892" data-name="Path 155892" d="M848.194,139.717s.116-.3.237,0,.243.387.4.335a.506.506,0,0,1,.365.014c.139.038.348-.051.3-.241a.629.629,0,0,0-.235-.312s.13-.3,0-.313a3.046,3.046,0,0,0-.41,0s-.207-.067-.294-.008-1.031.468-.359.524" transform="translate(-801.062 -131.472)" fill="#69a9a4"/>
      <path id="Path_155893" data-name="Path 155893" d="M778.29,133.685c.057.1.2.087.29,0a.619.619,0,0,0,.124-.258s.25-.194.063-.246-.436-.174-.476,0-.2.139,0,.5" transform="translate(-735.156 -125.731)" fill="#69a9a4"/>
      <path id="Path_155894" data-name="Path 155894" d="M752.735,166.059l.191.226s.209-.209.261,0,.069.417.226.3,0-.277.261-.243.07-.366,0-.366.087-.25-.156-.2a.751.751,0,0,1-.487,0c-.122-.057-.686.151-.3.29" transform="translate(-710.981 -156.593)" fill="#69a9a4"/>
      <path id="Path_155895" data-name="Path 155895" d="M568.083,153.362s-.035.693.1.639a1.391,1.391,0,0,1,.591,0,1.212,1.212,0,0,0,.661-.075c.156-.1.4.087.678-.035s.33-.2.5-.2.209-.232.4-.25.4.052.5,0,.07-.348.382-.261.591-.478.608-.016.278.2.278.2.1.288.191.323a4,4,0,0,0,.626.017.245.245,0,0,1,.174-.13c.113-.009.217.058.3-.071s.165-.294.07-.32-.252-.035-.287.026-.148.1-.174.026-.07-.173-.009-.252.009-.226.217-.122.278.156.374.061.044.087.2.052.1-.087.243-.052.226.148.217.017-.1-.113.139-.252-.078-.365-.087-.487-.035-.226-.261-.243-.156.113-.339-.043-.174-.374-.452-.339-.182.035-.208-.1-.165-.183-.113-.235.209-.009.139-.243.113-.217.052-.426-.081-.1-.106-.382a.779.779,0,0,0-.094-.374c-.035-.1,0-.243-.13-.3s.017-.113-.182-.269-.217-.11-.3-.242-.113-.114-.261-.193-.226-.148-.322-.07a.575.575,0,0,1-.261.165c-.1.017.043.243-.078.278s-.348.191-.165.217.261-.043.3.122.3.113.156.209-.252.1-.252.209-.1.487-.235.191-.226-.113-.183-.3.113-.2-.009-.278-.148-.044-.1-.183.122-.148-.017-.2-.243-.009-.278-.078a2.89,2.89,0,0,0-.183-.261.227.227,0,0,0-.165.175c-.044.155.017.077-.044.155s-.1.1-.061.226.017.156-.2.156-.217.3-.252.174-.122-.191-.035-.243.087.061.139-.1.27-.183.044-.243-.278-.009-.322-.061.07-.191-.113-.191-.356-.043-.365.087-.139.122-.269.183-.391.174-.391.1-.156-.191.017-.191.191.15.209-.042.017-.331-.035-.3-.078-.1-.1-.132-.122-.059-.174-.111-.087-.043-.226-.043-.243.1-.287-.078.087-.131-.087-.2-.3-.03-.3-.169.082-.183-.066-.183-.017.1-.209-.1-.209-.235-.322-.191-.183-.113-.183-.139-.235-.148-.252,0-.061.174-.174.2.061.148-.148.165a1.261,1.261,0,0,1-.339,0c-.035-.009-.043-.183-.182-.165s-.243-.122-.365-.191-.348-.03-.374-.08a.741.741,0,0,0-.5-.154,4.514,4.514,0,0,0-.782,0c-.043.043.035.209-.156.191s-.478.043-.313.13a.23.23,0,0,1,.13.261c0,.044.113.026.191.1s.156.191.043.278-.009.113-.148.252-.261.139-.365.252.052.069-.113.191-.087.322-.182.4-.1.243-.2.3-.182.287-.209.313-.452.1-.209.2.33-.07.339.035-.122.261.017.269a.188.188,0,0,1,.174.113s.269-.005.217.154-.13.307-.035.376.017-.078.182.052.209.209.322.087.548.035.565-.017.052-.183.07-.252.182-.043.287-.1.035-.217.208-.269.269.026.269-.087-.035-.209.139-.252.417-.052.5-.139.148-.026.243-.156.191-.3.235-.278a.244.244,0,0,1,.148.226c-.009.13-.174.148-.209.182s-.217.017-.191.087-.078.113-.165.148-.174.069-.026.148.043.177.13.241.061.124.165.177a.622.622,0,0,0,.33.07c.156,0,.2.156.148.191s-.278-.017-.313.183.069.174.139.174-.2.235.026.252.209-.052.382-.07,1.808-.122,1.877.087.114.426-.243.339-.366-.165-.5-.078-.452-.13-.782-.035-.521-.009-.565.1.026.3-.078.348-.235.087-.1.209.261.1.261.2-.2.252.009.165.052.052.217.078a1.927,1.927,0,0,0,.461.043c.191-.009.087.009.252.113s.261.13.252.191.061.06.061.06" transform="translate(-531.474 -138.969)" fill="#69a9a4"/>
      <path id="Path_155896" data-name="Path 155896" d="M662.136,104.011s-.2.3.284.333a.859.859,0,0,0,.654-.167c.087-.024.365-.163.487-.094s0,.365,0,.365-.261.222-.261.337.139.393.226.393-.122-.069.33,0,.73.167.747.075a.418.418,0,0,1,.1-.179s.3-.148.348-.178.417-.165.417-.219.052.021.365-.025.3-.22.556-.15.539.15.539.15.136-.25.312-.3.4.015.4-.107-.017-.248.1-.332-.087-.415-.139-.415-.1-.261-.191-.261-.243.33-.469.278-.376.07-.31-.417.073-.435,0-.574.1-.3-.229-.156l-.33.139s.017-.156-.1.035-.7.191-.348.382.365.278.365.5.4.3-.156.377-.643.314-.782.108-.017-.363-.261-.346-.278,0-.313-.191-.261-.452-.435-.452-.191.087-.5-.087-.243-.139-.487-.07-.631,0-.637.156-.44.313-.284.417.376,0,.284.209-.493-.052-.6.139-.33.289-.139.327.331-.16.452,0" transform="translate(-625.022 -96.651)" fill="#69a9a4"/>
      <path id="Path_155897" data-name="Path 155897" d="M612.183,83.462c-.059.106.122.139-.087.417s-.207.487.122.5.243-.174.538-.1.4-.1.765-.07.539.278.608.035.226-.225.278-.321a3.326,3.326,0,0,0,.191-.461c0-.035.626-.452.348,0s-.171.314.071.357a1.339,1.339,0,0,0,.491.06c.081-.035-.11-.33.1-.417a2.561,2.561,0,0,0,.3-.139,1.025,1.025,0,0,1,.208-.2.546.546,0,0,1,.226,0s.156.092.156-.186.452-.225.139-.443a.681.681,0,0,0-.8-.113c-.313.139-.486-.068-.608.166s-.261.247-.366.119-.487-.284-.591-.119a2.922,2.922,0,0,1-.417.46c-.156.156-.365-.027-.417.117s-.07.422-.3.335-.122-.122-.417,0-.452-.156-.539,0" transform="translate(-578.111 -77.751)" fill="#69a9a4"/>
      <path id="Path_155898" data-name="Path 155898" d="M718.655,61.173s-.391-.122-.539,0a1.954,1.954,0,0,0-.261.139c-.017.026-.052.035-.139.061s-.113.009-.148.078-.279.143-.279.143-.051.144.071.144.078.113.174.165.078.1.252.059.043-.094.33-.041.183-.026.365-.026a1.542,1.542,0,0,0,.461-.052c.026-.027-.061-.184.052-.249s.1-.048.078-.221-.009-.235-.1-.3-.27-.252-.043-.252.408.217.417,0-.174-.243-.2-.3a.378.378,0,0,0-.287-.148.874.874,0,0,0-.417.1c-.017.043-.1.035-.174.078s-.443-.026-.426.035.043.1,0,.139-.287-.017-.261.078.1.313.182.261a.373.373,0,0,1,.269-.1c.182-.009.747-.017.617.191" transform="translate(-677.613 -57.043)" fill="#69a9a4"/>
      <path id="Path_155899" data-name="Path 155899" d="M28.1,566.7a.385.385,0,0,1,.313-.174.326.326,0,0,0,.278-.1s-.174-.348-.3-.278-.087.274-.087.274-.487.039-.209.283" transform="translate(-26.467 -534.831)" fill="#69a9a4"/>
    </g>
  </g>
</svg>
