<svg xmlns="http://www.w3.org/2000/svg" width="36.707" height="41.167" viewBox="0 0 36.707 41.167"><g transform="translate(-157.592 -64.168)"><path d="M163.146,67.157v2.782h-2.6a2.764,2.764,0,0,1-2.4-4.428,2.782,2.782,0,0,1,5.007,1.647Z" transform="translate(0 -0.208)" fill="#336470"/><path d="M373.061,160.284a2.781,2.781,0,1,1-2.781-2.782,2.782,2.782,0,0,1,2.781,2.782" transform="translate(-189.888 -84.433)" fill="#336470"/><path d="M269.532,64.168h-25.7a6.092,6.092,0,0,1,.668,2.781v35.6a2.782,2.782,0,0,0,2.782,2.781h22.252a2.782,2.782,0,0,0,2.782-2.781v-35.6a2.782,2.782,0,0,0-2.782-2.781Zm-11.127,5.563h0a6.119,6.119,0,1,1-4.327,1.792,6.121,6.121,0,0,1,4.327-1.792Zm6.676,30.041H251.729a1.669,1.669,0,1,1,0-3.338h13.352a1.669,1.669,0,0,1,0,3.338Zm0-8.9H251.729a1.669,1.669,0,1,1,0-3.338h13.352a1.669,1.669,0,0,1,0,3.338Z" transform="translate(-78.014)" fill="#336470"/></g></svg>