<svg xmlns="http://www.w3.org/2000/svg" width="38.684" height="32.34" viewBox="0 0 38.684 32.34">
  <g id="Group_7" data-name="Group 7" transform="translate(0 0)">
    <path id="Path_4" data-name="Path 4" d="M409.189,119.046a8.044,8.044,0,0,1-5.769-2.438,11.529,11.529,0,0,0,5.218-13.651c.179-.016.365-.023.551-.023a8.056,8.056,0,0,1,0,16.112" transform="translate(-378.557 -96.63)" fill="#336470" fill-rule="evenodd"/>
    <path id="Path_5" data-name="Path 5" d="M8.061,119.046a8.037,8.037,0,0,0,5.73-2.4,11.391,11.391,0,0,1-5.4-13.7c-.109-.008-.217-.008-.326-.008a8.056,8.056,0,1,0,0,16.112" transform="translate(-0.001 -96.63)" fill="#336470" fill-rule="evenodd"/>
    <path id="Path_6" data-name="Path 6" d="M158.685,20.041A10.021,10.021,0,1,1,168.7,10.024a10.016,10.016,0,0,1-10.017,10.017" transform="translate(-139.666 0)" fill="#336470" fill-rule="evenodd"/>
    <path id="Path_8" data-name="Path 8" d="M1.057,0h0l.968,8.549H0Z" transform="translate(6.088 23.791)" fill="#3a3a3c"/>
    <path id="Path_9" data-name="Path 9" d="M.991,0h0L2.037,12.338H0Z" transform="translate(18.038 20.001)" fill="#3a3a3c"/>
    <path id="Path_10" data-name="Path 10" d="M.936,0h0l1.1,7.377H0Z" transform="translate(29.196 24.963)" fill="#3a3a3c"/>
    <rect id="Rectangle_10" data-name="Rectangle 10" width="28.769" height="2.239" rx="1" transform="translate(4.534 30.1)" fill="#3a3a3c"/>
    <path id="Path_7" data-name="Path 7" d="M234.542,66.571c0-.724-.581-1.216-1.512-1.216a2.232,2.232,0,0,0-1.972,1l-1.174-.815a3.757,3.757,0,0,1,3.279-1.578c1.779,0,2.964.867,2.964,2.354,0,2.109-2.069,2.3-2.069,3.829h-1.537c0-1.915,2.021-2.277,2.021-3.571m-2.214,5.653a.963.963,0,1,1,.968,1.009.968.968,0,0,1-.968-1.009" transform="translate(-214.13 -58.331)" fill="#fff"/>
  </g>
</svg>
