<svg id="Group_26" data-name="Group 26" xmlns="http://www.w3.org/2000/svg" xmlns:xlink="http://www.w3.org/1999/xlink" width="38.972" height="32.607" viewBox="0 0 38.972 32.607">
  <defs>
    <clipPath id="clip-path">
      <rect id="Rectangle_20" data-name="Rectangle 20" width="38.972" height="32.607" fill="none"/>
    </clipPath>
  </defs>
  <g id="Group_25" data-name="Group 25" clip-path="url(#clip-path)">
    <path id="Path_62" data-name="Path 62" d="M829.384,190.725a3.237,3.237,0,1,1-3.237-3.237,3.237,3.237,0,0,1,3.237,3.237" transform="translate(-790.576 -180.121)" fill="#4892a3"/>
    <path id="Path_63" data-name="Path 63" d="M10.631,480.831a3.237,3.237,0,1,1-3.237-3.237,3.237,3.237,0,0,1,3.237,3.237" transform="translate(-3.994 -458.828)" fill="#4892a3"/>
    <path id="Path_64" data-name="Path 64" d="M276.336,97.21a4.15,4.15,0,0,1,0-2.354h-4.768a5.908,5.908,0,0,1,0,2.354Z" transform="translate(-260.897 -91.129)" fill="#3a3a3c"/>
    <path id="Path_65" data-name="Path 65" d="M420.008,45.672a3.237,3.237,0,1,1-3.237-3.237,3.237,3.237,0,0,1,3.237,3.237" transform="translate(-397.285 -40.768)" fill="#4892a3"/>
    <path id="Path_66" data-name="Path 66" d="M605.248,97.21a4.5,4.5,0,0,1,3.085,1.22,4.192,4.192,0,0,1,2.351-.9,6.867,6.867,0,0,0-5.436-2.672h-6.339a4.151,4.151,0,0,1,0,2.354Z" transform="translate(-575.376 -91.129)" fill="#3a3a3c"/>
    <path id="Path_67" data-name="Path 67" d="M420.008,335.778a3.237,3.237,0,1,1-3.237-3.237,3.237,3.237,0,0,1,3.237,3.237" transform="translate(-397.285 -319.474)" fill="#4892a3"/>
    <path id="Path_68" data-name="Path 68" d="M420.008,625.885a3.237,3.237,0,1,1-3.237-3.237,3.237,3.237,0,0,1,3.237,3.237" transform="translate(-397.285 -598.182)" fill="#4892a3"/>
    <path id="Path_69" data-name="Path 69" d="M4.9,0a4.9,4.9,0,1,0,4.9,4.9A4.9,4.9,0,0,0,4.9,0m.19,6.927V5.955H2.667v-2.1H5.094V2.881L8.088,4.9Z" transform="translate(0 0.001)" fill="#4892a3"/>
    <path id="Path_70" data-name="Path 70" d="M747.1,581.39a3.727,3.727,0,1,1-3.727,3.727,3.731,3.731,0,0,1,3.727-3.727m0-1.177a4.9,4.9,0,1,0,4.9,4.9,4.9,4.9,0,0,0-4.9-4.9" transform="translate(-713.034 -557.415)" fill="#212121"/>
    <path id="Path_71" data-name="Path 71" d="M810.787,651.1a2.3,2.3,0,1,1,2.3-2.3,2.3,2.3,0,0,1-2.3,2.3" transform="translate(-776.72 -621.1)" fill="#3a3a3c"/>
    <path id="Path_72" data-name="Path 72" d="M608.332,353.924a4.5,4.5,0,0,1-3.085,1.22h-6.339a4.148,4.148,0,0,1,0,2.354h6.339a6.868,6.868,0,0,0,5.436-2.672,4.192,4.192,0,0,1-2.351-.9" transform="translate(-575.375 -340.017)" fill="#3a3a3c"/>
    <path id="Path_73" data-name="Path 73" d="M95.589,388.531a4.5,4.5,0,0,1,3.085-1.22h6.339a4.15,4.15,0,0,1,0-2.354H98.674a6.867,6.867,0,0,0-5.436,2.673,4.191,4.191,0,0,1,2.351.9" transform="translate(-89.574 -369.831)" fill="#3a3a3c"/>
    <path id="Path_74" data-name="Path 74" d="M104.845,646.425a4.2,4.2,0,0,1,.17-1.177H98.677a4.5,4.5,0,0,1-3.085-1.22,4.192,4.192,0,0,1-2.351.9,6.867,6.867,0,0,0,5.436,2.672h6.339a4.2,4.2,0,0,1-.17-1.177" transform="translate(-89.577 -618.722)" fill="#3a3a3c"/>
    <path id="Path_75" data-name="Path 75" d="M603.677,675.068h-4.768a4.151,4.151,0,0,1,0,2.354h4.768a5.909,5.909,0,0,1,0-2.354" transform="translate(-575.376 -648.542)" fill="#3a3a3c"/>
  </g>
</svg>
