<svg id="Group_98961" data-name="Group 98961" xmlns="http://www.w3.org/2000/svg" xmlns:xlink="http://www.w3.org/1999/xlink" width="32.739" height="37.367" viewBox="0 0 32.739 37.367">
  <defs>
    <clipPath id="clip-path">
      <path id="Path_52" data-name="Path 52" d="M9.152,23.972A14.819,14.819,0,1,0,23.971,9.153,14.819,14.819,0,0,0,9.152,23.972" transform="translate(-9.152 -9.153)" fill="#336470"/>
    </clipPath>
    <clipPath id="clip-path-2">
      <rect id="Rectangle_15" data-name="Rectangle 15" width="31.705" height="37.367" fill="none"/>
    </clipPath>
    <clipPath id="clip-path-3">
      <path id="Path_56" data-name="Path 56" d="M42.71,53.738A11.028,11.028,0,1,0,53.738,42.71,11.028,11.028,0,0,0,42.71,53.738" transform="translate(-42.71 -42.71)" fill="#336470"/>
    </clipPath>
    <clipPath id="clip-path-5">
      <rect id="Rectangle_17" data-name="Rectangle 17" width="11.712" height="12.479" fill="none"/>
    </clipPath>
  </defs>
  <g id="Group_15" data-name="Group 15" transform="translate(2.068 1.034)" clip-path="url(#clip-path)">
    <rect id="Rectangle_14" data-name="Rectangle 14" width="29.638" height="29.637" transform="translate(0 0)" fill="#336470"/>
  </g>
  <g id="Group_17" data-name="Group 17" transform="translate(1.034)" clip-path="url(#clip-path-2)">
    <path id="Path_53" data-name="Path 53" d="M23.971,9.5A14.817,14.817,0,0,0,9.156,24.143c0-.058,0-.115,0-.172a14.819,14.819,0,1,1,29.638,0c0,.058,0,.115,0,.172A14.817,14.817,0,0,0,23.971,9.5" transform="translate(-8.118 -8.118)" fill="#57b54d" fill-rule="evenodd"/>
    <path id="Path_54" data-name="Path 54" d="M45.621,33.559A12.062,12.062,0,0,1,57.682,45.621a12.622,12.622,0,0,1-.594,3.75A12.063,12.063,0,1,1,45.621,33.559" transform="translate(-29.768 -29.768)" fill="#4892a3" fill-rule="evenodd"/>
    <path id="Path_55" data-name="Path 55" d="M45.621,152.4a12.062,12.062,0,0,1-12.062-12.062H57.682A12.062,12.062,0,0,1,45.621,152.4" transform="translate(-29.768 -124.482)" fill="#4892a3" fill-rule="evenodd"/>
  </g>
  <g id="Group_19" data-name="Group 19" transform="translate(5.859 4.825)" clip-path="url(#clip-path-3)">
    <rect id="Rectangle_16" data-name="Rectangle 16" width="22.056" height="22.056" transform="translate(0 0)" fill="#336470"/>
  </g>
  <g id="Group_24" data-name="Group 24" clip-path="url(#clip-path-2)">
    <g id="Group_23" data-name="Group 23" transform="translate(10.29 10.511)" opacity="0.28">
      <g id="Group_22" data-name="Group 22">
        <g id="Group_21" data-name="Group 21" clip-path="url(#clip-path-5)">
          <path id="Path_57" data-name="Path 57" d="M102.79,93.876c-.018-.289-.083-.37-.359-.447-2.358-.656-6.651-.719-9.147,1.873-2.285,2.372-1.806,4.454-1.4,6.228a.236.236,0,0,0,.356.152.163.163,0,0,0,.045-.038A20.786,20.786,0,0,1,99.1,95.486c.772-.4.515.007.311.166a37.878,37.878,0,0,0-7.319,7.788l-.67.927H91.09V105h0a.531.531,0,0,0,.531.529.74.74,0,0,0,.613-.326c.211-.312.455-.676.62-.9.205-.283.42-.569.637-.85a.511.511,0,0,1,.126-.116.522.522,0,0,1,.373-.073,6.387,6.387,0,0,0,5.789-1.445c2.78-2.528,3.1-6.527,3.01-7.936" transform="translate(-91.09 -93.047)" fill="#fff"/>
        </g>
      </g>
    </g>
    <path id="Path_59" data-name="Path 59" d="M96.847,90.151c2.5-2.592,6.789-2.529,9.147-1.873.276.077.341.158.359.447,0,.076.008.16.01.251,0-.233,0-.438-.01-.6-.017-.289-.083-.37-.359-.447-2.358-.656-6.651-.719-9.147,1.873A5.407,5.407,0,0,0,95.109,93.9a5.481,5.481,0,0,1,1.738-3.752" transform="translate(-84.362 -77.652)" fill="#6fde49"/>
    <path id="Path_60" data-name="Path 60" d="M91.191,117.658c.371-.515.795-1.1.9-1.245a37.982,37.982,0,0,1,7.267-7.747,1.194,1.194,0,0,0,.188-.2.747.747,0,0,0,.075-.492s.01.043-.045.121a.84.84,0,0,1-.131.148l-.222.176a38.244,38.244,0,0,0-7.131,7.64c-.1.144-.529.73-.9,1.245a.522.522,0,0,0-.07.486.539.539,0,0,1,.07-.132" transform="translate(-80.8 -95.776)" fill="#6fde49"/>
  </g>
  <rect id="Rectangle_19" data-name="Rectangle 19" width="31.705" height="37.367" transform="translate(1.034)" fill="none"/>
  <path id="Path_61" data-name="Path 61" d="M102.79,88.37c-.018-.289-.083-.37-.359-.447-2.358-.656-6.651-.719-9.147,1.873-2.285,2.372-1.806,4.454-1.4,6.228a.236.236,0,0,0,.356.152.163.163,0,0,0,.045-.038A20.786,20.786,0,0,1,99.1,89.98c.772-.4.515.007.311.166a37.878,37.878,0,0,0-7.319,7.788c-.1.144-.529.73-.9,1.245a.53.53,0,0,0,.431.84.74.74,0,0,0,.613-.326c.211-.312.455-.676.62-.9.205-.283.42-.569.637-.85a.511.511,0,0,1,.126-.116.521.521,0,0,1,.373-.073,6.387,6.387,0,0,0,5.789-1.445c2.78-2.528,3.1-6.527,3.01-7.936" transform="translate(-80.891 -77.652)" fill="#fff"/>
</svg>
