<svg xmlns="http://www.w3.org/2000/svg" width="40.856" height="40.856" viewBox="0 0 40.856 40.856">
  <g id="Group_127471" data-name="Group 127471" transform="translate(-468.814 -606.646)">
    <path id="Path_58132" data-name="Path 58132" d="M164.54,20.427a20.428,20.428,0,1,1,20.428,20.428A20.428,20.428,0,0,1,164.54,20.427" transform="translate(304.274 606.647)" fill="#f49755"/>
    <path id="Path_58133" data-name="Path 58133" d="M204.875,51.667s-.857-1.024-1.571-1.928a7.514,7.514,0,0,0,4.309-2.833,13.63,13.63,0,0,1-2.738,1.4,15.666,15.666,0,0,1-3.452,1.023,16.677,16.677,0,0,1-6.166-.024,19.968,19.968,0,0,1-3.5-1.024,13.937,13.937,0,0,1-1.738-.809c-.071-.047-.143-.071-.214-.119a.341.341,0,0,1-.1-.071c-.428-.238-.666-.4-.666-.4a7.4,7.4,0,0,0,4.166,2.809c-.714.9-1.6,1.976-1.6,1.976-5.262-.167-7.261-3.619-7.261-3.619a31.882,31.882,0,0,1,3.428-13.88,11.772,11.772,0,0,1,6.69-2.5l.238.286a16.06,16.06,0,0,0-6.262,3.119s.524-.286,1.4-.691a17.866,17.866,0,0,1,5.4-1.5,2.323,2.323,0,0,1,.4-.048,20.16,20.16,0,0,1,4.809-.048,19.413,19.413,0,0,1,7.166,2.286,15.849,15.849,0,0,0-5.928-3.024l.333-.381a11.772,11.772,0,0,1,6.69,2.5,31.88,31.88,0,0,1,3.429,13.88s-2.024,3.452-7.285,3.619M193.8,40.548a2.652,2.652,0,1,0,2.428,2.643,2.537,2.537,0,0,0-2.428-2.643m8.69,0a2.652,2.652,0,1,0,2.429,2.643,2.537,2.537,0,0,0-2.429-2.643" transform="translate(290.986 585.407)" fill="#fff"/>
  </g>
</svg>
