<svg xmlns="http://www.w3.org/2000/svg" xmlns:xlink="http://www.w3.org/1999/xlink" width="40.856" height="40.856" viewBox="0 0 40.856 40.856">
  <defs>
    <clipPath id="clip-path">
      <rect id="Rectangle_52314" data-name="Rectangle 52314" width="26.667" height="15.169" fill="none"/>
    </clipPath>
  </defs>
  <g id="Group_127470" data-name="Group 127470" transform="translate(-522.997 -606.646)">
    <path id="Path_58130" data-name="Path 58130" d="M329.079,20.427a20.428,20.428,0,1,1,20.428,20.428,20.428,20.428,0,0,1-20.428-20.428" transform="translate(193.918 606.647)" fill="#f49755"/>
    <g id="Group_114641" data-name="Group 114641" transform="translate(529.862 619.507)">
      <g id="Group_114640" data-name="Group 114640" clip-path="url(#clip-path)">
        <path id="Path_155844" data-name="Path 155844" d="M15.038,7.664a7.53,7.53,0,0,1-7.552,7.505A7.585,7.585,0,0,1,7.542,0a7.536,7.536,0,0,1,7.5,7.663" transform="translate(0 -0.001)" fill="#fff"/>
        <path id="Path_155845" data-name="Path 155845" d="M288.28,15.5a12.8,12.8,0,0,1-.669,4.062,7.454,7.454,0,0,1-.818,1.64c-1.36,1.968-3.272,1.962-4.622-.025a8.96,8.96,0,0,1-1.373-4.09,11.655,11.655,0,0,1,.866-6.251,5.29,5.29,0,0,1,.945-1.455,2.358,2.358,0,0,1,3.782.02,8.1,8.1,0,0,1,1.765,4.43c.08.575.088,1.159.124,1.67" transform="translate(-264.995 -7.971)" fill="#fff"/>
        <path id="Path_155846" data-name="Path 155846" d="M428.762,34.867c-1.771-1.635-1.778-11.075-.032-12.721.612.082.718.624.822,1.06a22.639,22.639,0,0,1,0,10.57,1.272,1.272,0,0,1-.793,1.091" transform="translate(-403.512 -20.907)" fill="#fff"/>
      </g>
    </g>
  </g>
</svg>
