<svg xmlns="http://www.w3.org/2000/svg" width="40.856" height="40.856" viewBox="0 0 40.856 40.856">
  <g id="Group_127472" data-name="Group 127472" transform="translate(-414.631 -606.681)">
    <path id="Path_58134" data-name="Path 58134" d="M20.428.105A20.428,20.428,0,1,1,0,20.533,20.428,20.428,0,0,1,20.428.105" transform="translate(414.631 606.576)" fill="#f49755"/>
    <path id="Path_58131" data-name="Path 58131" d="M377.434,33.284a10.073,10.073,0,0,1-2.9.795,5.065,5.065,0,0,0,2.22-2.793,10.1,10.1,0,0,1-3.206,1.225,5.053,5.053,0,0,0-8.6,4.6,14.332,14.332,0,0,1-10.406-5.275,5.054,5.054,0,0,0,1.562,6.741,5.02,5.02,0,0,1-2.286-.632c0,.022,0,.043,0,.064a5.052,5.052,0,0,0,4.05,4.95,5.062,5.062,0,0,1-2.28.087,5.054,5.054,0,0,0,4.716,3.506,10.192,10.192,0,0,1-7.474,2.091,14.358,14.358,0,0,0,22.1-12.1c0-.219-.005-.437-.015-.653a10.247,10.247,0,0,0,2.519-2.614" transform="translate(69.929 586.158)" fill="#fff"/>
  </g>
</svg>
