<svg xmlns="http://www.w3.org/2000/svg" xmlns:xlink="http://www.w3.org/1999/xlink" width="185.143" height="185" viewBox="0 0 185.143 185">
  <defs>
    <clipPath id="clip-path">
      <rect id="Rectangle_1" data-name="Rectangle 1" width="185.143" height="185" fill="#1d3c34"/>
    </clipPath>
  </defs>
  <g id="Group_1" data-name="Group 1" clip-path="url(#clip-path)">
    <path id="Path_1" data-name="Path 1" d="M141.793,170.976c-37.8,23.695-88.769,17.047-118.973-17.538a92.59,92.59,0,1,1,118.973,17.538M42.885,56.7c.006-.1.014-.2.023-.3-.055-.2-.106-.39-.155-.588.049.3.095.588.132.884M152.861,77.19a19.88,19.88,0,0,0,12.273-6.98A19.961,19.961,0,0,0,140.3,72.915c4.378-2.135,10.827-4.011,17.194-1.971-6.817-.224-12.821.826-17.7,3.816a19.878,19.878,0,0,0,13.065,2.43m-10.182,9.554a13.312,13.312,0,0,0,8.9-3.233,13.374,13.374,0,0,0-16.715-1c3.133-.921,7.606-1.434,11.585.628-4.481-.915-8.57-.9-12.127.531a13.318,13.318,0,0,0,8.36,3.076M31.613,77.19a19.88,19.88,0,0,1-12.273-6.98,19.956,19.956,0,0,1,24.831,2.705C39.8,70.78,33.343,68.9,26.98,70.944c6.817-.224,12.821.826,17.7,3.816a19.869,19.869,0,0,1-13.062,2.43m10.179,9.554A13.3,13.3,0,0,1,32.9,83.51a13.374,13.374,0,0,1,16.715-1c-3.133-.921-7.608-1.437-11.585.628,4.481-.915,8.567-.9,12.124.531a13.312,13.312,0,0,1-8.36,3.076M71.675,121.38a19.868,19.868,0,0,1-10.46,9.482,19.958,19.958,0,0,1,10.32-22.748c-3.4,3.494-7.193,9.034-7.238,15.719,1.914-6.544,4.788-11.923,9.146-15.622a19.87,19.87,0,0,1-1.767,13.169m39.382,0a19.868,19.868,0,0,0,10.46,9.482,19.958,19.958,0,0,0-10.32-22.748c3.4,3.494,7.193,9.034,7.238,15.719-1.914-6.544-4.785-11.923-9.146-15.622a19.87,19.87,0,0,0,1.767,13.169m13.235-1.868a13.727,13.727,0,0,0,8.151,5.359,13.79,13.79,0,0,0-9.465-14.434c2.688,2.025,5.87,5.405,6.613,9.964-2-4.266-4.536-7.631-7.907-9.694a13.741,13.741,0,0,0,2.608,8.8m-64.509,0a13.727,13.727,0,0,1-8.151,5.359A13.787,13.787,0,0,1,61.1,110.438c-2.691,2.025-5.873,5.405-6.616,9.964,2.005-4.266,4.536-7.631,7.907-9.694a13.741,13.741,0,0,1-2.608,8.8M107.712,82.1a16.551,16.551,0,0,1,7.055-9.4,16.611,16.611,0,0,1-4.843,20.223c2.223-3.391,4.45-8.521,3.434-13.992-.531,5.652-2.031,10.5-5.009,14.216a16.543,16.543,0,0,1-.637-11.046M78.535,70.783a14.677,14.677,0,0,1-1.7-10.277c6.492,2.163,12.589,7.2,10.311,16.035-.809-3.5-3.055-8.616-7.181-11.315,3.294,3.8,5.48,7.735,6.033,11.915a14.669,14.669,0,0,1-7.462-6.358m10.7-20.975a13.48,13.48,0,0,0-6.421-7.092,13.514,13.514,0,0,0,5.44,16.029c-2.057-2.582-4.246-6.573-3.833-11.083.855,4.542,2.433,8.36,5.124,11.146a13.473,13.473,0,0,0-.31-9m57.394,57.075a10.26,10.26,0,0,0,7.218,1.041,10.3,10.3,0,0,0-10.988-6.765,12.145,12.145,0,0,1,7.64,4.645,16.223,16.223,0,0,0-8.429-4.054,10.266,10.266,0,0,0,4.559,5.133m-83.837-4.969a10.281,10.281,0,0,1-7.112-1.624A10.312,10.312,0,0,1,68.37,97.929a12.154,12.154,0,0,0-8.8,1.587,16.2,16.2,0,0,1,9.321-.752,10.24,10.24,0,0,1-6.1,3.15m64.491-30.761a13.479,13.479,0,0,1,5.4-7.9,13.548,13.548,0,0,1-.161,12.922,49.568,49.568,0,0,0,6.206-10.931c1.211-4.57,1.713-10.667-1.067-16.169,1.288,6.7,1.193,12.793-.993,18.074a19.95,19.95,0,0,1,.519-25.735,19.875,19.875,0,0,1,5.021,13.028c.115.76.2,1.509.264,2.252.227-.585.479-1.162.763-1.733a19.869,19.869,0,0,1,10.354-9.6,19.951,19.951,0,0,1-10.951,23.3c.384-5.7,3-11.212,7.129-16.64a21.686,21.686,0,0,0-7.451,11.315c-1.506,11.3-9.215,20.5-18.468,27.766a39.861,39.861,0,0,1,13.49,2.4c-.155-.2-.3-.39-.448-.588.488.339,1,.677,1.552,1.007a39.522,39.522,0,0,1,5.044,2.433,20.223,20.223,0,0,0,10.1,1.1c-6.774-.806-12.552-2.748-16.921-6.435a19.95,19.95,0,0,1,24.36,8.311,19.865,19.865,0,0,1-14.1.777A20.1,20.1,0,0,1,142.367,98a58.961,58.961,0,0,0-19.44-1.191,10.266,10.266,0,0,1,6.326,3.48,10.309,10.309,0,0,1-13.212-1.526,16.228,16.228,0,0,1,9.324.749,11.947,11.947,0,0,0-8.331-1.653,40.52,40.52,0,0,0-6.567,2.209c6.022,2.315,9.433,7.806,18.146,6.805l-.043-.009a12.27,12.27,0,0,0,7.961-4.26,16.378,16.378,0,0,1-8.725,3.621,10.414,10.414,0,0,1,12.222-5.574A10.364,10.364,0,0,1,134.956,106a10.622,10.622,0,0,1-1.01.425q-.3.185-.585.353a12.409,12.409,0,0,1,10.833,5.62c-4.536,2.289-12.913,1.509-16.009-2.691,3.641-.5,7.356-.729,11.318,1.156-2.665-2.341-6.665-2.479-9.74-2.378-9.238,3.3-14.887-3.3-21.8-4.381-5.032-.786-7.368,1.825-9.918,5.018-.958-2.04-1.859-4.114-2.66-6.223C98.784,99.47,102.56,98,106.964,96c22.9-12.982,13.92-17.154,13.894-29.077a16.289,16.289,0,0,0-5.3-9.132c2.883,4.126,4.656,8.26,4.774,12.477a14.72,14.72,0,0,1-7.4-17.492A14.737,14.737,0,0,1,121.2,62.865c.055-.33.118-.663.187-1a13.454,13.454,0,0,1,2.608-7.471c.161-.336.324-.671.5-1.013-.072.212-.141.422-.207.631.215-.275.445-.542.683-.8a13.524,13.524,0,0,1-.011,17.443c-1.406-3.609-1.386-7.74-.419-12.259-2.126,4-1.65,8.527-.749,11.7-.1-.146-.2-.3-.3-.448,1.153,5.279,3.107,9.347,1.721,14.144a44.18,44.18,0,0,0,4.372-4.114c1.644-2.835,3.176-6.992,2.175-11.3-.229,4.616-1.274,8.613-3.56,11.737a13.452,13.452,0,0,1-.915-8.957M60.917,37.38A14.69,14.69,0,0,1,57.5,27.539C64.268,28.572,71.127,32.5,70.379,41.6c-1.391-3.314-4.47-7.973-8.994-9.935,3.89,3.19,6.711,6.693,7.964,10.724a14.668,14.668,0,0,1-8.432-5.006M38.705,109.348a12.449,12.449,0,0,1-8.555,2.244c1.32-5.66,5.1-11.209,12.75-9.975-2.9.958-7.043,3.259-9.006,6.96,2.958-3.084,6.111-5.242,9.605-6.036a12.46,12.46,0,0,1-4.794,6.808m93.236-63.037a13.322,13.322,0,0,0,2.464-9.135,13.372,13.372,0,0,0-10.426,13.1c1.047-3.1,3.2-7.052,7.172-9.12-3.322,3.142-5.655,6.5-6.533,10.228a13.323,13.323,0,0,0,7.322-5.075m-46.021,97.4a39.7,39.7,0,0,1,1.632-29.582,38.243,38.243,0,0,1,3.483,8.182c-2.169,6.452-2.631,12.532,1.589,21.491,4.418-9.944,3.17-18.929-1.242-28.325-2.5-5.316-6.725-10.954-13.315-10.736-7.715.255-13.344,7.6-23.273,3.776-3.162-.143-7.795-.275-10.767,2.338,3.962-1.885,7.677-1.661,11.318-1.156-3.1,4.2-11.473,4.98-16.009,2.691a12.247,12.247,0,0,1,12.207-5.454l-.052-.032a10.422,10.422,0,0,1-7.99-6.257,10.414,10.414,0,0,1,12.222,5.574A16.378,16.378,0,0,1,47,102.606a10.451,10.451,0,0,0,4.085,3.139c12.7,4.134,16.118-3.1,23.31-5.755-8.951-5.279-21.308-5.026-32.333-2.017a20.126,20.126,0,0,1-4.616,2.135,19.866,19.866,0,0,1-14.1-.777,19.951,19.951,0,0,1,24.36-8.311c-4.367,3.687-10.148,5.629-16.918,6.435,6.6,1.062,12.692-1.767,16.7-4.539q-.374.508-.777.99a39.271,39.271,0,0,1,14.815-2.783C51.518,83.263,43.313,73.144,42.8,60.561c-1.2-4.656-3.85-10.489-9.244-13.969,4.5,5.127,7.5,10.434,8.283,16.1A19.952,19.952,0,0,1,29.275,40.223,19.977,19.977,0,0,1,42.452,54.384a20,20,0,0,1,6.022-17.925,19.951,19.951,0,0,1-1.85,25.674c-1.693-5.463-1.225-11.542.674-18.092-3.19,5.09-3.331,11.028-2.611,15.639a60.464,60.464,0,0,0,7.213,15.2,13.569,13.569,0,0,1,.476-11.628A13.517,13.517,0,0,1,56.857,80.11c-2.289-3.124-3.331-7.121-3.56-11.737-1.013,4.367.568,8.575,2.235,11.413a45.79,45.79,0,0,0,4.78,4.969c-1.544-7.241,1.193-9.169,1.119-15.616l-.017.075c-.445-3.566-1.882-8.309-5.709-11.421,2.886,4.126,4.656,8.26,4.774,12.477a14.72,14.72,0,0,1-7.4-17.492,14.657,14.657,0,0,1,7.072,6.779c.528.823.987,1.612,1.386,2.373a13.465,13.465,0,0,1,3.583-8.722,13.524,13.524,0,0,1-.011,17.443c-1.406-3.609-1.386-7.74-.419-12.259a14.089,14.089,0,0,0-1.469,7.634c1.762,5.993-.2,10,1.346,15.464,1.635,5.77,5.064,8.739,9.06,11.057a16.609,16.609,0,0,1-4.384-19.853A16.607,16.607,0,0,1,75.66,93.141c-2.978-3.712-4.478-8.564-5.009-14.216-1,5.382,1.139,10.432,3.325,13.826,3.543,2.005,7.5,3.558,11.031,6.111-3.635-17.42,9.858-23.881.241-36.542-2.662-3.5-6.639-6.957-9.574-11.1-3.446-3.193-8.524-6.441-14.606-6.6,6.507,2.043,11.829,5.015,15.444,9.445A19.954,19.954,0,0,1,54.1,41.4a19.973,19.973,0,0,1,19.328,5.982A17.076,17.076,0,0,1,71.9,41.832a13.486,13.486,0,0,1,.752-8.151,13.518,13.518,0,0,1,5.916,16.408c-2.548-2.918-3.93-6.811-4.559-11.39-.64,4.484,1.348,8.581,3.273,11.261-.129-.092-.255-.184-.382-.281,4.556,4.714,10.486,7.568,13.871,12.939a42.892,42.892,0,0,0-.207-20.955c-2.175-4.355-6.14-9.749-12.411-12,5.54,3.976,9.66,8.469,11.705,13.811a19.959,19.959,0,0,1-17.314-19.05,19.98,19.98,0,0,1,16.39,11.545A19.973,19.973,0,0,1,94.8,17.237a19.946,19.946,0,0,1-1.851,25.672c-1.69-5.46-1.225-11.539.674-18.089-3.351,5.348-3.337,11.631-2.493,16.327a44.293,44.293,0,0,1,2.189,30.669c6-2.444,8.584-5.967,10.153-10.059.209-3.916-.416-8.877-3.529-12.859,2.152,5.293,3.067,10.32,2.132,15.019a16.724,16.724,0,0,1-3.77-21.239,16.749,16.749,0,0,1,6.567,14.52c1.11-4.275,2.077-8.911,5.061-13.444,1.165-4.424,1.6-10.093-.866-15.323,1.1,6.731.844,12.821-1.489,18.043a19.954,19.954,0,0,1,1.228-25.712,19.986,19.986,0,0,1,3.426,19.753,19.984,19.984,0,0,1,17.392-9.1,19.951,19.951,0,0,1-19.463,16.847c2.665-5.058,7.293-9.029,13.269-12.316-5.681,1.305-9.9,5.2-12.658,8.879a34.991,34.991,0,0,0-1.73,8.131c-1.911,18.68-7.669,21.2-12.3,23.91C90.2,80.7,89.354,88.235,90.6,95.548a16.619,16.619,0,0,1,10.569-16.611,16.61,16.61,0,0,1-9.427,19.245c.4-4.745,2.651-9.293,6.157-13.757-4.4,3.193-6.332,8.28-7.092,12.236a54.385,54.385,0,0,0,3.4,10.675c5.4,11.02,10.139,20.45,5.115,36-6.231,19.285,30.658,26.274,39.787,21.153,11.172-4.255,21.084-16,27.092-25.505a87.031,87.031,0,1,0-139.719,10.2c5.2,6.062,11.694,12.463,19.145,15.3,13.344,7.058,46.113-3.629,40.295-20.777" transform="translate(0 0.001)" fill="#1d3c34"/>
  </g>
</svg>
