<svg xmlns="http://www.w3.org/2000/svg" width="60" height="62" viewBox="0 0 60 62">
  <g id="Group_115023" data-name="Group 115023" transform="translate(0)">
    <g id="Group_115021" data-name="Group 115021" transform="translate(0 0)">
      <ellipse id="Ellipse_1146" data-name="Ellipse 1146" cx="30" cy="31" rx="30" ry="31" transform="translate(0 0)" fill="#caff04"/>
    </g>
    <path id="Path_58133" data-name="Path 58133" d="M209.341,56.019s-1.044-1.247-1.913-2.348a9.15,9.15,0,0,0,5.247-3.45,16.6,16.6,0,0,1-3.334,1.711,19.075,19.075,0,0,1-4.2,1.246,20.306,20.306,0,0,1-7.509-.029,24.315,24.315,0,0,1-4.261-1.247,16.97,16.97,0,0,1-2.116-.986c-.087-.058-.174-.087-.261-.145a.415.415,0,0,1-.116-.087c-.522-.29-.812-.493-.812-.493a9.015,9.015,0,0,0,5.073,3.421c-.87,1.1-1.942,2.406-1.942,2.406-6.407-.2-8.842-4.407-8.842-4.407a38.821,38.821,0,0,1,4.174-16.9,14.334,14.334,0,0,1,8.146-3.044l.29.348a19.555,19.555,0,0,0-7.624,3.8s.638-.348,1.711-.841a21.754,21.754,0,0,1,6.581-1.826,2.829,2.829,0,0,1,.493-.058,24.548,24.548,0,0,1,5.856-.058,23.638,23.638,0,0,1,8.726,2.783,19.3,19.3,0,0,0-7.219-3.682l.406-.464a14.334,14.334,0,0,1,8.146,3.044,38.818,38.818,0,0,1,4.175,16.9s-2.464,4.2-8.871,4.407m-13.48-13.538a3.229,3.229,0,1,0,2.957,3.218,3.089,3.089,0,0,0-2.957-3.218m10.581,0A3.229,3.229,0,1,0,209.4,45.7a3.089,3.089,0,0,0-2.957-3.218" transform="translate(-171.352 -12.667)"/>
  </g>
</svg>
