<svg id="Group_115013" data-name="Group 115013" xmlns="http://www.w3.org/2000/svg" width="34.531" height="62.746" viewBox="0 0 34.531 62.746">
  <g id="logo_1_" data-name="logo (1)">
    <path id="Path_156209" data-name="Path 156209" d="M122.163,54.131v-.025L97.84,48.535a1.21,1.21,0,0,0-.639.063L89.64,51.626a1.728,1.728,0,0,0-1.089,1.6V83.871a1.064,1.064,0,0,0,.784,1.022v.028l24.326,5.553a1.066,1.066,0,0,0,.614-.042l7.452-2.967a2.15,2.15,0,0,0,1.355-2V55.28a1.2,1.2,0,0,0-.919-1.15Zm-9.4,34.24a.554.554,0,0,1-.71.529L92.77,84.421c-.2-.046-.9-.255.028-.621l4.123-1.639a4,4,0,0,1,2.09-.277l13.178,3.151a.728.728,0,0,1,.575.71Zm-12.706-7.508s-1.188-.355-1.188-1.292V55.8a.536.536,0,0,1,.653-.525l12.064,2.906s1.188.259,1.188,1.292V83.165a.6.6,0,0,1-.731.589Zm15.108-24.224a6.49,6.49,0,0,1-2.949.426L99.487,54.014a.788.788,0,0,1-.621-.77V50.685s-.025-.6.71-.529L118.693,54.6s1.118.213,0,.638Zm7,39.481v-.028L97.847,90.524a1.21,1.21,0,0,0-.639.064L89.64,93.612a1.732,1.732,0,0,0-1.089,1.6v9.417a1.064,1.064,0,0,0,.784,1.026v.028l24.326,5.553a1.066,1.066,0,0,0,.614-.046l7.452-2.967a2.15,2.15,0,0,0,1.355-2V97.266a1.188,1.188,0,0,0-.919-1.146Zm-9.4,13.015a.554.554,0,0,1-.71.525l-19.291-4.478c-.2-.046-.9-.252.028-.617l4.123-1.643a3.971,3.971,0,0,1,2.09-.273l13.118,3.133a.805.805,0,0,1,.632.784Zm-12.706-7.508s-1.188-.355-1.188-1.295v-2.58a.515.515,0,0,1,.624-.5l12.082,2.913s1.188.259,1.188,1.291v2.509a.575.575,0,0,1-.71.561Zm15.1-3a6.489,6.489,0,0,1-2.949.426L99.38,95.978a.66.66,0,0,1-.518-.643V92.675s-.025-.6.71-.532l19.118,4.442s1.118.213,0,.639Z" transform="translate(-88.551 -48.518)" fill="#caff04"/>
  </g>
</svg>
