<svg xmlns="http://www.w3.org/2000/svg" width="60" height="62" viewBox="0 0 60 62">
  <g id="Group_115022" data-name="Group 115022" transform="translate(0 0.027)">
    <ellipse id="Ellipse_1148" data-name="Ellipse 1148" cx="30" cy="31" rx="30" ry="31" transform="translate(0 -0.027)" fill="#caff04"/>
    <path id="Path_156211" data-name="Path 156211" d="M387.98,34.3a14.39,14.39,0,0,1-4.143,1.135,7.236,7.236,0,0,0,3.172-3.99,14.434,14.434,0,0,1-4.58,1.75,7.218,7.218,0,0,0-12.29,6.579,20.474,20.474,0,0,1-14.866-7.536,7.22,7.22,0,0,0,2.232,9.63,7.172,7.172,0,0,1-3.266-.9c0,.031,0,.062,0,.091a7.217,7.217,0,0,0,5.786,7.072,7.231,7.231,0,0,1-3.257.124,7.22,7.22,0,0,0,6.737,5.009,14.56,14.56,0,0,1-10.678,2.987,20.4,20.4,0,0,0,11.055,3.241c13.266,0,20.522-10.99,20.522-20.522,0-.312-.007-.624-.022-.932a14.64,14.64,0,0,0,3.6-3.734" transform="translate(-339.868 -13.648)"/>
  </g>
</svg>
